<svg xmlns="http://www.w3.org/2000/svg" xmlns:xlink="http://www.w3.org/1999/xlink" width="433" height="130" viewBox="0 0 433 130">
  <defs>
    <polygon id="logo-zh_hant-a" points="0 0 99.824 0 99.824 96.104 0 96.104"/>
  </defs>
  <g fill="none" fill-rule="evenodd" transform="translate(12.99 13)">
    <path fill="#FFFA9F" d="M81.4482332,31.2886594 L78.1894133,34.3078178 C74.3149735,29.8310803 68.4852868,27.0900824 61.8227556,27.0900824 C49.8010408,27.0900824 40.4590304,35.4529458 40.4590304,47.8415792 C40.4590304,60.229987 49.8010408,68.5933015 61.6053056,68.5933015 C73.1923459,68.5933015 80.5430555,61.5835662 81.1947293,50.4788026 L64.0312809,50.4788026 L64.0312809,46.5229675 L85.9745721,46.5229675 C86.0469052,46.9739349 86.0469052,47.2861605 86.0469052,47.6678698 C86.0469052,61.930308 76.6323365,72.6531367 61.6053056,72.6531367 C48.0990724,72.6531367 35.860133,63.2838872 35.860133,47.8415792 C35.860133,33.2319479 47.0852825,22.9948286 61.8227556,22.9948286 C69.7888598,22.9948286 76.8135072,26.1182126 81.4482332,31.2886594"/>
    <path stroke="#000" stroke-linecap="round" stroke-linejoin="round" stroke-width="1.127" d="M80.5162381 30.3082846C80.8364156 30.6263757 81.1469113 30.9530395 81.4474999 31.2887271L80.4558952 32.208033M79.1816611 33.3881999L78.1895034 34.3044413C77.8943123 33.9644764 77.587629 33.6346295 77.2703549 33.3151254"/>
    <path stroke="#000" stroke-dasharray="2.732 2.732" stroke-linecap="round" stroke-linejoin="round" stroke-width="1.127" d="M75.221751,31.5083228 C71.5911256,28.7158889 66.9539209,27.0900148 61.8227781,27.0900148 C49.800838,27.0900148 40.4588276,35.4528781 40.4588276,47.8415115 C40.4588276,60.2299193 49.800838,68.5934594 61.6053282,68.5934594 C72.2222938,68.5934594 79.2827697,62.7080972 80.891674,53.1798022"/>
    <path stroke="#000" stroke-linecap="round" stroke-linejoin="round" stroke-width="1.127" d="M81.0805061,51.8276443 C81.1298549,51.3852495 81.1679368,50.93541 81.1947519,50.4788026 L79.8427315,50.4788026"/>
    <path stroke="#000" stroke-dasharray="2.892 2.892" stroke-linecap="round" stroke-linejoin="round" stroke-width="1.127" d="M76.9507373,50.4789154 L66.8292872,50.4789154"/>
    <polyline stroke="#000" stroke-linecap="round" stroke-linejoin="round" stroke-width="1.127" points="65.383 50.479 64.031 50.479 64.031 49.125"/>
    <polyline stroke="#000" stroke-linecap="round" stroke-linejoin="round" stroke-width="1.127" points="64.031 47.877 64.031 46.523 65.383 46.523"/>
    <path stroke="#000" stroke-dasharray="2.748 2.748" stroke-linecap="round" stroke-linejoin="round" stroke-width="1.127" d="M68.1318011,46.5230351 L83.2482906,46.5230351"/>
    <path stroke="#000" stroke-linecap="round" stroke-linejoin="round" stroke-width="1.127" d="M84.6225292,46.5230351 L85.9745496,46.5230351 C86.0468827,46.9740026 86.0468827,47.2862282 86.0468827,47.6679375 C86.0468827,47.7365189 86.0466574,47.8048746 86.0462067,47.8732304"/>
    <path stroke="#000" stroke-dasharray="2.74 2.74" stroke-linecap="round" stroke-linejoin="round" stroke-width="1.127" d="M85.9094048,50.6123106 C84.6995718,63.3808486 75.5790675,72.6533171 61.6054859,72.6533171 C48.0990274,72.6533171 35.8603133,63.2838421 35.8603133,47.8415341 C35.8603133,33.2319028 47.0852374,22.9950091 61.8227105,22.9950091 C68.7495617,22.9950091 74.9643489,25.356328 79.5150242,29.3717206"/>
    <path stroke="#000" stroke-dasharray="2.704" stroke-linecap="round" stroke-linejoin="round" stroke-width="1.127" d="M110.302332 86.0597067C110.302332 91.3506221 105.845622 95.6394377 100.347631 95.6394377L21.1088693 95.6394377C15.6111036 95.6394377 11.1541684 91.3506221 11.1541684 86.0597067L11.1541684 9.80514707C11.1541684 4.51445727 15.6111036.225416052 21.1088693.225416052L100.347631.225416052C105.845622.225416052 110.302332 4.51445727 110.302332 9.80514707L110.302332 86.0597067zM96.7020203 57.0384052L110.302219 49.6584659M.775586507 55.2902351L11.1541458 49.6584434M19.8184109 101.708052L33.7304755 95.9192451M63.8829643 102.141852L77.7950289 95.6394829M63.8829643 102.141852L77.7950289 95.6394829M24.4018277 8.06543688L42.8686238.381167896M69.6026416 8.07953666L86.039379.397298048"/>
    <path fill="#303030" d="M71.4207485,38.4039965 L68.1619286,41.4231549 C64.2874888,36.9464174 58.4578021,34.2051939 51.7952709,34.2051939 C39.7735561,34.2051939 30.4315458,42.5682829 30.4315458,54.9569163 C30.4315458,67.3453241 39.7735561,75.6824694 51.5778209,75.6824694 C63.1648612,75.6824694 70.5155708,68.6009944 71.1672446,57.5415757 L53.968193,57.5415757 L53.968193,53.6383046 L75.9470875,53.6383046 C76.0194205,54.089272 76.0194205,54.4014976 76.0194205,54.7832069 C76.0194205,69.0456451 66.6048518,79.7684738 51.5778209,79.7684738 C38.0715877,79.7684738 25.8328737,70.3992243 25.8328737,54.9569163 C25.8328737,40.347285 37.0577978,30.1101657 51.7952709,30.1101657 C59.7613751,30.1101657 66.7860225,33.2335497 71.4207485,38.4039965"/>
    <g transform="translate(0 7.761)">
      <mask id="logo-zh_hant-b" fill="#fff">
        <use xlink:href="#logo-zh_hant-a"/>
      </mask>
      <path fill="#303030" d="M88.4090201,92.494577 L11.4150632,92.494577 C7.10887824,92.494577 3.60534269,89.2344816 3.60534269,85.0925293 L3.60534269,10.9987332 C3.60534269,6.85700651 7.10887824,3.38394794 11.4150632,3.38394794 L88.4090201,3.38394794 C92.7152051,3.38394794 96.2187406,6.85700651 96.2187406,10.9987332 L96.2187406,85.0925293 C96.2187406,89.2344816 92.7152051,92.494577 88.4090201,92.494577 M88.3105479,0 L11.5135354,0 C5.16489823,0 -4.50673469e-05,4.98139696 -4.50673469e-05,11.0932581 L-4.50673469e-05,84.9982299 C-4.50673469e-05,91.1098655 5.16489823,96.1041215 11.5135354,96.1041215 L88.3105479,96.1041215 C94.6591851,96.1041215 99.8241284,91.1098655 99.8241284,84.9982299 L99.8241284,11.0932581 C99.8241284,4.98139696 94.6591851,0 88.3105479,0" mask="url(#logo-zh_hant-b)"/>
    </g>
    <g fill="#181818" fill-rule="nonzero" transform="translate(140.725 21.667)">
      <path d="M5.54673 16.7613333L5.54673 24.4746667C5.54673 28.9055 4.401445 32.4935 1.617255 36.1616667L.05196 35.1281667C2.799345 31.2736667 3.790915 28.4071667 3.790915 24.0933333L3.790915 15.0431667 34.429995 15.0431667 34.429995 16.7613333 5.54673 16.7613333zM26.98889 14.7745C24.241505 13.4398333 21.569895 12.3716667 18.785705 11.2991667 15.15933 12.675 11.53512 13.7821667 7.757195 14.5448333L7.224605 12.8266667C10.58252 12.1008333 13.78672 11.414 16.534105 10.4975 14.053015 9.62 11.23202 8.7035 8.48247 7.90183333L9.28352 6.33533333C12.83412 7.36666667 15.884605 8.398 18.898285 9.46616667 21.64567 8.398 24.04882 7.137 26.185675 5.87816667L2.071905 5.87816667 2.071905 4.23583333 16.837205 4.23583333C16.57091 3.92816667 16.38039 3.62483333 16.114095 3.31716667 15.76986 2.899 15.42779 2.55233333 14.96881 2.09733333L16.304615.875333333C17.486705 2.09733333 18.097235 3.05283333 19.127775 4.238L32.788925 4.238 32.788925 5.88033333 26.18784 5.88033333 27.36993 7.10016667C25.53834 8.36116667 23.479425 9.3145 21.037305 10.3458333 23.479425 11.2991667 25.882575 12.1788333 28.17098 13.2491667L26.98889 14.7745zM6.07932 35.0891667L6.07932 33.2583333 19.54995 33.2583333 19.54995 28.4851667 11.537285 28.4851667 11.537285 26.6911667 19.54995 26.6911667 19.54995 22.9493333 11.42254 22.9493333C10.46994 25.0856667 9.36146 27.1115 7.835135 28.9813333L6.34778 27.9131667C8.904645 24.5916667 10.43097 21.5366667 11.61306 17.7168333L13.25413 18.3668333C12.948865 19.3981667 12.528855 20.2756667 12.186785 21.1531667L19.54995 21.1531667 19.54995 17.4113333 21.49412 17.4113333 21.49412 21.1531667 32.02468 21.1531667 32.02468 22.9493333 21.49412 22.9493333 21.49412 26.6911667 30.73001 26.6911667 30.73001 28.4851667 21.49412 28.4851667 21.49412 33.2583333 34.888975 33.2583333 34.888975 35.0913333 6.07932 35.0913333 6.07932 35.0891667zM42.799885 33.9061667L42.799885 31.9605 58.82305 31.9605 58.82305 21.4976667 47.7599 21.4976667 47.7599 19.5866667 58.82305 19.5866667 58.82305 11.0348333 49.398805 11.0348333C47.83351 14.1288333 46.194605 17.0668333 43.904035 20.1608333L42.262965 19.0168333C46.42193 13.3271667 48.86405 8.09466667 51.000905 2.29016667L52.71775 3.055C51.992475 5.1935 51.11565 7.17816667 50.199855 9.12816667L58.820885 9.12816667 58.820885 1.07033333 60.76722 1.07033333 60.76722 9.12816667 73.58835 9.12816667 73.58835 11.037 60.76722 11.037 60.76722 19.5888333 72.1378 19.5888333 72.1378 21.4998333 60.76722 21.4998333 60.76722 31.9626667 76.487285 31.9626667 76.487285 33.9083333 42.799885 33.9083333 42.799885 33.9061667zM118.17003 25.9263333C116.68051 25.3521667 115.193155 24.7433333 114.162615 24.1691667L114.162615 36.0078333 112.44577 36.0078333 112.44577 34.1726667 104.814145 34.1726667 104.814145 36.0078333 103.05833 36.0078333 103.05833 22.9081667 111.759465 22.9081667C109.01208 21.2658333 106.684705 19.7795 104.96786 18.0613333L97.98357 18.0613333C95.656195 20.1976667 93.51934 21.5735 91.079385 22.9081667L100.159395 22.9081667 100.159395 36.0078333 98.366775 36.0078333 98.366775 34.1726667 90.84773 34.1726667 90.84773 36.0078333 89.130885 36.0078333 89.130885 23.9416667C87.87302 24.5916667 86.3835 25.2005 84.97192 25.7746667L84.1319 24.1713333C89.052945 22.1086667 92.144565 20.735 95.54145 18.0635L85.31399 18.0635 85.31399 16.38 97.258295 16.38C98.747815 14.8546667 100.08362 13.0195 101.341485 11.0738333L102.792035 11.9903333C101.761495 13.6695 100.61621 15.1211667 99.509895 16.38L118.09209 16.38 118.09209 18.0613333 107.29307 18.0613333C110.95625 20.696 113.89632 22.3383333 119.007885 24.1691667L118.17003 25.9263333zM88.407775 12.4865L88.407775 2.977 99.66361 2.977 99.66361 12.4865 88.407775 12.4865zM97.90996 4.65616667L90.16359 4.65616667 90.16359 10.8051667 97.90996 10.8051667 97.90996 4.65616667zM98.36894 24.6285L90.849895 24.6285 90.849895 32.5303333 98.36894 32.5303333 98.36894 24.6285zM103.441535 12.4865L103.441535 2.977 115.002635 2.977 115.002635 12.4865 103.441535 12.4865zM112.44577 24.6285L104.814145 24.6285 104.814145 32.5303333 112.44577 32.5303333 112.44577 24.6285zM113.248985 4.65616667L105.19735 4.65616667 105.19735 10.8051667 113.248985 10.8051667 113.248985 4.65616667zM111.109965 16.2261667C109.278375 15.3486667 107.905765 14.7745 106.34047 14.1266667L106.98997 12.714C108.82156 13.4008333 109.815295 13.7821667 111.759465 14.6228333L111.109965 16.2261667zM159.965355 36.1985C152.638995 34.1726667 147.10742 30.1643333 143.940025 23.4065L143.100005 23.4065C141.72523 24.5136667 140.008385 25.6598333 137.9105 26.8428333L137.9105 32.6473333C140.506335 31.9995 142.64319 31.3885 145.239025 30.5868333L145.581095 32.344C140.20107 33.9105 135.54632 35.1303333 131.46313 36.01L130.737855 34.2506667C132.872545 33.8325 134.39887 33.5248333 136.193655 33.0676667L136.193655 27.7961667C133.599985 28.9813333 130.2031 30.1643333 126.9989 31.1198333L126.234655 29.4385C132.03469 27.9131667 136.423145 26.195 140.696855 23.4065L127.45788 23.4065 127.45788 21.6883333 143.827445 21.6883333C143.25372 21.0383333 142.606385 20.4663333 141.956885 19.8943333L143.368465 18.7481667 143.29269 18.7481667C142.718965 18.7481667 141.956885 18.7091667 141.194805 18.5965L140.887375 16.8025C141.917915 16.9931667 142.679995 17.069 143.329495 17.069 144.51375 17.069 144.70427 16.9541667 144.70427 15.886L144.70427 14.3195 138.40845 14.3195 138.40845 20.3905 136.652635 20.3905 136.652635 14.3195 131.006315 14.3195 131.006315 19.2075 129.2505 19.2075 129.2505 12.6771667 136.652635 12.6771667 136.652635 10.4996667 126.542085 10.4996667 126.542085 8.81833333 128.44945 8.81833333 127.685205 8.16833333C129.936805 5.76333333 131.079925 3.77866667 132.03469 1.52533333L133.599985 2.13633333C133.33369 2.78633333 132.72316 3.93033333 132.38109 4.5045L136.6548 4.5045 136.6548 1.06816667 138.410615 1.06816667 138.410615 4.5045 146.499055 4.5045 146.499055 6.10783333 138.410615 6.10783333 138.410615 8.81833333 148.40642 8.81833333 148.40642 10.4975 138.410615 10.4975 138.410615 12.675 146.46225 12.675 146.46225 15.9965C146.46225 18.4795 145.47068 18.746 143.37063 18.746L146.156985 21.6861667 159.930715 21.6861667 159.930715 23.4043333 145.81275 23.4043333C146.728545 25.35 147.949605 27.0703333 149.47593 28.5588333 151.87908 27.339 153.55912 26.3466667 156.30434 24.5115L157.371685 26.0021667C154.778015 27.7203333 153.21272 28.522 150.7706 29.7461667 153.327465 31.8456667 156.648575 33.1066667 160.95909 34.4435L159.965355 36.1985zM136.65047 6.10783333L131.499935 6.10783333C130.92621 6.9095 130.088355 8.0925 129.438855 8.81833333L136.65047 8.81833333 136.65047 6.10783333zM150.31162 15.2338333L150.31162 3.2435 152.067435 3.2435 152.067435 15.2338333 150.31162 15.2338333zM152.028465 19.6256667L151.721035 17.7558333C153.05684 18.0223333 154.35584 18.1393333 155.081115 18.1393333 156.30001 18.1393333 156.5295 18.0223333 156.5295 16.9541667L156.5295 1.45166667 158.28748 1.45166667 158.28748 17.069C158.28748 19.552 157.332715 19.8206667 155.120085 19.8206667 154.392645 19.8163333 153.362105 19.7795 152.028465 19.6256667zM202.291105 34.671C199.73424 34.8616667 197.064795 34.9375 194.27844 34.9375 187.41106 34.9375 182.75631 34.3655 180.199445 33.4858333 178.17517 32.7621667 175.925735 31.5011667 174.28683 29.8588333 173.102575 31.8045 171.84471 33.6028333 169.898375 35.6243333L168.525765 34.3243333C172.83628 29.8198333 175.31737 24.817 176.233165 21.2268333L171.27315 21.2268333C171.006855 21.6471667 170.777365 21.9526667 170.43313 22.412L168.94361 21.2658333C171.57625 17.7905 173.13938 15.0041667 174.66787 11.9881667L168.296275 11.9881667 168.296275 10.231 177.376285 10.231C175.65944 14.0118333 174.6289 16.0723333 172.3773 19.5476667L178.4826 19.5476667C177.757325 22.7543333 176.57307 25.7725 175.23943 28.3681667 176.804725 29.7808333 178.82467 30.888 180.61729 31.6138333 182.86889 32.4155 187.296315 32.9506667 194.27844 32.9506667 197.064795 32.9506667 199.92476 32.799 202.5574 32.6061667L202.291105 34.671zM173.786715 9.24083333C172.565655 6.48916667 171.764605 4.849 170.4288 2.29016667L171.955125 1.4495C173.36454 3.96933333 174.206725 5.6875 175.540365 8.36116667L173.786715 9.24083333zM178.74673 15.0063333L178.74673 13.2123333 189.50678 13.2123333 189.50678 7.94083333 183.82149 7.94083333C182.905695 9.50733333 182.02887 10.881 180.961525 12.1398333L179.4352 10.9568333C181.6868 8.24416667 183.47942 5.0765 184.585735 2.0215L186.226805 2.6715C185.80896 3.93033333 185.34998 5.0765 184.77842 6.18366667L189.508945 6.18366667 189.508945.992333333 191.3427.992333333 191.3427 6.18366667 199.125875 6.18366667 199.125875 7.94083333 191.3427 7.94083333 191.3427 13.2123333 202.06378 13.2123333 202.06378 15.0063333 178.74673 15.0063333zM197.48264 30.2813333L197.48264 28.028 183.70891 28.028 183.70891 30.2813333 181.91629 30.2813333 181.91629 18.7091667 199.238455 18.7091667 199.238455 30.2813333 197.48264 30.2813333zM197.48264 20.4641667L183.70891 20.4641667 183.70891 26.2708333 197.48264 26.2708333 197.48264 20.4641667zM216.91568 10.881L216.91568 36.1205 215.159865 36.1205 215.159865 16.224C214.129325 20.54 212.986205 24.0911667 211.345135 27.794L209.81881 26.8775C211.84092 22.1043333 213.938805 15.9575 214.8546 10.8788333L210.31243 10.8788333 210.31243 9.12166667 215.1577 9.12166667 215.1577 1.13966667 216.913515 1.13966667 216.913515 9.12166667 220.23246 9.12166667 220.23246 10.8788333 216.91568 10.8788333 216.91568 10.881zM219.589455 20.5811667C218.86418 17.9833333 218.4052 16.419 217.60415 14.0898333L219.130475 13.4788333C220.0073 15.9228333 220.581025 17.641 221.343105 19.9701667L219.589455 20.5811667zM244.35056 33.8303333C244.00849 35.0501667 243.39796 35.6633333 242.32845 35.6633333 240.533665 35.6633333 238.208455 34.021 236.069435 30.472 233.32205 32.3418333 230.2694 33.9841667 226.300955 35.5506667L225.499905 33.9841667C229.27783 32.6083333 232.484195 30.8901667 235.268385 28.9445 234.428365 27.3021667 233.70309 25.3543333 233.055755 23.0273333L226.417865 23.0273333C226.30312 23.751 226.19054 24.4768333 226.036825 25.2026667 227.980995 26.4246667 229.35577 27.3043333 231.492625 28.9466667L230.349505 30.3983333C228.48111 28.8318333 227.18211 27.8785 225.616815 26.8081667 224.664215 30.1296667 222.9084 33.072 219.81678 35.7045L218.55675 34.4456667C222.564165 31.1241667 224.127295 27.3043333 224.776795 23.0273333L219.550485 23.0273333 219.550485 21.424 225.006285 21.424C225.12103 20.6223333 225.16 19.8206667 225.19897 18.863L226.84004 18.863C226.80107 19.8185 226.764265 20.6223333 226.647355 21.424L232.640075 21.424C231.419015 16.2673333 230.65477 9.737 230.92323 1.14833333L232.601105 1.14833333C232.40842 9.89083333 233.172665 16.4991667 234.50847 21.424L239.20219 21.424C238.55269 20.5075 238.056905 19.8575 237.33163 18.941L238.82115 17.9855C239.736945 19.2075 240.31067 20.0113333 241.26327 21.424L244.81387 21.424 244.81387 23.0273333 234.891675 23.0273333C235.4654 24.973 236.07593 26.5395 236.72543 27.9153333 238.3665 26.6543333 239.775915 25.2026667 241.11172 23.829L242.447525 24.973C240.806455 26.6153333 239.28013 28.067 237.563285 29.4016667 239.24116 32.305 240.958005 33.566 241.988545 33.566 242.90434 33.566 243.13383 32.1901667 243.248575 27.2653333L245.080165 27.9521667C244.96542 29.3626667 244.889645 30.511 244.7749 31.4643333 244.655825 32.4176667 244.54108 33.1803333 244.35056 33.8303333zM229.812585 19.4718333C229.470515 18.5943333 229.241025 17.9443333 228.972565 17.3355 226.87468 17.8316667 224.586275 18.1371667 221.494655 18.3278333L221.152585 16.6855C221.57043 16.6855 221.87786 16.6855 222.183125 16.6465 223.824195 14.508 225.08206 12.636 226.266315 10.7661667 224.776795 11.0326667 222.793655 11.2623333 221.078975 11.375L220.73474 9.8475C221.19372 9.8475 221.57476 9.8085 221.99477 9.77166667 223.63584 7.02216667 224.854735 4.65616667 226.114765 1.638L227.68006 2.288C226.459 4.88366667 225.12103 7.4425 223.863165 9.581 225.045255 9.46616667 226.19054 9.3145 227.22108 9.12383333 227.83161 8.09033333 228.44214 6.98533333 229.089475 5.80016667L230.540025 6.487C228.44214 10.3068333 226.647355 13.286 224.205235 16.4926667 225.88311 16.3388333 227.257885 16.1091667 228.3642 15.8426667 228.097905 15.2316667 227.868415 14.6206667 227.448405 13.741L228.82318 13.0151667C229.929495 15.4591667 230.46425 16.6053333 231.380045 18.7438333L229.812585 19.4718333zM243.625285 19.7036667C242.975785 18.5185 242.633715 17.7168333 242.213705 16.991 239.96427 17.4871667 237.636895 17.7926667 234.43053 17.9075L234.125265 16.38 235.19261 16.38C236.68213 14.3953333 237.901025 12.5623333 239.009505 10.6145 237.597925 10.8831667 235.458905 11.0738333 233.43896 11.1886667L233.055755 9.66116667C233.55154 9.66116667 233.93258 9.62216667 234.354755 9.62216667 236.03263 6.87266667 237.3706 4.277 238.550525 1.4885L240.11582 2.17533333C238.931565 4.771 237.597925 7.32983333 236.22315 9.46833333 237.44421 9.3535 238.70424 9.24083333 239.9253 9.048 240.49686 7.97983333 241.06842 6.721 241.71792 5.38416667L243.16847 6.18583333C241.06842 10.309 239.351575 13.403 237.099975 16.2651667 238.892595 16.1503333 240.41892 15.9228333 241.451625 15.6563333 241.144195 15.0821667 240.76532 14.5101667 240.26737 13.6305L241.67895 12.9046667C243.01259 15.0431667 243.70106 16.2651667 245.11264 18.785L243.625285 19.7036667z"/>
    </g>
    <g fill="#181818" fill-rule="nonzero" transform="translate(142.89 67.167)">
      <path d="M5.97107 6.45016667C5.678795 6.45016667 5.518585 6.22266667 5.518585 5.98866667 5.518585 5.54016667 5.895295 5.54016667 6.495 5.54016667 7.22677 5.54016667 8.073285 5.5575 8.64268 5.5705 9.56064 5.58783333 10.000135 6.0905 10.000135 6.88566667 10.000135 8.40016667 8.553915 10.9611667 5.328065 10.9611667 2.56769 10.9611667.20351 8.866.20351 5.65933333.20351 2.95533333 2.02644.184166667 5.531575.184166667 7.59049.184166667 9.168775 1.4105 9.168775 2.01716667 9.168775 2.29233333 8.93712 2.509 8.68598 2.509 8.53876 2.509 8.393705 2.4375 8.276795 2.2815 7.63379 1.41483333 6.58593 1.02483333 5.50343 1.02483333 2.730065 1.02483333 1.13879 3.32366667 1.13879 5.66366667 1.13879 8.01666667 2.699755 10.01 5.358375 10.01 8.13174 10.01 8.978255 7.88666667 8.978255 7.09366667 8.978255 6.41333333 8.454325 6.41333333 8.042975 6.41333333 7.519045 6.41333333 6.65521 6.43066667 5.98406 6.45666667L5.97107 6.45666667 5.97107 6.45016667zM21.51577 10.829C21.32525 10.842 20.46358 10.842 19.604075 10.842 18.75323 10.842 17.89589 10.842 17.70537 10.829 16.41936 10.7271667 15.789345 10.1486667 15.74821 9.21266667 15.7179 8.60383333 15.7179 7.56166667 15.7179 6.42416667 15.7179 4.70166667 15.73522 2.79716667 15.7612 1.88716667 15.79151.946833333 16.373895.385666667 17.456395.325 17.73568.307666667 18.551885.294666667 19.3551.294666667 20.171305.294666667 20.96153.307666667 21.18236.325 21.487625.338 21.647835.541666667 21.647835.743166667 21.647835.944666667 21.474635 1.1505 21.15205 1.1505 21.076275 1.1505 19.68851 1.13316667 18.65364 1.13316667 17.17711 1.13316667 16.7138 1.13316667 16.64019 2.01283333 16.60988 2.3595 16.62287 3.575 16.60988 4.42866667 16.60988 4.6995 16.75277 4.6995 16.902155 4.6995 17.19443 4.71683333 17.93919 4.71683333 18.681785 4.71683333 19.42438 4.71683333 20.18646 4.71683333 20.478735 4.6995 20.93122 4.6865 20.97452 5.01583333 20.97452 5.11766667 20.97452 5.33866667 20.80132 5.56616667 20.478735 5.56616667L20.448425 5.56616667C19.99594 5.53583333 19.175405 5.53583333 18.417655 5.53583333 16.607715 5.53583333 16.590395 5.53583333 16.590395 5.82833333 16.590395 8.04916667 16.590395 8.73166667 16.63586 9.07833333 16.689985 9.62866667 16.99958 9.945 17.772485 10.0013333 18.02146 10.0186667 18.824675 10.0186667 19.62356 10.0186667 20.444095 10.0186667 21.2603 10.0186667 21.522265 10.0013333L21.56773 10.0013333C21.860005 10.0013333 22.020215 10.192 22.020215 10.3956667 22.02671 10.5971667 21.8665 10.816 21.51577 10.829zM35.815595 9.8605C35.815595 10.5126667 35.304655 10.9005 34.763405 10.9005 34.412675 10.9005 34.031635 10.7271667 33.78699 10.3371667 32.74779 8.6905 29.59555 2.99866667 28.805325 1.65316667 28.70357 1.47983333 28.57367 1.365 28.471915 1.365 28.264075 1.365 28.264075 1.56866667 28.264075 2.5805 28.264075 4.43083333 28.294385 8.92016667 28.33985 10.4216667L28.33985 10.439C28.33985 10.7271667 28.090875 10.8701667 27.8419 10.8701667 27.597255 10.8701667 27.346115 10.7271667 27.346115 10.439L27.346115 10.4216667C27.376425 9.0935 27.389415 7.579 27.389415 6.10566667 27.389415 4.4005 27.376425 2.7495 27.346115 1.46683333L27.346115 1.42133333C27.346115.6435 27.7986.283833333 28.294385.283833333 28.70357.283833333 29.12791.511333333 29.407195.959833333 30.312165 2.46133333 33.31935 7.85416667 34.40185 9.529 34.486285 9.672 34.60536 9.7565 34.694125 9.7565 34.884645 9.7565 34.884645 9.48133333 34.884645 9.05016667 34.884645 7.50533333 34.83918 2.14283333 34.79588.7735L34.79588.758333333C34.79588.429 35.044855.2665 35.278675.2665 35.54064.2665 35.789615.439833333 35.789615.758333333L35.789615.775666667C35.759305 1.59683333 35.759305 2.65416667 35.759305 3.78083333 35.759305 5.9345 35.789615 8.346 35.81776 9.84966667L35.81776 9.8605 35.815595 9.8605zM47.97207 10.829C47.78155 10.842 46.91988 10.842 46.060375 10.842 45.20953 10.842 44.35219 10.842 44.16167 10.829 42.87566 10.7271667 42.245645 10.1486667 42.20451 9.21266667 42.1742 8.60383333 42.1742 7.56166667 42.1742 6.42416667 42.1742 4.70166667 42.19152 2.79716667 42.2175 1.88716667 42.24781.946833333 42.830195.385666667 43.912695.325 44.19198.307666667 45.008185.294666667 45.8114.294666667 46.627605.294666667 47.41783.307666667 47.63866.325 47.943925.338 48.104135.541666667 48.104135.743166667 48.104135.944666667 47.930935 1.1505 47.60835 1.1505 47.532575 1.1505 46.14481 1.13316667 45.10994 1.13316667 43.63341 1.13316667 43.1701 1.13316667 43.09649 2.01283333 43.06618 2.3595 43.07917 3.575 43.06618 4.42866667 43.06618 4.6995 43.20907 4.6995 43.358455 4.6995 43.65073 4.71683333 44.39549 4.71683333 45.138085 4.71683333 45.88068 4.71683333 46.64276 4.71683333 46.935035 4.6995 47.38752 4.6865 47.43082 5.01583333 47.43082 5.11766667 47.43082 5.33866667 47.25762 5.56616667 46.935035 5.56616667L46.904725 5.56616667C46.45224 5.53583333 45.631705 5.53583333 44.873955 5.53583333 43.064015 5.53583333 43.046695 5.53583333 43.046695 5.82833333 43.046695 8.04916667 43.046695 8.73166667 43.09216 9.07833333 43.146285 9.62866667 43.45588 9.945 44.228785 10.0013333 44.47776 10.0186667 45.280975 10.0186667 46.07986 10.0186667 46.900395 10.0186667 47.7166 10.0186667 47.978565 10.0013333L48.02403 10.0013333C48.316305 10.0013333 48.476515 10.192 48.476515 10.3956667 48.485175 10.5971667 48.3228 10.816 47.97207 10.829zM57.95272 5.61166667C57.95272 5.67016667 58.011175 5.74383333 58.11293 5.83266667 58.916145 6.56933333 59.54183 7.826 60.11339 8.749 60.522575 9.40116667 60.946915 9.83233333 61.60291 9.90383333 61.895185 9.93416667 62.055395 10.166 62.055395 10.4 62.055395 10.6448333 61.864875 10.8745 61.46002 10.8745 61.1396 10.8745 60.132875 10.647 59.340485 9.22783333 58.74078 8.17483333 57.513225 5.76116667 56.495675 5.733 56.287835 5.733 55.66215 5.70266667 55.28111 5.70266667 54.871925 5.70266667 54.815635 5.78716667 54.815635 5.97783333 54.815635 7.0915 54.858935 9.86266667 54.858935 10.4 54.858935 10.6881667 54.60996 10.8311667 54.37614 10.8311667 54.14232 10.8311667 53.923655 10.699 53.923655 10.413 53.953965 7.65483333 53.936645 3.393 53.98211 1.83083333 54.02541.255666667 55.482455.255666667 56.608255.255666667 56.928675.255666667 57.25126.268666667 57.469925.286 59.600285.429 60.522575 1.6575 60.522575 2.88383333 60.522575 4.1275 59.587295 5.36683333 58.08262 5.54233333 57.993855 5.54016667 57.95272 5.56833333 57.95272 5.61166667zM57.36817 1.0205C57.16466 1.00316667 56.84424.990166667 56.5065.990166667 55.42833.990166667 54.91739 1.19383333 54.85677 2.015 54.82646 2.379 54.84378 3.85233333 54.82646 4.719 54.82646 4.93566667 55.04729 4.96383333 56.24237 4.96383333 56.712175 4.96383333 57.19064 4.9465 57.46776 4.9335 58.825215 4.83166667 59.59812 3.85016667 59.59812 2.899 59.600285 1.989 58.916145 1.105 57.36817 1.0205zM74.400225 10.842C74.227025 10.842 74.036505 10.7401667 73.94774 10.5126667 73.77021 10.0945 73.21597 8.60383333 72.763485 7.27566667 72.720185 7.16083333 72.67472 7.10233333 72.53183 7.10233333 72.300175 7.08933333 71.59655 7.08933333 70.853955 7.08933333 69.81692 7.08933333 68.662975 7.08933333 68.355545 7.10233333 68.22348 7.10233333 68.165025 7.19116667 68.139045 7.27566667 67.758005 8.4305 67.30552 9.789 67.086855 10.4953333 67.01541 10.7401667 66.80757 10.842 66.61705 10.842 66.40055 10.842 66.164565 10.699 66.164565 10.452 66.164565 10.4086667 66.181885 10.3501667 66.194875 10.309 67.01541 7.69383333 68.723595 3.055 69.420725 1.06166667 69.611245.541666667 70.02043.294666667 70.41446.294666667 70.836635.294666667 71.265305.556833333 71.451495 1.0725 72.41492 3.73533333 74.343935 9.00683333 74.841885 10.1616667 74.867865 10.2331667 74.885185 10.3046667 74.885185 10.3783333 74.88302 10.6556667 74.6492 10.842 74.400225 10.842zM72.35863 6.0905C71.901815 4.732 70.966535 2.249 70.73488 1.52533333 70.663435 1.30866667 70.56168 1.209 70.442605 1.209 70.32786 1.209 70.21095 1.32383333 70.122185 1.55566667 69.81692 2.38116667 68.515755 6.09266667 68.515755 6.20533333 68.515755 6.26383333 68.56122 6.29416667 68.675965 6.29416667 68.96824 6.29416667 69.758465 6.30716667 70.516215 6.30716667 71.28912 6.30716667 72.03821 6.29416667 72.25471 6.29416667 72.360795 6.29416667 72.386775 6.26383333 72.386775 6.22266667 72.386775 6.1815 72.37162 6.13166667 72.35863 6.0905zM82.77228 10.4108333C82.77228 10.7163333 82.523305 10.8723333 82.26134 10.8723333 81.999375 10.8723333 81.7504 10.7163333 81.7504 10.4108333L81.7504 10.3978333C81.78071 9.12383333 81.808855 6.526 81.808855 4.31166667 81.808855 3.15683333 81.791535 2.10166667 81.778545 1.42133333 81.778545 1.222 81.748235 1.1765 80.77182 1.1765 80.141805 1.1765 79.3256 1.20683333 78.62414 1.20683333 78.30372 1.20683333 78.141345.990166667 78.141345.788666667 78.141345.572 78.301555.3705 78.61115.3705L78.62414.3705C79.51612.387833333 81.064095.400833333 82.59475.400833333 83.85045.400833333 85.09316.387833333 85.939675.3705L85.956995.3705C86.24927.3705 86.39216.587166667 86.39216.788666667 86.39216 1.00533333 86.24927 1.20683333 85.969985 1.20683333L85.956995 1.20683333C85.415745 1.19383333 84.891815 1.1765 84.435 1.1765 83.73787 1.1765 83.19662 1.19383333 82.97579 1.20683333 82.843725 1.20683333 82.744135 1.23716667 82.744135 1.4235 82.726815 2.11683333 82.713825 3.05716667 82.713825 4.08633333 82.713825 6.3375 82.757125 9.01116667 82.77228 10.4L82.77228 10.4108333zM89.8475 5.58566667C89.8475 2.4505 92.109925.182 95.145255.182 98.180585.182 100.44734 2.4505 100.44734 5.58566667 100.44734 8.83566667 98.180585 10.959 95.145255 10.959 92.109925 10.959 89.8475 8.83566667 89.8475 5.58566667zM99.496905 5.58566667C99.496905 2.8275 97.557065.990166667 95.145255.990166667 92.733445.990166667 90.793605 2.8275 90.793605 5.58566667 90.793605 8.32866667 92.733445 10.1356667 95.145255 10.1356667 97.557065 10.1356667 99.496905 8.32866667 99.496905 5.58566667zM110.114065 5.61166667C110.114065 5.67016667 110.17252 5.74383333 110.274275 5.83266667 111.07749 6.56933333 111.703175 7.826 112.274735 8.749 112.68392 9.40116667 113.10826 9.83233333 113.764255 9.90383333 114.05653 9.93416667 114.21674 10.166 114.21674 10.4 114.21674 10.6448333 114.02622 10.8745 113.621365 10.8745 113.300945 10.8745 112.29422 10.647 111.50183 9.22783333 110.902125 8.17483333 109.67457 5.76116667 108.65702 5.733 108.44918 5.733 107.823495 5.70266667 107.442455 5.70266667 107.03327 5.70266667 106.97698 5.78716667 106.97698 5.97783333 106.97698 7.0915 107.02028 9.86266667 107.02028 10.4 107.02028 10.6881667 106.771305 10.8311667 106.537485 10.8311667 106.303665 10.8311667 106.085 10.699 106.085 10.413 106.11531 7.65483333 106.09799 3.393 106.143455 1.83083333 106.186755.255666667 107.6438.255666667 108.7696.255666667 109.09002.255666667 109.412605.268666667 109.63127.286 111.76163.429 112.68392 1.6575 112.68392 2.88383333 112.68392 4.1275 111.74864 5.36683333 110.243965 5.54233333 110.1552 5.54016667 110.114065 5.56833333 110.114065 5.61166667zM109.529515 1.0205C109.326005 1.00316667 109.005585.990166667 108.667845.990166667 107.589675.990166667 107.078735 1.19383333 107.018115 2.015 106.987805 2.379 107.005125 3.85233333 106.987805 4.719 106.987805 4.93566667 107.208635 4.96383333 108.403715 4.96383333 108.87352 4.96383333 109.351985 4.9465 109.629105 4.9335 110.98656 4.83166667 111.759465 3.85016667 111.759465 2.899 111.76163 1.989 111.07749 1.105 109.529515 1.0205zM134.43351 6.45016667C134.141235 6.45016667 133.981025 6.22266667 133.981025 5.98866667 133.981025 5.54016667 134.362065 5.54016667 134.95744 5.54016667 135.68921 5.54016667 136.535725 5.5575 137.10512 5.5705 138.02741 5.58783333 138.462575 6.0905 138.462575 6.88566667 138.462575 8.40016667 137.016355 10.9611667 133.790505 10.9611667 131.03446 10.9611667 128.66595 8.866 128.66595 5.65933333 128.66595 2.95533333 130.49321.184166667 133.994015.184166667 136.05293.184166667 137.631215 1.4105 137.631215 2.01716667 137.631215 2.29233333 137.39956 2.509 137.14842 2.509 137.00553 2.509 136.856145 2.4375 136.7414 2.2815 136.098395 1.41483333 135.046205 1.02483333 133.968035 1.02483333 131.19034 1.02483333 129.599065 3.32366667 129.599065 5.66366667 129.599065 8.01666667 131.16436 10.01 133.81865 10.01 136.592015 10.01 137.43853 7.88666667 137.43853 7.09366667 137.43853 6.41333333 136.9146 6.41333333 136.50325 6.41333333 135.97932 6.41333333 135.115485 6.43066667 134.448665 6.45666667L134.43351 6.45666667 134.43351 6.45016667zM149.976045 10.829C149.785525 10.842 148.923855 10.842 148.06435 10.842 147.213505 10.842 146.356165 10.842 146.165645 10.829 144.879635 10.7271667 144.24962 10.1486667 144.208485 9.21266667 144.178175 8.60383333 144.178175 7.56166667 144.178175 6.42416667 144.178175 4.70166667 144.195495 2.79716667 144.221475 1.88716667 144.251785.946833333 144.83417.385666667 145.91667.325 146.195955.307666667 147.01216.294666667 147.815375.294666667 148.63158.294666667 149.421805.307666667 149.642635.325 149.9479.338 150.10811.541666667 150.10811.743166667 150.10811.944666667 149.93491 1.1505 149.612325 1.1505 149.53655 1.1505 148.148785 1.13316667 147.113915 1.13316667 145.637385 1.13316667 145.174075 1.13316667 145.100465 2.01283333 145.070155 2.3595 145.083145 3.575 145.070155 4.42866667 145.070155 4.6995 145.213045 4.6995 145.36243 4.6995 145.654705 4.71683333 146.399465 4.71683333 147.14206 4.71683333 147.884655 4.71683333 148.646735 4.71683333 148.93901 4.6995 149.391495 4.6865 149.434795 5.01583333 149.434795 5.11766667 149.434795 5.33866667 149.261595 5.56616667 148.93901 5.56616667L148.9087 5.56616667C148.456215 5.53583333 147.63568 5.53583333 146.87793 5.53583333 145.06799 5.53583333 145.05067 5.53583333 145.05067 5.82833333 145.05067 8.04916667 145.05067 8.73166667 145.096135 9.07833333 145.15026 9.62866667 145.459855 9.945 146.23276 10.0013333 146.481735 10.0186667 147.28495 10.0186667 148.083835 10.0186667 148.90437 10.0186667 149.720575 10.0186667 149.98254 10.0013333L150.028005 10.0013333C150.32028 10.0013333 150.48049 10.192 150.48049 10.3956667 150.48915 10.5971667 150.32894 10.816 149.976045 10.829zM164.278035 9.8605C164.278035 10.5126667 163.767095 10.9005 163.230175 10.9005 162.879445 10.9005 162.498405 10.7271667 162.24943 10.3371667 161.212395 8.6905 158.05799 2.99866667 157.272095 1.65316667 157.16601 1.47983333 157.03611 1.365 156.934355 1.365 156.730845 1.365 156.730845 1.56866667 156.730845 2.5805 156.730845 4.43083333 156.761155 8.92016667 156.80229 10.4216667L156.80229 10.439C156.80229 10.7271667 156.553315 10.8701667 156.306505 10.8701667 156.05753 10.8701667 155.808555 10.7271667 155.808555 10.439L155.808555 10.4216667C155.838865 9.0935 155.85402 7.579 155.85402 6.10566667 155.85402 4.4005 155.8367 2.7495 155.808555 1.46683333L155.808555 1.42133333C155.808555.6435 156.26104.283833333 156.75899.283833333 157.16601.283833333 157.592515.511333333 157.86747.959833333 158.77244 2.46133333 161.783955 7.85416667 162.862125 9.529 162.95089 9.672 163.069965 9.7565 163.1544 9.7565 163.34492 9.7565 163.34492 9.48133333 163.34492 9.05016667 163.34492 7.50533333 163.30162 2.14283333 163.256155.7735L163.256155.758333333C163.256155.429 163.50513.2665 163.73895.2665 164.005245.2665 164.24989.439833333 164.24989.758333333L164.24989.775666667C164.21958 1.59683333 164.21958 2.65416667 164.21958 3.78083333 164.21958 5.9345 164.24989 8.346 164.278035 9.84966667L164.278035 9.8605zM176.43451 10.829C176.24399 10.842 175.38232 10.842 174.522815 10.842 173.67197 10.842 172.81463 10.842 172.62411 10.829 171.3381 10.7271667 170.708085 10.1486667 170.66695 9.21266667 170.63664 8.60383333 170.63664 7.56166667 170.63664 6.42416667 170.63664 4.70166667 170.65396 2.79716667 170.67994 1.88716667 170.71025.946833333 171.292635.385666667 172.375135.325 172.65442.307666667 173.470625.294666667 174.27384.294666667 175.090045.294666667 175.88027.307666667 176.1011.325 176.406365.338 176.566575.541666667 176.566575.743166667 176.566575.944666667 176.393375 1.1505 176.07079 1.1505 175.995015 1.1505 174.60725 1.13316667 173.57238 1.13316667 172.09585 1.13316667 171.63254 1.13316667 171.55893 2.01283333 171.52862 2.3595 171.54161 3.575 171.52862 4.42866667 171.52862 4.6995 171.67151 4.6995 171.820895 4.6995 172.11317 4.71683333 172.85793 4.71683333 173.600525 4.71683333 174.34312 4.71683333 175.1052 4.71683333 175.397475 4.6995 175.84996 4.6865 175.89326 5.01583333 175.89326 5.11766667 175.89326 5.33866667 175.72006 5.56616667 175.397475 5.56616667L175.367165 5.56616667C174.91468 5.53583333 174.094145 5.53583333 173.336395 5.53583333 171.526455 5.53583333 171.509135 5.53583333 171.509135 5.82833333 171.509135 8.04916667 171.509135 8.73166667 171.5546 9.07833333 171.608725 9.62866667 171.91832 9.945 172.691225 10.0013333 172.9402 10.0186667 173.743415 10.0186667 174.5423 10.0186667 175.362835 10.0186667 176.17904 10.0186667 176.441005 10.0013333L176.48647 10.0013333C176.778745 10.0013333 176.938955 10.192 176.938955 10.3956667 176.94545 10.5971667 176.78524 10.816 176.43451 10.829zM186.41516 5.61166667C186.41516 5.67016667 186.473615 5.74383333 186.57537 5.83266667 187.378585 6.56933333 188.00427 7.826 188.57583 8.749 188.985015 9.40116667 189.409355 9.83233333 190.06535 9.90383333 190.357625 9.93416667 190.517835 10.166 190.517835 10.4 190.517835 10.6448333 190.327315 10.8745 189.92246 10.8745 189.60204 10.8745 188.595315 10.647 187.802925 9.22783333 187.20322 8.17483333 185.975665 5.76116667 184.958115 5.733 184.750275 5.733 184.12459 5.70266667 183.74355 5.70266667 183.334365 5.70266667 183.278075 5.78716667 183.278075 5.97783333 183.278075 7.0915 183.321375 9.86266667 183.321375 10.4 183.321375 10.6881667 183.0724 10.8311667 182.83858 10.8311667 182.60476 10.8311667 182.386095 10.699 182.386095 10.413 182.416405 7.65483333 182.399085 3.393 182.44455 1.83083333 182.48785.255666667 183.944895.255666667 185.070695.255666667 185.391115.255666667 185.7137.268666667 185.932365.286 188.062725.429 188.985015 1.6575 188.985015 2.88383333 188.985015 4.1275 188.049735 5.36683333 186.54506 5.54233333 186.456295 5.54016667 186.41516 5.56833333 186.41516 5.61166667zM185.83061 1.0205C185.6271 1.00316667 185.30668.990166667 184.96894.990166667 183.89077.990166667 183.37983 1.19383333 183.31921 2.015 183.2889 2.379 183.30622 3.85233333 183.2889 4.719 183.2889 4.93566667 183.50973 4.96383333 184.70481 4.96383333 185.174615 4.96383333 185.65308 4.9465 185.9302 4.9335 187.287655 4.83166667 188.06056 3.85016667 188.06056 2.899 188.062725 1.989 187.378585 1.105 185.83061 1.0205zM202.862665 10.842C202.689465 10.842 202.498945 10.7401667 202.41018 10.5126667 202.23265 10.0945 201.67841 8.60383333 201.225925 7.27566667 201.182625 7.16083333 201.13716 7.10233333 200.99427 7.10233333 200.762615 7.08933333 200.05899 7.08933333 199.316395 7.08933333 198.27936 7.08933333 197.125415 7.08933333 196.817985 7.10233333 196.68592 7.10233333 196.627465 7.19116667 196.601485 7.27566667 196.220445 8.4305 195.76796 9.789 195.549295 10.4953333 195.47785 10.7401667 195.27001 10.842 195.07949 10.842 194.86299 10.842 194.627005 10.699 194.627005 10.452 194.627005 10.4086667 194.644325 10.3501667 194.657315 10.309 195.47785 7.69383333 197.186035 3.055 197.883165 1.06166667 198.073685.541666667 198.48287.294666667 198.8769.294666667 199.299075.294666667 199.727745.556833333 199.913935 1.0725 200.87736 3.73533333 202.806375 9.00683333 203.304325 10.1616667 203.330305 10.2331667 203.347625 10.3046667 203.347625 10.3783333 203.34546 10.6556667 203.11164 10.842 202.862665 10.842zM200.82107 6.0905C200.364255 4.732 199.428975 2.249 199.19732 1.52533333 199.125875 1.30866667 199.02412 1.209 198.905045 1.209 198.7903 1.209 198.67339 1.32383333 198.584625 1.55566667 198.27936 2.38116667 196.978195 6.09266667 196.978195 6.20533333 196.978195 6.26383333 197.02366 6.29416667 197.138405 6.29416667 197.43068 6.29416667 198.220905 6.30716667 198.978655 6.30716667 199.75156 6.30716667 200.50065 6.29416667 200.71715 6.29416667 200.823235 6.29416667 200.849215 6.26383333 200.849215 6.22266667 200.849215 6.1815 200.83406 6.13166667 200.82107 6.0905zM211.23472 10.4108333C211.23472 10.7163333 210.990075 10.8723333 210.72378 10.8723333 210.461815 10.8723333 210.21717 10.7163333 210.21717 10.4108333L210.21717 10.3978333C210.24748 9.12383333 210.271295 6.526 210.271295 4.31166667 210.271295 3.15683333 210.258305 2.10166667 210.245315 1.42133333 210.245315 1.222 210.215005 1.1765 209.23426 1.1765 208.608575 1.1765 207.78804 1.20683333 207.09091 1.20683333 206.77049 1.20683333 206.608115.990166667 206.608115.788666667 206.608115.572 206.768325.3705 207.07359.3705L207.09091.3705C207.97856.387833333 209.526535.400833333 211.06152.400833333 212.31722.400833333 213.5556.387833333 214.406445.3705L214.419435.3705C214.71171.3705 214.85893.587166667 214.85893.788666667 214.85893 1.00533333 214.71171 1.20683333 214.436755 1.20683333L214.419435 1.20683333C213.878185 1.19383333 213.354255 1.1765 212.90177 1.1765 212.20031 1.1765 211.65906 1.19383333 211.44256 1.20683333 211.310495 1.20683333 211.206575 1.23716667 211.206575 1.4235 211.193585 2.11683333 211.180595 3.05716667 211.180595 4.08633333 211.180595 6.3375 211.223895 9.01116667 211.23472 10.4L211.23472 10.4108333zM218.0155 5.58566667C218.0155 2.4505 220.277925.182 223.317585.182 226.352915.182 228.61534 2.4505 228.61534 5.58566667 228.61534 8.83566667 226.352915 10.959 223.317585 10.959 220.277925 10.9611667 218.0155 8.83566667 218.0155 5.58566667zM227.669235 5.58566667C227.669235 2.8275 225.725065.990166667 223.317585.990166667 220.90794.990166667 218.965935 2.8275 218.965935 5.58566667 218.965935 8.32866667 220.905775 10.1356667 223.317585 10.1356667 225.7229 10.1356667 227.669235 8.32866667 227.669235 5.58566667zM237.853395 5.61166667C237.853395 5.67016667 237.90752 5.74383333 238.013605 5.83266667 238.81249 6.56933333 239.442505 7.826 240.014065 8.749 240.421085 9.40116667 240.84326 9.83233333 241.503585 9.90383333 241.79586 9.93416667 241.95607 10.166 241.95607 10.4 241.95607 10.6448333 241.76555 10.8745 241.356365 10.8745 241.035945 10.8745 240.02922 10.647 239.24116 9.22783333 238.641455 8.17483333 237.4139 5.76116667 236.39202 5.733 236.18851 5.733 235.558495 5.70266667 235.181785 5.70266667 234.7726 5.70266667 234.71198 5.78716667 234.71198 5.97783333 234.71198 7.0915 234.75528 9.86266667 234.75528 10.4 234.75528 10.6881667 234.510635 10.8311667 234.276815 10.8311667 234.04083 10.8311667 233.82 10.699 233.82 10.413 233.85031 7.65483333 233.83732 3.393 233.878455 1.83083333 233.92392.255666667 235.38313.255666667 236.50893.255666667 236.82935.255666667 237.151935.268666667 237.3706.286 239.50096.429 240.41892 1.6575 240.41892 2.88383333 240.41892 4.1275 239.48364 5.36683333 237.983295 5.54233333 237.896695 5.54016667 237.853395 5.56833333 237.853395 5.61166667zM237.26668 1.0205C237.06317 1.00316667 236.74275.990166667 236.40934.990166667 235.32684.990166667 234.8159 1.19383333 234.75528 2.015 234.7293 2.379 234.74229 3.85233333 234.7293 4.719 234.7293 4.93566667 234.9458 4.96383333 236.14521 4.96383333 236.610685 4.96383333 237.09348 4.9465 237.3706 4.9335 238.728055 4.83166667 239.50096 3.85016667 239.50096 2.899 239.503125 1.989 238.814655 1.105 237.26668 1.0205z"/>
    </g>
  </g>
</svg>
