<svg xmlns="http://www.w3.org/2000/svg" xmlns:xlink="http://www.w3.org/1999/xlink" width="200" height="60" viewBox="0 0 200 60">
  <defs>
    <polygon id="logo-en-s-a" points="0 0 46.108 0 46.108 44.356 0 44.356"/>
  </defs>
  <g fill="none" fill-rule="evenodd" transform="translate(6 6)">
    <g fill="#181818" fill-rule="nonzero" transform="translate(66 11)">
      <path d="M5.232 5.372C4.99 5.372 4.857 5.181 4.857 4.989 4.857 4.619 5.171 4.619 5.668 4.619 6.273 4.619 6.975 4.631 7.447 4.642 8.209 4.654 8.572 5.073 8.572 5.731 8.572 6.987 7.375 9.104 4.699 9.104 2.412 9.104.453 7.37.453 4.714.453 2.477 1.965.18 4.869.18 6.576.18 7.883 1.197 7.883 1.699 7.883 1.927 7.69 2.106 7.483 2.106 7.362 2.106 7.241 2.046 7.145 1.915 6.612 1.197 5.741.874 4.846.874 2.547.874 1.227 2.776 1.227 4.715 1.227 6.664 2.522 8.316 4.725 8.316 7.024 8.316 7.725 6.557 7.725 5.899 7.725 5.337 7.289 5.337 6.952 5.337 6.516 5.337 5.802 5.35 5.245 5.373L5.232 5.373 5.232 5.372zM18.102 8.997C17.944 9.009 17.231 9.009 16.516 9.009 15.815 9.009 15.1 9.009 14.944 8.997 13.88 8.913 13.358 8.435 13.323 7.657 13.298 7.154 13.298 6.293 13.298 5.348 13.298 3.924 13.31 2.345 13.335 1.591 13.358.814 13.843.347 14.739.299 14.968.287 15.645.276 16.311.276 16.989.276 17.641.288 17.823.299 18.077.312 18.212.479 18.212.646 18.212.814 18.066.982 17.8.982 17.739.982 16.589.969 15.732.969 14.509.969 14.123.969 14.062 1.698 14.037 1.985 14.048 2.991 14.037 3.696 14.037 3.924 14.158 3.924 14.279 3.924 14.521 3.936 15.138 3.936 15.756 3.936 16.374 3.936 17.002 3.936 17.244 3.924 17.619 3.912 17.656 4.187 17.656 4.271 17.656 4.451 17.51 4.642 17.244 4.642L17.221 4.642C16.846 4.619 16.168 4.619 15.537 4.619 14.037 4.619 14.025 4.619 14.025 4.857 14.025 6.7 14.025 7.262 14.062 7.549 14.109 8.003 14.363 8.267 15.005 8.315 15.21 8.327 15.876 8.327 16.542 8.327 17.22 8.327 17.896 8.327 18.114 8.315L18.151 8.315C18.393 8.315 18.526 8.47 18.526 8.638 18.525 8.806 18.393 8.985 18.102 8.997zM29.943 8.195C29.943 8.734 29.519 9.056 29.072 9.056 28.781 9.056 28.467 8.912 28.261 8.589 27.402 7.226 24.788 2.513 24.134 1.4 24.05 1.256 23.941 1.161 23.857 1.161 23.687 1.161 23.687 1.329 23.687 2.166 23.687 3.697 23.71 7.418 23.748 8.662L23.748 8.674C23.748 8.913 23.543 9.033 23.336 9.033 23.131 9.033 22.926 8.913 22.926 8.674L22.926 8.662C22.949 7.561 22.961 6.306 22.961 5.085 22.961 3.674 22.949 2.31 22.926 1.245L22.926 1.209C22.926.563 23.301.264 23.711.264 24.051.264 24.4.455 24.631.826 25.381 2.07 27.873 6.533 28.77 7.92 28.842 8.04 28.94 8.111 29.012 8.111 29.168 8.111 29.168 7.884 29.168 7.525 29.168 6.246 29.133 1.807 29.096.671L29.096.659C29.096.384 29.303.252 29.496.252 29.713.252 29.918.396 29.918.659L29.918.671C29.895 1.353 29.895 2.227 29.895 3.159 29.895 4.941 29.918 6.939 29.944 8.183L29.944 8.195 29.943 8.195zM40.004 8.997C39.848 9.009 39.133 9.009 38.42 9.009 37.717 9.009 37.004 9.009 36.846 8.997 35.782 8.913 35.262 8.435 35.225 7.657 35.202 7.154 35.202 6.293 35.202 5.348 35.202 3.924 35.214 2.345 35.237 1.591 35.262.814 35.747.347 36.641.299 36.871.287 37.549.276 38.213.276 38.891.276 39.545.288 39.727.299 39.981.312 40.114.479 40.114.646 40.114.814 39.969.982 39.702.982 39.641.982 38.493.969 37.634.969 36.411.969 36.025.969 35.964 1.698 35.941 1.985 35.952 2.991 35.941 3.696 35.941 3.924 36.062 3.924 36.183 3.924 36.425 3.936 37.04 3.936 37.658 3.936 38.276 3.936 38.906 3.936 39.146 3.924 39.523 3.912 39.558 4.187 39.558 4.271 39.558 4.451 39.413 4.642 39.146 4.642L39.123 4.642C38.748 4.619 38.07 4.619 37.441 4.619 35.941 4.619 35.927 4.619 35.927 4.857 35.927 6.7 35.927 7.262 35.964 7.549 36.013 8.003 36.267 8.267 36.907 8.315 37.114 8.327 37.778 8.327 38.444 8.327 39.122 8.327 39.799 8.327 40.018 8.315L40.053 8.315C40.295 8.315 40.428 8.47 40.428 8.638 40.428 8.806 40.295 8.985 40.004 8.997zM48.264 4.679C48.264 4.727 48.313 4.786 48.397 4.858 49.063 5.468 49.583 6.509 50.055 7.275 50.393 7.813 50.744 8.172 51.289 8.232 51.531 8.256 51.664 8.448 51.664 8.639 51.664 8.842 51.506 9.034 51.168 9.034 50.902 9.034 50.066 8.843 49.414 7.67 48.918 6.797 47.9 4.799 47.055 4.775 46.885 4.775 46.364 4.751 46.049 4.751 45.711 4.751 45.662 4.823 45.662 4.979 45.662 5.9 45.699 8.197 45.699 8.64 45.699 8.878 45.492 8.998 45.299 8.998 45.106 8.998 44.924 8.891 44.924 8.651 44.949 6.366 44.936 2.837 44.973 1.545 45.01.241 46.219.241 47.151.241 47.417.241 47.684.253 47.866.264 49.632.384 50.393 1.401 50.393 2.418 50.393 3.446 49.62 4.475 48.373 4.619 48.301 4.619 48.264 4.643 48.264 4.679zM47.779.874C47.611.862 47.343.851 47.066.851 46.17.851 45.746 1.018 45.699 1.7 45.674 2 45.685 3.22 45.674 3.937 45.674 4.117 45.856 4.141 46.848 4.141 47.235 4.141 47.635 4.128 47.866 4.117 48.991 4.033 49.632 3.22 49.632 2.43 49.631 1.676 49.062.946 47.779.874zM61.885 9.009C61.739 9.009 61.582 8.926 61.51 8.735 61.364 8.387 60.905 7.155 60.53 6.055 60.493 5.959 60.458 5.91 60.337 5.91 60.142 5.898 59.562 5.898 58.944 5.898 58.085 5.898 57.13 5.898 56.876 5.91 56.767 5.91 56.718 5.982 56.694 6.055 56.38 7.012 56.005 8.136 55.823 8.722 55.762 8.926 55.593 9.009 55.434 9.009 55.254 9.009 55.059 8.89 55.059 8.686 55.059 8.651 55.073 8.603 55.084 8.567 55.762 6.402 57.178 2.561 57.758.911 57.916.48 58.254.277 58.58.277 58.932.277 59.283.492 59.439.923 60.238 3.124 61.835 7.491 62.246 8.448 62.271 8.508 62.283 8.567 62.283 8.627 62.283 8.854 62.09 9.009 61.885 9.009zM60.189 5.073C59.814 3.949 59.041 1.89 58.847 1.293 58.786 1.113 58.701 1.029 58.605 1.029 58.507 1.029 58.412 1.125 58.337 1.316 58.083 1.999 57.007 5.073 57.007 5.169 57.007 5.217 57.042 5.24 57.14 5.24 57.382 5.24 58.035 5.253 58.665 5.253 59.306 5.253 59.923 5.24 60.104 5.24 60.188 5.24 60.213 5.217 60.213 5.18 60.213 5.143 60.201 5.109 60.189 5.073zM68.812 8.65C68.812 8.901 68.607 9.033 68.388 9.033 68.171 9.033 67.964 8.901 67.964 8.65L67.964 8.638C67.989 7.585 68.013 5.431 68.013 3.601 68.013 2.644 68.001 1.771 67.99 1.208 67.99 1.041 67.965 1.005 67.154 1.005 66.634 1.005 65.957 1.028 65.377 1.028 65.109 1.028 64.977.849 64.977.681 64.977.502 65.11.334 65.364.334L65.378.334C66.116.346 67.398.357 68.669.357 69.71.357 70.737.345 71.439.334L71.453.334C71.695.334 71.816.514 71.816.681 71.816.861 71.695 1.028 71.464 1.028L71.452 1.028C71.003 1.016 70.567 1.005 70.192 1.005 69.612 1.005 69.165 1.017 68.983 1.028 68.874 1.028 68.79 1.052 68.79 1.208 68.778 1.782 68.765 2.56 68.765 3.409 68.765 5.275 68.802 7.489 68.814 8.638L68.814 8.65 68.812 8.65zM74.936 4.654C74.936 2.058 76.811.18 79.329.18 81.845.18 83.72 2.058 83.72 4.654 83.72 7.345 81.845 9.104 79.329 9.104 76.811 9.104 74.936 7.346 74.936 4.654zM82.934 4.654C82.934 2.369 81.325.85 79.329.85 77.331.85 75.722 2.369 75.722 4.654 75.722 6.927 77.331 8.423 79.329 8.423 81.324 8.423 82.934 6.928 82.934 4.654zM91.002 4.679C91.002 4.727 91.051 4.786 91.135 4.858 91.801 5.468 92.321 6.509 92.793 7.275 93.131 7.813 93.482 8.172 94.027 8.232 94.269 8.256 94.402 8.448 94.402 8.639 94.402 8.842 94.244 9.034 93.906 9.034 93.64 9.034 92.804 8.843 92.152 7.67 91.656 6.797 90.638 4.799 89.793 4.775 89.623 4.775 89.102 4.751 88.787 4.751 88.449 4.751 88.4 4.823 88.4 4.979 88.4 5.9 88.437 8.197 88.437 8.64 88.437 8.878 88.23 8.998 88.037 8.998 87.844 8.998 87.662 8.891 87.662 8.651 87.687 6.366 87.674 2.837 87.711 1.545 87.748.241 88.957.241 89.889.241 90.155.241 90.422.253 90.604.264 92.37.384 93.131 1.401 93.131 2.418 93.131 3.446 92.358 4.475 91.111 4.619 91.039 4.619 91.002 4.643 91.002 4.679zM90.518.874C90.35.862 90.082.851 89.805.851 88.909.851 88.485 1.018 88.438 1.7 88.413 2 88.424 3.22 88.413 3.937 88.413 4.117 88.595 4.141 89.587 4.141 89.974 4.141 90.374 4.128 90.605 4.117 91.73 4.033 92.371 3.22 92.371 2.43 92.369 1.676 91.801.946 90.518.874zM5.232 19.727C4.99 19.727 4.857 19.536 4.857 19.344 4.857 18.973 5.171 18.973 5.668 18.973 6.273 18.973 6.975 18.986 7.447 18.997 8.209 19.009 8.572 19.428 8.572 20.086 8.572 21.342 7.375 23.459 4.699 23.459 2.412 23.459.453 21.725.453 19.068.453 16.832 1.965 14.535 4.869 14.535 6.576 14.535 7.883 15.552 7.883 16.055 7.883 16.282 7.69 16.461 7.483 16.461 7.362 16.461 7.241 16.401 7.145 16.27 6.612 15.552 5.741 15.229 4.846 15.229 2.547 15.229 1.227 17.131 1.227 19.069 1.227 21.019 2.522 22.671 4.725 22.671 7.024 22.671 7.725 20.912 7.725 20.254 7.725 19.692 7.289 19.692 6.952 19.692 6.516 19.692 5.802 19.704 5.245 19.727L5.232 19.727zM18.102 23.352C17.944 23.364 17.231 23.364 16.516 23.364 15.815 23.364 15.1 23.364 14.944 23.352 13.88 23.268 13.358 22.79 13.323 22.012 13.298 21.51 13.298 20.649 13.298 19.703 13.298 18.279 13.31 16.7 13.335 15.946 13.358 15.169 13.843 14.702 14.739 14.654 14.968 14.642 15.645 14.631 16.311 14.631 16.989 14.631 17.641 14.643 17.823 14.654 18.077 14.666 18.212 14.834 18.212 15.002 18.212 15.169 18.066 15.336 17.8 15.336 17.739 15.336 16.589 15.324 15.732 15.324 14.509 15.324 14.123 15.324 14.062 16.054 14.037 16.341 14.048 17.345 14.037 18.051 14.037 18.279 14.158 18.279 14.279 18.279 14.521 18.291 15.138 18.291 15.756 18.291 16.374 18.291 17.002 18.291 17.244 18.279 17.619 18.267 17.656 18.543 17.656 18.626 17.656 18.806 17.51 18.997 17.244 18.997L17.221 18.997C16.846 18.973 16.168 18.973 15.537 18.973 14.037 18.973 14.025 18.973 14.025 19.213 14.025 21.055 14.025 21.617 14.062 21.904 14.109 22.358 14.363 22.622 15.005 22.67 15.21 22.682 15.876 22.682 16.542 22.682 17.22 22.682 17.896 22.682 18.114 22.67L18.151 22.67C18.393 22.67 18.526 22.825 18.526 22.992 18.525 23.16 18.393 23.34 18.102 23.352zM29.943 22.55C29.943 23.088 29.519 23.411 29.072 23.411 28.781 23.411 28.467 23.267 28.261 22.945 27.402 21.581 24.788 16.867 24.134 15.755 24.05 15.611 23.941 15.516 23.857 15.516 23.687 15.516 23.687 15.684 23.687 16.521 23.687 18.052 23.71 21.773 23.748 23.017L23.748 23.029C23.748 23.268 23.543 23.388 23.336 23.388 23.131 23.388 22.926 23.268 22.926 23.029L22.926 23.017C22.949 21.916 22.961 20.661 22.961 19.44 22.961 18.029 22.949 16.665 22.926 15.6L22.926 15.564C22.926 14.918 23.301 14.62 23.711 14.62 24.051 14.62 24.4 14.811 24.631 15.182 25.381 16.426 27.873 20.888 28.77 22.277 28.842 22.396 28.94 22.468 29.012 22.468 29.168 22.468 29.168 22.24 29.168 21.881 29.168 20.601 29.133 16.163 29.096 15.027L29.096 15.015C29.096 14.74 29.303 14.608 29.496 14.608 29.713 14.608 29.918 14.752 29.918 15.015L29.918 15.027C29.895 15.709 29.895 16.582 29.895 17.515 29.895 19.297 29.918 21.295 29.944 22.539L29.944 22.55 29.943 22.55zM40.004 23.352C39.848 23.364 39.133 23.364 38.42 23.364 37.717 23.364 37.004 23.364 36.846 23.352 35.782 23.268 35.262 22.79 35.225 22.012 35.202 21.51 35.202 20.649 35.202 19.703 35.202 18.279 35.214 16.7 35.237 15.946 35.262 15.169 35.747 14.702 36.641 14.654 36.871 14.642 37.549 14.631 38.213 14.631 38.891 14.631 39.545 14.643 39.727 14.654 39.981 14.666 40.114 14.834 40.114 15.002 40.114 15.169 39.969 15.336 39.702 15.336 39.641 15.336 38.493 15.324 37.634 15.324 36.411 15.324 36.025 15.324 35.964 16.054 35.941 16.341 35.952 17.345 35.941 18.051 35.941 18.279 36.062 18.279 36.183 18.279 36.425 18.291 37.04 18.291 37.658 18.291 38.276 18.291 38.906 18.291 39.146 18.279 39.523 18.267 39.558 18.543 39.558 18.626 39.558 18.806 39.413 18.997 39.146 18.997L39.123 18.997C38.748 18.973 38.07 18.973 37.441 18.973 35.941 18.973 35.927 18.973 35.927 19.213 35.927 21.055 35.927 21.617 35.964 21.904 36.013 22.358 36.267 22.622 36.907 22.67 37.114 22.682 37.778 22.682 38.444 22.682 39.122 22.682 39.799 22.682 40.018 22.67L40.053 22.67C40.295 22.67 40.428 22.825 40.428 22.992 40.428 23.16 40.295 23.34 40.004 23.352zM48.264 19.033C48.264 19.081 48.313 19.14 48.397 19.213 49.063 19.822 49.583 20.863 50.055 21.629 50.393 22.167 50.744 22.526 51.289 22.586 51.531 22.609 51.664 22.801 51.664 22.992 51.664 23.196 51.506 23.388 51.168 23.388 50.902 23.388 50.066 23.197 49.414 22.024 48.918 21.151 47.9 19.153 47.055 19.129 46.885 19.129 46.364 19.105 46.049 19.105 45.711 19.105 45.662 19.177 45.662 19.333 45.662 20.254 45.699 22.551 45.699 22.993 45.699 23.233 45.492 23.352 45.299 23.352 45.106 23.352 44.924 23.245 44.924 23.005 44.949 20.72 44.936 17.191 44.973 15.899 45.01 14.595 46.219 14.595 47.151 14.595 47.417 14.595 47.684 14.607 47.866 14.619 49.632 14.738 50.393 15.755 50.393 16.771 50.393 17.8 49.62 18.83 48.373 18.972 48.301 18.973 48.264 18.997 48.264 19.033zM47.779 15.229C47.611 15.217 47.343 15.206 47.066 15.206 46.17 15.206 45.746 15.373 45.699 16.056 45.674 16.355 45.685 17.575 45.674 18.292 45.674 18.472 45.856 18.495 46.848 18.495 47.235 18.495 47.635 18.483 47.866 18.472 48.991 18.388 49.632 17.575 49.632 16.785 49.631 16.03 49.062 15.301 47.779 15.229zM61.885 23.363C61.739 23.363 61.582 23.279 61.51 23.088 61.364 22.741 60.905 21.51 60.53 20.408 60.493 20.312 60.458 20.265 60.337 20.265 60.142 20.252 59.562 20.252 58.944 20.252 58.085 20.252 57.13 20.252 56.876 20.265 56.767 20.265 56.718 20.336 56.694 20.408 56.38 21.365 56.005 22.49 55.823 23.076 55.762 23.279 55.593 23.363 55.434 23.363 55.254 23.363 55.059 23.244 55.059 23.041 55.059 23.005 55.073 22.957 55.084 22.921 55.762 20.756 57.178 16.916 57.758 15.265 57.916 14.834 58.254 14.631 58.58 14.631 58.932 14.631 59.283 14.846 59.439 15.277 60.238 17.478 61.835 21.844 62.246 22.801 62.271 22.862 62.283 22.921 62.283 22.981 62.283 23.208 62.09 23.363 61.885 23.363zM60.189 19.428C59.814 18.303 59.041 16.246 58.847 15.648 58.786 15.468 58.701 15.385 58.605 15.385 58.507 15.385 58.412 15.481 58.337 15.672 58.083 16.354 57.007 19.428 57.007 19.524 57.007 19.572 57.042 19.596 57.14 19.596 57.382 19.596 58.035 19.608 58.665 19.608 59.306 19.608 59.923 19.596 60.104 19.596 60.188 19.596 60.213 19.572 60.213 19.535 60.215 19.5 60.201 19.464 60.189 19.428zM68.812 23.005C68.812 23.256 68.607 23.388 68.388 23.388 68.171 23.388 67.964 23.256 67.964 23.005L67.964 22.992C67.989 21.939 68.013 19.787 68.013 17.956 68.013 16.999 68.001 16.126 67.99 15.563 67.99 15.396 67.965 15.36 67.154 15.36 66.634 15.36 65.957 15.384 65.377 15.384 65.109 15.384 64.977 15.204 64.977 15.036 64.977 14.856 65.11 14.689 65.364 14.689L65.378 14.689C66.116 14.701 67.398 14.713 68.669 14.713 69.71 14.713 70.737 14.7 71.439 14.689L71.453 14.689C71.695 14.689 71.816 14.869 71.816 15.036 71.816 15.216 71.695 15.384 71.464 15.384L71.452 15.384C71.003 15.371 70.567 15.36 70.192 15.36 69.612 15.36 69.165 15.372 68.983 15.384 68.874 15.384 68.79 15.407 68.79 15.563 68.778 16.137 68.765 16.916 68.765 17.764 68.765 19.63 68.802 21.843 68.814 22.992L68.814 23.005 68.812 23.005zM74.936 19.009C74.936 16.413 76.811 14.535 79.329 14.535 81.845 14.535 83.72 16.413 83.72 19.009 83.72 21.701 81.845 23.459 79.329 23.459 76.811 23.459 74.936 21.701 74.936 19.009zM82.934 19.009C82.934 16.725 81.325 15.205 79.329 15.205 77.331 15.205 75.722 16.725 75.722 19.009 75.722 21.282 77.331 22.778 79.329 22.778 81.324 22.777 82.934 21.282 82.934 19.009zM91.002 19.033C91.002 19.081 91.051 19.14 91.135 19.213 91.801 19.822 92.321 20.863 92.793 21.629 93.131 22.167 93.482 22.526 94.027 22.586 94.269 22.609 94.402 22.801 94.402 22.992 94.402 23.196 94.244 23.388 93.906 23.388 93.64 23.388 92.804 23.197 92.152 22.024 91.656 21.151 90.638 19.153 89.793 19.129 89.623 19.129 89.102 19.105 88.787 19.105 88.449 19.105 88.4 19.177 88.4 19.333 88.4 20.254 88.437 22.551 88.437 22.993 88.437 23.233 88.23 23.352 88.037 23.352 87.844 23.352 87.662 23.245 87.662 23.005 87.687 20.72 87.674 17.191 87.711 15.899 87.748 14.595 88.957 14.595 89.889 14.595 90.155 14.595 90.422 14.607 90.604 14.619 92.37 14.738 93.131 15.755 93.131 16.771 93.131 17.8 92.358 18.83 91.111 18.972 91.039 18.973 91.002 18.997 91.002 19.033zM90.518 15.229C90.35 15.217 90.082 15.206 89.805 15.206 88.909 15.206 88.485 15.373 88.438 16.056 88.413 16.355 88.424 17.575 88.413 18.292 88.413 18.472 88.595 18.495 89.587 18.495 89.974 18.495 90.374 18.483 90.605 18.472 91.73 18.388 92.371 17.575 92.371 16.785 92.369 16.03 91.801 15.301 90.518 15.229z"/>
    </g>
    <path fill="#FFFA9F" d="M37.620431,14.4409197 L36.1152024,15.8343774 C34.3256229,13.7681909 31.6329269,12.503115 28.5555453,12.503115 C23.0027902,12.503115 18.6877739,16.362898 18.6877739,22.0807289 C18.6877739,27.7984555 23.0027902,31.6584469 28.4551065,31.6584469 C33.8070882,31.6584469 37.2023351,28.4231844 37.5033392,23.2979089 L29.5756494,23.2979089 L29.5756494,21.4721388 L39.7111188,21.4721388 C39.744529,21.6802777 39.744529,21.8243818 39.744529,22.0005553 C39.744529,28.5832191 35.3959984,33.5322169 28.4551065,33.5322169 C22.2166616,33.5322169 16.5635718,29.2079479 16.5635718,22.0807289 C16.5635718,15.3378221 21.7483984,10.6129978 28.5555453,10.6129978 C32.2350392,10.6129978 35.47968,12.0545597 37.620431,14.4409197"/>
    <path stroke="#000" stroke-linecap="round" stroke-linejoin="round" stroke-width=".52" d="M37.1899483 13.988439C37.3378363 14.1352503 37.4812523 14.2860182 37.6200923 14.440951L37.1620763 14.865246M36.5735155 15.4099384L36.1152441 15.8328191C35.9788971 15.6759122 35.837242 15.5236751 35.6906951 15.3762117"/>
    <path stroke="#000" stroke-dasharray="1.261 1.261" stroke-linecap="round" stroke-linejoin="round" stroke-width=".52" d="M34.7444578,14.5423028 C33.0674945,13.2534872 30.9255986,12.5030837 28.5555557,12.5030837 C23.0026965,12.5030837 18.6876802,16.3628668 18.6876802,22.0806976 C18.6876802,27.7984243 23.0026965,31.6585197 28.4551169,31.6585197 C33.3590271,31.6585197 36.6202169,28.9421987 37.3633598,24.5445241"/>
    <path stroke="#000" stroke-linecap="round" stroke-linejoin="round" stroke-width=".52" d="M37.4505802,23.9204512 C37.4733741,23.716269 37.4909639,23.5086508 37.5033496,23.2979089 L36.8788598,23.2979089"/>
    <path stroke="#000" stroke-dasharray="1.335 1.335" stroke-linecap="round" stroke-linejoin="round" stroke-width=".52" d="M35.5430657,23.297961 L30.868031,23.297961"/>
    <polyline stroke="#000" stroke-linecap="round" stroke-linejoin="round" stroke-width=".52" points="30.2 23.298 29.576 23.298 29.576 22.673"/>
    <polyline stroke="#000" stroke-linecap="round" stroke-linejoin="round" stroke-width=".52" points="29.576 22.097 29.576 21.472 30.2 21.472"/>
    <path stroke="#000" stroke-dasharray="1.268 1.268" stroke-linecap="round" stroke-linejoin="round" stroke-width=".52" d="M31.4696541,21.4721701 L38.4518663,21.4721701"/>
    <path stroke="#000" stroke-linecap="round" stroke-linejoin="round" stroke-width=".52" d="M39.0866186,21.4721701 L39.7111084,21.4721701 C39.7445186,21.6803089 39.7445186,21.824413 39.7445186,22.0005866 C39.7445186,22.0322395 39.7444145,22.0637883 39.7442063,22.0953371"/>
    <path stroke="#000" stroke-dasharray="1.265 1.265" stroke-linecap="round" stroke-linejoin="round" stroke-width=".52" d="M39.6810184,23.359528 C39.1222041,29.2526993 34.9095,33.5323002 28.4551898,33.5323002 C22.2166408,33.5323002 16.5636551,29.2079271 16.5636551,22.080708 C16.5636551,15.3378013 21.7483776,10.6130811 28.5555245,10.6130811 C31.7549939,10.6130811 34.6255653,11.7029206 36.7274939,13.5561787"/>
    <path stroke="#000" stroke-dasharray="1.248" stroke-linecap="round" stroke-linejoin="round" stroke-width=".52" d="M50.9479592 39.7198646C50.9479592 42.1618256 48.8894327 44.141279 46.3499449 44.141279L9.7500551 44.141279C7.21067143 44.141279 5.15204082 42.1618256 5.15204082 39.7198646L5.15204082 4.52545249C5.15204082 2.08359566 7.21067143.104038178 9.7500551.104038178L46.3499449.104038178C48.8894327.104038178 50.9479592 2.08359566 50.9479592 4.52545249L50.9479592 39.7198646zM44.6660602 26.3254178L50.9479071 22.919292M.358238571 25.5185701L5.15203041 22.9192816M9.15400041 46.9421779L15.5798963 44.2704208M29.5071429 47.1423931L35.9330388 44.1412998M29.5071429 47.1423931L35.9330388 44.1412998M11.271052 3.72250933L19.80075.175923644M32.1490261 3.72901692L39.7410527.18336833"/>
    <path fill="#303030" d="M32.9887984,17.7249215 L31.4835698,19.1183792 C29.6939902,17.0521926 27.0012943,15.7870126 23.9239127,15.7870126 C18.3711576,15.7870126 14.0561412,19.6468998 14.0561412,25.3647306 C14.0561412,31.0824573 18.3711576,34.9303705 23.8234739,34.9303705 C29.1754555,34.9303705 32.5707024,31.6619974 32.8717065,26.5576503 L24.9275718,26.5576503 L24.9275718,24.7561406 L35.0794861,24.7561406 C35.1128963,24.9642794 35.1128963,25.1083835 35.1128963,25.284557 C35.1128963,31.8672208 30.7643657,36.8162187 23.8234739,36.8162187 C17.585029,36.8162187 11.9320433,32.4919497 11.9320433,25.3647306 C11.9320433,18.6218239 17.1167657,13.8969996 23.9239127,13.8969996 C27.6034065,13.8969996 30.8480473,15.3385614 32.9887984,17.7249215"/>
    <g transform="translate(0 3.582)">
      <mask id="logo-en-s-b" fill="#fff">
        <use xlink:href="#logo-en-s-a"/>
      </mask>
      <path fill="#303030" d="M40.8355751,42.6898048 L5.27254653,42.6898048 C3.28354653,42.6898048 1.66528531,41.1851453 1.66528531,39.2734751 L1.66528531,5.07633839 C1.66528531,3.16477223 3.28354653,1.56182213 5.27254653,1.56182213 L40.8355751,1.56182213 C42.8245751,1.56182213 44.4428363,3.16477223 44.4428363,5.07633839 L44.4428363,39.2734751 C44.4428363,41.1851453 42.8245751,42.6898048 40.8355751,42.6898048 M40.7900914,0 L5.3180302,0 C2.38563429,0 -2.08163265e-05,2.29910629 -2.08163265e-05,5.11996529 L-2.08163265e-05,39.2299523 C-2.08163265e-05,42.0507072 2.38563429,44.3557484 5.3180302,44.3557484 L40.7900914,44.3557484 C43.7224873,44.3557484 46.1081424,42.0507072 46.1081424,39.2299523 L46.1081424,5.11996529 C46.1081424,2.29910629 43.7224873,0 40.7900914,0" mask="url(#logo-en-s-b)"/>
    </g>
  </g>
</svg>
