<svg xmlns="http://www.w3.org/2000/svg" xmlns:xlink="http://www.w3.org/1999/xlink" width="433" height="130" viewBox="0 0 433 130">
  <defs>
    <polygon id="logo-ja-a" points="0 0 99.824 0 99.824 96.104 0 96.104"/>
  </defs>
  <g fill="none" fill-rule="evenodd" transform="translate(12.99 13)">
    <g fill="#181818" fill-rule="nonzero" transform="translate(140.725 8.667)">
      <path d="M10.29241,12.9566667 L9.72518,13.9381667 C7.285225,12.571 4.69372,11.5266667 2.015615,10.751 L2.42913,9.73916667 C5.05311,10.4563333 7.670595,11.5266667 10.29241,12.9566667 Z M23.98387,9.23433333 C22.34713,13.1646667 19.8747,16.6833333 16.60122,19.721 C13.02897,23.0251667 8.98042,25.2893333 4.427425,26.5135 L3.860195,25.4388333 C8.23566,24.2493333 12.195445,22.074 15.737385,18.889 C18.950245,15.9098333 21.362055,12.5753333 22.938175,8.82266667 L23.98387,9.23433333 Z M12.940205,6.04716667 L12.31452,6.97016667 C10.264265,5.59866667 7.700905,4.498 4.635265,3.666 L5.05311,2.561 C8.14906,3.42766667 10.766545,4.58683333 12.940205,6.04716667 Z M22.58528,6.28333333 L21.90114,6.76216667 C20.950705,5.2715 19.90501,3.93033333 18.8355,2.8015 L19.491495,2.26416667 C20.677915,3.5165 21.721445,4.85766667 22.58528,6.28333333 Z M25.501535,4.14266667 L24.787085,4.64533333 C23.83232,3.1265 22.821265,1.81783333 21.751755,0.684666667 L22.40775,0.117 C23.59417,1.39966667 24.639865,2.743 25.501535,4.14266667 Z"/>
      <polygon points="54.547 10.545 54.547 11.585 47.942 11.585 47.942 23.887 56.035 23.887 56.035 24.932 38.71 24.932 38.71 23.887 46.807 23.887 46.807 11.585 40.228 11.585 40.228 10.545"/>
      <path d="M82.376085 1.04433333L82.376085 5.39066667 89.936265 5.39066667 90.8867 6.10566667C88.806135 9.56366667 85.97648 12.6901667 82.37392 15.457L82.37392 26.4506667 81.245955 26.4506667 81.245955 16.2933333C78.327535 18.317 74.99127 20.1651667 71.183035 21.8031667L70.7089 20.8173333C74.608065 19.1793333 78.15217 17.186 81.306575 14.8048333 84.757585 12.181 87.437855 9.40983333 89.31058 6.46316667L71.95594 6.46316667 71.95594 5.3885 81.245955 5.3885 81.245955 1.04216667 82.376085 1.04216667 82.376085 1.04433333zM89.81719 17.9638333C91.720225 19.123 93.2682 20.1391667 94.48926 21.0015L93.80512 21.8941667C92.616535 21.06 91.036085 20.0438333 89.10274 18.8846667 87.0763 17.6323333 85.50018 16.7396667 84.37005 16.2023333L84.995735 15.2511667C86.156175 15.8188333 87.762605 16.7115 89.81719 17.9638333zM111.12512 2.32266667L111.12512 24.9925C114.071685 24.0695 116.990105 22.6091667 119.847905 20.6136667 122.82478 18.5271667 125.234425 16.2045 127.13746 13.6435L128.05975 14.3C125.979185 17.1318333 123.38768 19.6018333 120.29173 21.749 117.22609 23.8311667 114.01323 25.35 110.620675 26.3076667L109.96468 25.7703333 109.96468 2.327 111.12512 2.327 111.12512 2.32266667z"/>
      <polygon points="161.098 13.555 161.098 14.655 139.935 14.655 139.935 13.555"/>
      <path d="M183.927575,1.66833333 C183.537875,2.86216667 183.031265,4.1145 182.438055,5.3625 L193.449245,5.3625 L194.25246,5.811 C193.479555,10.4585 191.782195,14.5665 189.132235,18.2021667 C186.30691,22.0155 182.76497,24.817 178.506415,26.5438333 L177.91537,25.532 C181.931445,23.8615 185.29369,21.3005 187.97396,17.8468333 C188.12118,17.6345 188.270565,17.4286667 188.448095,17.2206667 C187.556115,16.5641667 186.456295,15.7906667 185.11616,14.898 C183.27158,13.7041667 181.784225,12.8115 180.62162,12.2156667 L181.247305,11.3815 C182.498675,12.038 183.988195,12.9306667 185.711535,14.0356667 C187.110125,14.9283333 188.240255,15.6736667 189.101925,16.2998333 C191.0396,13.3206667 192.349425,10.0403333 193.00109,6.41116667 L181.870825,6.41116667 C181.364215,7.30383333 180.796985,8.1965 180.203775,9.08916667 C178.53456,11.4725 176.778745,13.4398333 174.90602,15.0171667 L174.133115,14.2436667 C176.03615,12.636 177.7898,10.608 179.43087,8.1965 C181.009155,5.81316667 182.16743,3.52083333 182.88188,1.31516667 L183.927575,1.66833333 Z"/>
      <polygon points="232.471 13.435 232.471 14.447 206.008 14.447 206.008 13.435"/>
    </g>
    <g fill="#181818" fill-rule="nonzero" transform="translate(140.725 39)">
      <path d="M10.29241,13.9815 L9.72518,14.963 C7.285225,13.5958333 4.69372,12.5515 2.015615,11.7758333 L2.42913,10.764 C5.05311,11.4811667 7.670595,12.5515 10.29241,13.9815 Z M23.98387,10.257 C22.34713,14.1873333 19.8747,17.706 16.60122,20.7436667 C13.02897,24.0478333 8.98042,26.312 4.427425,27.5361667 L3.860195,26.4615 C8.23566,25.272 12.195445,23.0966667 15.737385,19.9116667 C18.950245,16.9325 21.362055,13.598 22.938175,9.84533333 L23.98387,10.257 Z M12.940205,7.072 L12.31452,7.995 C10.264265,6.6235 7.700905,5.52283333 4.635265,4.69083333 L5.05311,3.58583333 C8.14906,4.4525 10.766545,5.61166667 12.940205,7.072 Z M22.58528,7.30816667 L21.90114,7.787 C20.950705,6.29633333 19.90501,4.95516667 18.8355,3.82633333 L19.491495,3.289 C20.677915,4.54133333 21.721445,5.8825 22.58528,7.30816667 Z M25.501535,5.1675 L24.787085,5.67016667 C23.83232,4.15133333 22.821265,2.84266667 21.751755,1.7095 L22.40775,1.14183333 C23.59417,2.4245 24.639865,3.76566667 25.501535,5.1675 Z"/>
      <polygon points="54.547 11.57 54.547 12.61 47.942 12.61 47.942 24.912 56.035 24.912 56.035 25.957 38.71 25.957 38.71 24.912 46.807 24.912 46.807 12.61 40.228 12.61 40.228 11.57"/>
      <path d="M82.376085 2.06916667L82.376085 6.4155 89.936265 6.4155 90.8867 7.1305C88.806135 10.5885 85.97648 13.715 82.37392 16.4818333L82.37392 27.4755 81.245955 27.4755 81.245955 17.3181667C78.327535 19.3418333 74.99127 21.19 71.183035 22.828L70.7089 21.8421667C74.608065 20.2041667 78.15217 18.2108333 81.306575 15.8296667 84.757585 13.2058333 87.437855 10.4346667 89.31058 7.488L71.95594 7.488 71.95594 6.41333333 81.245955 6.41333333 81.245955 2.067 82.376085 2.067 82.376085 2.06916667zM89.81719 18.9886667C91.720225 20.1478333 93.2682 21.164 94.48926 22.0263333L93.80512 22.919C92.616535 22.0848333 91.036085 21.0686667 89.10274 19.9095 87.0763 18.6571667 85.50018 17.7645 84.37005 17.2271667L84.995735 16.276C86.156175 16.8415 87.762605 17.7363333 89.81719 18.9886667zM111.12512 3.3475L111.12512 26.0173333C114.071685 25.0943333 116.990105 23.634 119.847905 21.6385 122.82478 19.552 125.234425 17.2293333 127.13746 14.6683333L128.05975 15.3248333C125.979185 18.1566667 123.38768 20.6266667 120.29173 22.7738333 117.22609 24.856 114.01323 26.3748333 110.620675 27.3325L109.96468 26.7951667 109.96468 3.35183333 111.12512 3.35183333 111.12512 3.3475z"/>
      <polygon points="161.098 14.579 161.098 15.68 139.935 15.68 139.935 14.579"/>
      <path d="M183.927575,2.691 C183.537875,3.88483333 183.031265,5.13716667 182.438055,6.38516667 L193.449245,6.38516667 L194.25246,6.83366667 C193.479555,11.4811667 191.782195,15.5891667 189.132235,19.2248333 C186.30691,23.0381667 182.76497,25.8396667 178.506415,27.5665 L177.91537,26.5546667 C181.931445,24.8841667 185.29369,22.3231667 187.97396,18.8695 C188.12118,18.6571667 188.270565,18.4513333 188.448095,18.2433333 C187.556115,17.5868333 186.456295,16.8133333 185.11616,15.9206667 C183.27158,14.7268333 181.784225,13.8341667 180.62162,13.2383333 L181.247305,12.4041667 C182.498675,13.0606667 183.988195,13.9533333 185.711535,15.0583333 C187.110125,15.951 188.240255,16.6963333 189.101925,17.3225 C191.0396,14.3433333 192.349425,11.063 193.00109,7.43383333 L181.870825,7.43383333 C181.364215,8.3265 180.796985,9.21916667 180.203775,10.1118333 C178.53456,12.4951667 176.778745,14.4625 174.90602,16.0398333 L174.133115,15.2663333 C176.03615,13.6586667 177.7898,11.6306667 179.43087,9.21916667 C181.009155,6.83583333 182.16743,4.5435 182.88188,2.33783333 L183.927575,2.691 Z"/>
      <polygon points="232.471 14.46 232.471 15.472 206.008 15.472 206.008 14.46"/>
    </g>
    <g fill="#181818" fill-rule="nonzero" transform="translate(140.725 80.167)">
      <path d="M7.58616 6.25083333C7.311205 6.25083333 7.159655 6.02983333 7.159655 5.811 7.159655 5.3885 7.519045 5.3885 8.086275 5.3885 8.774745 5.3885 9.57796 5.4015 10.117045 5.41883333 10.987375 5.43183333 11.403055 5.91066667 11.403055 6.6625 11.403055 8.10116667 10.03261 10.5213333 6.98429 10.5213333 4.375465 10.5213333 2.13902 8.53666667 2.13902 5.499 2.13902 2.938 3.864525.309833333 7.17481.309833333 9.12331.309833333 10.61716 1.47333333 10.61716 2.04966667 10.61716 2.3075 10.392 2.5155 10.160345 2.5155 10.021785 2.5155 9.88539 2.44833333 9.770645 2.2945 9.16661 1.47333333 8.172875 1.105 7.14883 1.105 4.522685 1.105 3.02234 3.28033333 3.02234 5.49683333 3.02234 7.72633333 4.49887 9.61783333 7.01027 9.61783333 9.636415 9.61783333 10.4353 7.60283333 10.4353 6.851 10.4353 6.2075 9.939515 6.2075 9.55198 6.2075 9.056195 6.2075 8.242155 6.2205 7.60781 6.25083333L7.58616 6.25083333zM22.284345 10.3978333C22.102485 10.4108333 21.29061 10.4108333 20.474405 10.4108333 19.67552 10.4108333 18.859315 10.4108333 18.677455 10.3978333 17.46289 10.3003333 16.871845 9.75433333 16.828545 8.866 16.798235 8.28966667 16.798235 7.30383333 16.798235 6.2205 16.798235 4.5955 16.815555 2.7885 16.841535 1.92616667 16.871845 1.03783333 17.421755.5005 18.443635.444166667 18.7056.431166667 19.48067.418166667 20.236255.418166667 21.00916.418166667 21.75825.431166667 21.96609.444166667 22.254035.4615 22.405585.652166667 22.405585.842833333 22.405585 1.03783333 22.241045 1.2285 21.93578 1.2285 21.868665 1.2285 20.556675 1.2155 19.57593 1.2155 18.179505 1.2155 17.73568 1.2155 17.668565 2.04966667 17.64475 2.379 17.65774 3.52516667 17.64475 4.33333333 17.64475 4.5955 17.77898 4.5955 17.919705 4.5955 18.19466 4.6085 18.90045 4.6085 19.60191 4.6085 20.3077 4.6085 21.02648 4.6085 21.301435 4.5955 21.72794 4.57816667 21.77124 4.89666667 21.77124 4.98983333 21.77124 5.19783333 21.6067 5.41666667 21.301435 5.41666667L21.271125 5.41666667C20.84462 5.38633333 20.06955 5.38633333 19.35077 5.38633333 17.642585 5.38633333 17.625265 5.38633333 17.625265 5.6615 17.625265 7.76966667 17.625265 8.41316667 17.668565 8.7425 17.72269 9.25816667 18.014965 9.56366667 18.746735 9.61783333 18.97839 9.63083333 19.74047 9.63083333 20.49822 9.63083333 21.271125 9.63083333 22.046195 9.63083333 22.29517 9.61783333L22.33847 9.61783333C22.613425 9.61783333 22.764975 9.7955 22.764975 9.98616667 22.764975 10.1768333 22.613425 10.3848333 22.284345 10.3978333zM35.802605 9.47916667C35.802605 10.0966667 35.31981 10.465 34.80887 10.465 34.47979 10.465 34.1204 10.3003333 33.88225 9.932 32.901505 8.36983333 29.9203 2.97916667 29.17554 1.70516667 29.078115 1.5405 28.95471 1.43 28.85945 1.43 28.6646 1.43 28.6646 1.625 28.6646 2.5805 28.6646 4.33333333 28.69058 8.58866667 28.731715 10.0121667L28.731715 10.0295C28.731715 10.3003333 28.50006 10.439 28.26191 10.439 28.030255 10.439 27.792105 10.3003333 27.792105 10.0295L27.792105 10.0121667C27.822415 8.7555 27.835405 7.31683333 27.835405 5.91933333 27.835405 4.30733333 27.822415 2.74516667 27.792105 1.5275L27.792105 1.48416667C27.792105.7475 28.21861.405166667 28.688415.405166667 29.078115.405166667 29.47864.626166667 29.740605 1.04866667 30.59578 2.47 33.44059 7.579 34.464635 9.165 34.54474 9.29933333 34.655155 9.386 34.73959 9.386 34.91712 9.386 34.91712 9.12383333 34.91712 8.71216667 34.91712 7.2475 34.87382 2.16883333 34.837015.871L34.837015.858C34.837015.541666667 35.06867.392166667 35.2895.392166667 35.538475.392166667 35.776625.5525 35.776625.858L35.776625.871C35.746315 1.64883333 35.746315 2.64766667 35.746315 3.718 35.746315 5.7525 35.776625 8.04266667 35.80044 9.464L35.80044 9.47916667 35.802605 9.47916667zM47.29659 10.3978333C47.11906 10.4108333 46.302855 10.4108333 45.48665 10.4108333 44.687765 10.4108333 43.87156 10.4108333 43.69403 10.3978333 42.479465 10.3003333 41.88409 9.75433333 41.842955 8.866 41.816975 8.28966667 41.816975 7.30383333 41.816975 6.2205 41.816975 4.5955 41.829965 2.7885 41.860275 1.92616667 41.886255 1.03783333 42.440495.5005 43.458045.444166667 43.72001.431166667 44.49508.418166667 45.254995.418166667 46.0279.418166667 46.77266.431166667 46.9805.444166667 47.272775.4615 47.424325.652166667 47.424325.842833333 47.424325 1.03783333 47.255455 1.2285 46.95452 1.2285 46.883075 1.2285 45.571085 1.2155 44.59034 1.2155 43.193915 1.2155 42.75442 1.2155 42.687305 2.04966667 42.656995 2.379 42.669985 3.52733333 42.656995 4.3355 42.656995 4.59766667 42.795555 4.59766667 42.93195 4.59766667 43.211235 4.61066667 43.912695 4.61066667 44.618485 4.61066667 45.319945 4.61066667 46.038725 4.61066667 46.31368 4.59766667 46.744515 4.58033333 46.783485 4.89883333 46.783485 4.992 46.783485 5.2 46.618945 5.41883333 46.31368 5.41883333L46.2877 5.41883333C45.861195 5.3885 45.086125 5.3885 44.367345 5.3885 42.65483 5.3885 42.64184 5.3885 42.64184 5.66366667 42.64184 7.77183333 42.64184 8.41533333 42.68514 8.74466667 42.739265 9.26033333 43.02721 9.56583333 43.75898 9.62 43.994965 9.633 44.752715 9.633 45.514795 9.633 46.2877 9.633 47.06277 9.633 47.311745 9.62L47.350715 9.62C47.63 9.62 47.78155 9.79766667 47.78155 9.98833333 47.78155 10.179 47.63 10.3848333 47.29659 10.3978333zM56.729495 5.45566667C56.729495 5.50983333 56.78362 5.57916667 56.881045 5.66366667 57.643125 6.36133333 58.23417 7.55083333 58.77109 8.42616667 59.16079 9.04366667 59.561315 9.45533333 60.18267 9.5225 60.457625 9.5485 60.609175 9.76733333 60.609175 9.98833333 60.609175 10.2201667 60.427315 10.4411667 60.041945 10.4411667 59.73668 10.4411667 58.786245 10.2201667 58.037155 8.879 57.469925 7.88016667 56.31165 5.59433333 55.348225 5.56616667 55.153375 5.56616667 54.558 5.54016667 54.20294 5.54016667 53.81324 5.54016667 53.759115 5.62033333 53.759115 5.798 53.759115 6.851 53.802415 9.47916667 53.802415 9.98833333 53.802415 10.2635 53.56643 10.3978333 53.3456 10.3978333 53.12477 10.3978333 52.919095 10.2743333 52.919095 9.99916667 52.945075 7.384 52.932085 3.3475 52.97322 1.86983333 53.01652.377 54.39346.377 55.45864.377 55.763905.377 56.062675.394333333 56.270515.407333333 58.288295.541666667 59.158625 1.70733333 59.158625 2.87083333 59.158625 4.04733333 58.275305 5.22383333 56.855065 5.3885 56.772795 5.38633333 56.729495 5.41666667 56.729495 5.45566667zM56.179585 1.105C55.984735 1.092 55.681635 1.07466667 55.36338 1.07466667 54.339335 1.07466667 53.858705 1.26966667 53.802415 2.0475 53.772105 2.38983333 53.789425 3.78733333 53.772105 4.6085 53.772105 4.81216667 53.979945 4.84033333 55.11224 4.84033333 55.556065 4.84033333 56.00855 4.823 56.270515 4.81 57.556525 4.71683333 58.288295 3.78516667 58.288295 2.8795 58.29046 2.01933333 57.643125 1.18516667 56.179585 1.105zM72.282855 10.4108333C72.118315 10.4108333 71.936455 10.3133333 71.85635 10.0966667 71.68748 9.698 71.16355 8.28966667 70.73488 7.02866667 70.69158 6.91816667 70.650445 6.864 70.51405 6.864 70.29322 6.851 69.63073 6.851 68.92494 6.851 67.944195 6.851 66.853035 6.851 66.56509 6.864 66.437355 6.864 66.38323 6.9485 66.35725 7.02866667 65.99786 8.125 65.571355 9.412 65.363515 10.0793333 65.29207 10.3111667 65.10155 10.4086667 64.91969 10.4086667 64.71185 10.4086667 64.493185 10.2743333 64.493185 10.0403333 64.493185 9.997 64.506175 9.94283333 64.519165 9.90166667 65.29207 7.42516667 66.909325 3.03333333 67.571815 1.14183333 67.753675.65 68.139045.418166667 68.511425.418166667 68.914115.418166667 69.31464.663 69.49217 1.15916667 70.4058 3.67683333 72.22873 8.671 72.69637 9.76733333 72.72235 9.8345 72.73967 9.90166667 72.73967 9.97533333 72.73967 10.2331667 72.51451 10.4108333 72.282855 10.4108333zM70.34951 5.9085C69.918675 4.6215 69.035355 2.2685 68.814525 1.58383333 68.74741 1.37583333 68.649985 1.28266667 68.53957 1.28266667 68.429155 1.28266667 68.31874 1.39316667 68.234305 1.60766667 67.94203 2.38983333 66.71664 5.90633333 66.71664 6.01683333 66.71664 6.071 66.75994 6.097 66.86819 6.097 67.143145 6.097 67.887905 6.11433333 68.606685 6.11433333 69.338455 6.11433333 70.044245 6.097 70.252085 6.097 70.34951 6.097 70.37549 6.071 70.37549 6.02983333 70.37549 5.98866667 70.3625 5.94966667 70.34951 5.9085zM80.198095 9.99916667C80.198095 10.2873333 79.96211 10.439 79.71097 10.439 79.466325 10.439 79.228175 10.2873333 79.228175 9.99916667L79.228175 9.98616667C79.258485 8.77933333 79.2823 6.318 79.2823 4.22283333 79.2823 3.1265 79.26931 2.12766667 79.25632 1.48416667 79.25632 1.2935 79.22601 1.25233333 78.301555 1.25233333 77.71051 1.25233333 76.93544 1.28266667 76.270785 1.28266667 75.96552 1.28266667 75.8183 1.07466667 75.8183.884 75.8183.676 75.96552.485333333 76.257795.485333333L76.270785.485333333C77.11297.498333333 78.578675.515666667 80.029225.515666667 81.21348.515666667 82.389075.498333333 83.18796.485333333L83.20528.485333333C83.480235.485333333 83.618795.693333333 83.618795.884 83.618795 1.092 83.480235 1.28266667 83.216105 1.28266667L83.203115 1.28266667C82.692175 1.26966667 82.19206 1.25233333 81.765555 1.25233333 81.1009 1.25233333 80.58996 1.26966667 80.38212 1.28266667 80.258715 1.28266667 80.16129 1.30866667 80.16129 1.48633333 80.1483 2.14716667 80.13531 3.0355 80.13531 4.004 80.13531 6.14033333 80.17428 8.671 80.189435 9.98833333L80.189435 9.99916667 80.198095 9.99916667zM86.6 5.42966667C86.6 2.45916667 88.73902.309833333 91.60981.309833333 94.4806.309833333 96.62395 2.45916667 96.62395 5.42966667 96.62395 8.51066667 94.4806 10.5213333 91.60981 10.5213333 88.73902 10.5213333 86.6 8.51066667 86.6 5.42966667zM95.725475 5.42966667C95.725475 2.8145 93.889555 1.07466667 91.611975 1.07466667 89.334395 1.07466667 87.498475 2.8145 87.498475 5.42966667 87.498475 8.0275 89.334395 9.74133333 91.611975 9.74133333 93.889555 9.74133333 95.725475 8.0275 95.725475 5.42966667zM105.5654 5.45566667C105.5654 5.50983333 105.619525 5.57916667 105.71695 5.66366667 106.47903 6.36133333 107.070075 7.55083333 107.606995 8.42616667 107.996695 9.04366667 108.39722 9.45533333 109.018575 9.5225 109.29353 9.5485 109.44508 9.76733333 109.44508 9.98833333 109.44508 10.2201667 109.26322 10.4411667 108.87785 10.4411667 108.572585 10.4411667 107.62215 10.2201667 106.87306 8.879 106.30583 7.88016667 105.147555 5.59433333 104.18413 5.56616667 103.98928 5.56616667 103.393905 5.54016667 103.038845 5.54016667 102.649145 5.54016667 102.59502 5.62033333 102.59502 5.798 102.59502 6.851 102.63832 9.47916667 102.63832 9.98833333 102.63832 10.2635 102.402335 10.3978333 102.181505 10.3978333 101.960675 10.3978333 101.755 10.2743333 101.755 9.99916667 101.78098 7.384 101.76799 3.3475 101.809125 1.86983333 101.852425.377 103.229365.377 104.294545.377 104.59981.377 104.89858.394333333 105.10642.407333333 107.1242.541666667 107.99453 1.70733333 107.99453 2.87083333 107.99453 4.04733333 107.11121 5.22383333 105.69097 5.3885 105.606535 5.38633333 105.5654 5.41666667 105.5654 5.45566667zM105.01549 1.105C104.82064 1.092 104.51754 1.07466667 104.199285 1.07466667 103.17524 1.07466667 102.69461 1.26966667 102.63832 2.0475 102.60801 2.38983333 102.62533 3.78733333 102.60801 4.6085 102.60801 4.81216667 102.81585 4.84033333 103.948145 4.84033333 104.39197 4.84033333 104.844455 4.823 105.10642 4.81 106.39243 4.71683333 107.1242 3.78516667 107.1242 2.8795 107.1242 2.01933333 106.47903 1.18516667 105.01549 1.105zM129.034 6.25083333C128.759045 6.25083333 128.607495 6.02983333 128.607495 5.811 128.607495 5.3885 128.966885 5.3885 129.534115 5.3885 130.222585 5.3885 131.0258 5.4015 131.564885 5.41883333 132.435215 5.43183333 132.850895 5.91066667 132.850895 6.6625 132.850895 8.10116667 131.48045 10.5213333 128.43213 10.5213333 125.823305 10.5213333 123.58686 8.53666667 123.58686 5.499 123.58686 2.938 125.312365.309833333 128.62265.309833333 130.57115.309833333 132.065 1.47333333 132.065 2.04966667 132.065 2.3075 131.83984 2.5155 131.608185 2.5155 131.469625 2.5155 131.33323 2.44833333 131.218485 2.2945 130.61445 1.47333333 129.620715 1.105 128.59667 1.105 125.970525 1.105 124.47018 3.28033333 124.47018 5.49683333 124.47018 7.72633333 125.94671 9.61783333 128.45811 9.61783333 131.084255 9.61783333 131.88314 7.60283333 131.88314 6.851 131.88314 6.2075 131.387355 6.2075 130.99982 6.2075 130.504035 6.2075 129.689995 6.2205 129.05565 6.25083333L129.034 6.25083333zM143.732185 10.3978333C143.550325 10.4108333 142.73845 10.4108333 141.922245 10.4108333 141.12336 10.4108333 140.307155 10.4108333 140.125295 10.3978333 138.91073 10.3003333 138.319685 9.75433333 138.276385 8.866 138.246075 8.28966667 138.246075 7.30383333 138.246075 6.2205 138.246075 4.5955 138.263395 2.7885 138.289375 1.92616667 138.319685 1.03783333 138.869595.5005 139.891475.444166667 140.15344.431166667 140.92851.418166667 141.684095.418166667 142.457.418166667 143.20609.431166667 143.41393.444166667 143.701875.4615 143.853425.652166667 143.853425.842833333 143.853425 1.03783333 143.688885 1.2285 143.38362 1.2285 143.316505 1.2285 142.004515 1.2155 141.02377 1.2155 139.627345 1.2155 139.18352 1.2155 139.116405 2.04966667 139.090425 2.379 139.103415 3.52733333 139.090425 4.3355 139.090425 4.59766667 139.224655 4.59766667 139.36538 4.59766667 139.640335 4.61066667 140.346125 4.61066667 141.047585 4.61066667 141.753375 4.61066667 142.472155 4.61066667 142.74711 4.59766667 143.173615 4.58033333 143.216915 4.89883333 143.216915 4.992 143.216915 5.2 143.052375 5.41883333 142.74711 5.41883333L142.7168 5.41883333C142.290295 5.3885 141.515225 5.3885 140.796445 5.3885 139.08826 5.3885 139.07094 5.3885 139.07094 5.66366667 139.07094 7.77183333 139.07094 8.41533333 139.11424 8.74466667 139.168365 9.26033333 139.46064 9.56583333 140.19241 9.62 140.424065 9.633 141.186145 9.633 141.943895 9.633 142.7168 9.633 143.49187 9.633 143.740845 9.62L143.784145 9.62C144.0591 9.62 144.21065 9.79766667 144.21065 9.98833333 144.21065 10.179 144.061265 10.3848333 143.732185 10.3978333zM157.250445 9.47916667C157.250445 10.0966667 156.76765 10.465 156.25671 10.465 155.92763 10.465 155.56824 10.3003333 155.33009 9.932 154.349345 8.36983333 151.36814 2.97916667 150.62338 1.70516667 150.525955 1.5405 150.40255 1.43 150.30729 1.43 150.11244 1.43 150.11244 1.625 150.11244 2.5805 150.11244 4.33333333 150.13842 8.58866667 150.179555 10.0121667L150.179555 10.0295C150.179555 10.3003333 149.9479 10.439 149.70975 10.439 149.478095 10.439 149.239945 10.3003333 149.239945 10.0295L149.239945 10.0121667C149.270255 8.7555 149.283245 7.31683333 149.283245 5.91933333 149.283245 4.30733333 149.270255 2.74516667 149.239945 1.5275L149.239945 1.48416667C149.239945.7475 149.66645.405166667 150.136255.405166667 150.525955.405166667 150.92648.626166667 151.188445 1.04866667 152.04362 2.47 154.88843 7.579 155.912475 9.165 155.99258 9.29933333 156.102995 9.386 156.18743 9.386 156.36496 9.386 156.36496 9.12383333 156.36496 8.71216667 156.36496 7.2475 156.32166 2.16883333 156.284855.871L156.284855.858C156.284855.541666667 156.51651.392166667 156.73734.392166667 156.986315.392166667 157.224465.5525 157.224465.858L157.224465.871C157.194155 1.64883333 157.194155 2.64766667 157.194155 3.718 157.194155 5.7525 157.224465 8.04266667 157.24828 9.464L157.24828 9.47916667 157.250445 9.47916667zM168.742265 10.3978333C168.560405 10.4108333 167.74853 10.4108333 166.932325 10.4108333 166.13344 10.4108333 165.317235 10.4108333 165.135375 10.3978333 163.92081 10.3003333 163.329765 9.75433333 163.286465 8.866 163.256155 8.28966667 163.256155 7.30383333 163.256155 6.2205 163.256155 4.5955 163.273475 2.7885 163.299455 1.92616667 163.329765 1.03783333 163.879675.5005 164.901555.444166667 165.16352.431166667 165.93859.418166667 166.694175.418166667 167.46708.418166667 168.21617.431166667 168.42401.444166667 168.711955.4615 168.863505.652166667 168.863505.842833333 168.863505 1.03783333 168.698965 1.2285 168.3937 1.2285 168.326585 1.2285 167.014595 1.2155 166.03385 1.2155 164.637425 1.2155 164.1936 1.2155 164.126485 2.04966667 164.100505 2.379 164.113495 3.52733333 164.100505 4.3355 164.100505 4.59766667 164.234735 4.59766667 164.37546 4.59766667 164.650415 4.61066667 165.356205 4.61066667 166.057665 4.61066667 166.763455 4.61066667 167.482235 4.61066667 167.75719 4.59766667 168.183695 4.58033333 168.226995 4.89883333 168.226995 4.992 168.226995 5.2 168.062455 5.41883333 167.75719 5.41883333L167.72688 5.41883333C167.300375 5.3885 166.525305 5.3885 165.806525 5.3885 164.09834 5.3885 164.08102 5.3885 164.08102 5.66366667 164.08102 7.77183333 164.08102 8.41533333 164.12432 8.74466667 164.178445 9.26033333 164.47072 9.56583333 165.20249 9.62 165.434145 9.633 166.196225 9.633 166.953975 9.633 167.72688 9.633 168.50195 9.633 168.750925 9.62L168.794225 9.62C169.06918 9.62 169.22073 9.79766667 169.22073 9.98833333 169.22073 10.179 169.07351 10.3848333 168.742265 10.3978333zM178.177335 5.45566667C178.177335 5.50983333 178.23146 5.57916667 178.328885 5.66366667 179.086635 6.36133333 179.68201 7.55083333 180.21893 8.42616667 180.6043 9.04366667 181.004825 9.45533333 181.62618 9.5225 181.901135 9.5485 182.052685 9.76733333 182.052685 9.98833333 182.052685 10.2201667 181.875155 10.4411667 181.485455 10.4411667 181.18452 10.4411667 180.229755 10.2201667 179.484995 8.879 178.917765 7.88016667 177.75949 5.59433333 176.791735 5.56616667 176.596885 5.56616667 176.00584 5.54016667 175.64645 5.54016667 175.26108 5.54016667 175.206955 5.62033333 175.206955 5.798 175.206955 6.851 175.245925 9.47916667 175.245925 9.98833333 175.245925 10.2635 175.01427 10.3978333 174.79344 10.3978333 174.56828 10.3978333 174.362605 10.2743333 174.362605 9.99916667 174.392915 7.384 174.379925 3.3475 174.41673 1.86983333 174.46003.377 175.8413.377 176.90215.377 177.207415.377 177.510515.394333333 177.718355.407333333 179.736135.541666667 180.602135 1.70733333 180.602135 2.87083333 180.602135 4.04733333 179.718815 5.22383333 178.298575 5.3885 178.21414 5.38633333 178.177335 5.41666667 178.177335 5.45566667zM177.623095 1.105C177.428245 1.092 177.125145 1.07466667 176.80689 1.07466667 175.787175 1.07466667 175.302215 1.26966667 175.245925 2.0475 175.219945 2.38983333 175.232935 3.78733333 175.219945 4.6085 175.219945 4.81216667 175.427785 4.84033333 176.56008 4.84033333 176.999575 4.84033333 177.45639 4.823 177.718355 4.81 179.004365 4.71683333 179.736135 3.78516667 179.736135 2.8795 179.7383 2.01933333 179.086635 1.18516667 177.623095 1.105zM193.72853 10.4108333C193.56399 10.4108333 193.38213 10.3133333 193.302025 10.0966667 193.133155 9.698 192.609225 8.28966667 192.180555 7.02866667 192.137255 6.91816667 192.09612 6.864 191.959725 6.864 191.738895 6.851 191.076405 6.851 190.370615 6.851 189.38987 6.851 188.29871 6.851 188.010765 6.864 187.88303 6.864 187.828905 6.9485 187.802925 7.02866667 187.443535 8.125 187.01703 9.412 186.80919 10.0793333 186.737745 10.3111667 186.547225 10.4086667 186.365365 10.4086667 186.157525 10.4086667 185.93886 10.2743333 185.93886 10.0403333 185.93886 9.997 185.95185 9.94283333 185.96484 9.90166667 186.737745 7.42516667 188.355 3.03333333 189.01749 1.14183333 189.19935.65 189.58472.418166667 189.9571.418166667 190.35979.418166667 190.760315.663 190.937845 1.15916667 191.851475 3.67683333 193.674405 8.671 194.142045 9.76733333 194.168025 9.8345 194.185345 9.90166667 194.185345 9.97533333 194.185345 10.2331667 193.96235 10.4108333 193.72853 10.4108333zM191.79735 5.9085C191.366515 4.6215 190.483195 2.2685 190.262365 1.58383333 190.19525 1.37583333 190.097825 1.28266667 189.98741 1.28266667 189.876995 1.28266667 189.76658 1.39316667 189.682145 1.60766667 189.38987 2.38983333 188.16448 5.90633333 188.16448 6.01683333 188.16448 6.071 188.20778 6.097 188.31603 6.097 188.590985 6.097 189.335745 6.11433333 190.054525 6.11433333 190.786295 6.11433333 191.492085 6.097 191.699925 6.097 191.79735 6.097 191.82333 6.071 191.82333 6.02983333 191.82333 5.98866667 191.81034 5.94966667 191.79735 5.9085zM201.641605 9.99916667C201.641605 10.2873333 201.40995 10.439 201.15881 10.439 200.90767 10.439 200.676015 10.2873333 200.676015 9.99916667L200.676015 9.98616667C200.701995 8.77933333 200.73014 6.318 200.73014 4.22283333 200.73014 3.1265 200.71282 2.12766667 200.69983 1.48416667 200.69983 1.2935 200.67385 1.25233333 199.749395 1.25233333 199.15402 1.25233333 198.38328 1.28266667 197.718625 1.28266667 197.41336 1.28266667 197.26181 1.07466667 197.26181.884 197.26181.676 197.41336.485333333 197.705635.485333333L197.718625.485333333C198.56081.498333333 200.022185.515666667 201.472735.515666667 202.66132.515666667 203.832585.498333333 204.6358.485333333L204.64879.485333333C204.923745.485333333 205.062305.693333333 205.062305.884 205.062305 1.092 204.923745 1.28266667 204.659615 1.28266667L204.646625 1.28266667C204.135685 1.26966667 203.6399 1.25233333 203.209065 1.25233333 202.54874 1.25233333 202.0378 1.26966667 201.82996 1.28266667 201.706555 1.28266667 201.60913 1.30866667 201.60913 1.48633333 201.59181 2.14716667 201.57882 3.0355 201.57882 4.004 201.57882 6.14033333 201.62212 8.671 201.632945 9.98833333L201.632945 9.99916667 201.641605 9.99916667zM208.0565 5.42966667C208.0565 2.45916667 210.19552.309833333 213.07064.309833333 215.94143.309833333 218.08045 2.45916667 218.08045 5.42966667 218.08045 8.51066667 215.94143 10.5213333 213.07064 10.5213333 210.19552 10.5191667 208.0565 8.51066667 208.0565 5.42966667zM217.18414 5.42966667C217.18414 2.8145 215.34822 1.07466667 213.07064 1.07466667 210.79306 1.07466667 208.95714 2.8145 208.95714 5.42966667 208.95714 8.0275 210.79306 9.74133333 213.07064 9.74133333 215.34822 9.74133333 217.18414 8.0275 217.18414 5.42966667zM226.8054 5.45566667C226.8054 5.50983333 226.859525 5.57916667 226.95695 5.66366667 227.71903 6.36133333 228.310075 7.55083333 228.846995 8.42616667 229.236695 9.04366667 229.63722 9.45533333 230.258575 9.5225 230.53353 9.5485 230.68508 9.76733333 230.68508 9.98833333 230.68508 10.2201667 230.50322 10.4411667 230.11785 10.4411667 229.812585 10.4411667 228.86215 10.2201667 228.11306 8.879 227.54583 7.88016667 226.387555 5.59433333 225.42413 5.56616667 225.22928 5.56616667 224.633905 5.54016667 224.278845 5.54016667 223.889145 5.54016667 223.83502 5.62033333 223.83502 5.798 223.83502 6.851 223.87832 9.47916667 223.87832 9.98833333 223.87832 10.2635 223.642335 10.3978333 223.421505 10.3978333 223.200675 10.3978333 222.995 10.2743333 222.995 9.99916667 223.02098 7.384 223.00799 3.3475 223.049125 1.86983333 223.092425.377 224.469365.377 225.534545.377 225.83981.377 226.13858.394333333 226.34642.407333333 228.3642.541666667 229.23453 1.70733333 229.23453 2.87083333 229.23453 4.04733333 228.35121 5.22383333 226.93097 5.3885 226.8487 5.38633333 226.8054 5.41666667 226.8054 5.45566667zM226.257655 1.105C226.062805 1.092 225.759705 1.07466667 225.44145 1.07466667 224.417405 1.07466667 223.936775 1.26966667 223.880485 2.0475 223.850175 2.38983333 223.867495 3.78733333 223.850175 4.6085 223.850175 4.81216667 224.058015 4.84033333 225.19031 4.84033333 225.634135 4.84033333 226.08662 4.823 226.348585 4.81 227.634595 4.71683333 228.366365 3.78516667 228.366365 2.8795 228.366365 2.01933333 227.71903 1.18516667 226.257655 1.105z"/>
    </g>
    <path fill="#FFFA9F" d="M81.4482332,31.2886594 L78.1894133,34.3078178 C74.3149735,29.8310803 68.4852868,27.0900824 61.8227556,27.0900824 C49.8010408,27.0900824 40.4590304,35.4529458 40.4590304,47.8415792 C40.4590304,60.229987 49.8010408,68.5933015 61.6053056,68.5933015 C73.1923459,68.5933015 80.5430555,61.5835662 81.1947293,50.4788026 L64.0312809,50.4788026 L64.0312809,46.5229675 L85.9745721,46.5229675 C86.0469052,46.9739349 86.0469052,47.2861605 86.0469052,47.6678698 C86.0469052,61.930308 76.6323365,72.6531367 61.6053056,72.6531367 C48.0990724,72.6531367 35.860133,63.2838872 35.860133,47.8415792 C35.860133,33.2319479 47.0852825,22.9948286 61.8227556,22.9948286 C69.7888598,22.9948286 76.8135072,26.1182126 81.4482332,31.2886594"/>
    <path stroke="#000" stroke-linecap="round" stroke-linejoin="round" stroke-width="1.127" d="M80.5162381 30.3082846C80.8364156 30.6263757 81.1469113 30.9530395 81.4474999 31.2887271L80.4558952 32.208033M79.1816611 33.3881999L78.1895034 34.3044413C77.8943123 33.9644764 77.587629 33.6346295 77.2703549 33.3151254"/>
    <path stroke="#000" stroke-dasharray="2.732 2.732" stroke-linecap="round" stroke-linejoin="round" stroke-width="1.127" d="M75.221751,31.5083228 C71.5911256,28.7158889 66.9539209,27.0900148 61.8227781,27.0900148 C49.800838,27.0900148 40.4588276,35.4528781 40.4588276,47.8415115 C40.4588276,60.2299193 49.800838,68.5934594 61.6053282,68.5934594 C72.2222938,68.5934594 79.2827697,62.7080972 80.891674,53.1798022"/>
    <path stroke="#000" stroke-linecap="round" stroke-linejoin="round" stroke-width="1.127" d="M81.0805061,51.8276443 C81.1298549,51.3852495 81.1679368,50.93541 81.1947519,50.4788026 L79.8427315,50.4788026"/>
    <path stroke="#000" stroke-dasharray="2.892 2.892" stroke-linecap="round" stroke-linejoin="round" stroke-width="1.127" d="M76.9507373,50.4789154 L66.8292872,50.4789154"/>
    <polyline stroke="#000" stroke-linecap="round" stroke-linejoin="round" stroke-width="1.127" points="65.383 50.479 64.031 50.479 64.031 49.125"/>
    <polyline stroke="#000" stroke-linecap="round" stroke-linejoin="round" stroke-width="1.127" points="64.031 47.877 64.031 46.523 65.383 46.523"/>
    <path stroke="#000" stroke-dasharray="2.748 2.748" stroke-linecap="round" stroke-linejoin="round" stroke-width="1.127" d="M68.1318011,46.5230351 L83.2482906,46.5230351"/>
    <path stroke="#000" stroke-linecap="round" stroke-linejoin="round" stroke-width="1.127" d="M84.6225292,46.5230351 L85.9745496,46.5230351 C86.0468827,46.9740026 86.0468827,47.2862282 86.0468827,47.6679375 C86.0468827,47.7365189 86.0466574,47.8048746 86.0462067,47.8732304"/>
    <path stroke="#000" stroke-dasharray="2.74 2.74" stroke-linecap="round" stroke-linejoin="round" stroke-width="1.127" d="M85.9094048,50.6123106 C84.6995718,63.3808486 75.5790675,72.6533171 61.6054859,72.6533171 C48.0990274,72.6533171 35.8603133,63.2838421 35.8603133,47.8415341 C35.8603133,33.2319028 47.0852374,22.9950091 61.8227105,22.9950091 C68.7495617,22.9950091 74.9643489,25.356328 79.5150242,29.3717206"/>
    <path stroke="#000" stroke-dasharray="2.704" stroke-linecap="round" stroke-linejoin="round" stroke-width="1.127" d="M110.302332 86.0597067C110.302332 91.3506221 105.845622 95.6394377 100.347631 95.6394377L21.1088693 95.6394377C15.6111036 95.6394377 11.1541684 91.3506221 11.1541684 86.0597067L11.1541684 9.80514707C11.1541684 4.51445727 15.6111036.225416052 21.1088693.225416052L100.347631.225416052C105.845622.225416052 110.302332 4.51445727 110.302332 9.80514707L110.302332 86.0597067zM96.7020203 57.0384052L110.302219 49.6584659M.775586507 55.2902351L11.1541458 49.6584434M19.8184109 101.708052L33.7304755 95.9192451M63.8829643 102.141852L77.7950289 95.6394829M63.8829643 102.141852L77.7950289 95.6394829M24.4018277 8.06543688L42.8686238.381167896M69.6026416 8.07953666L86.039379.397298048"/>
    <path fill="#303030" d="M71.4207485,38.4039965 L68.1619286,41.4231549 C64.2874888,36.9464174 58.4578021,34.2051939 51.7952709,34.2051939 C39.7735561,34.2051939 30.4315458,42.5682829 30.4315458,54.9569163 C30.4315458,67.3453241 39.7735561,75.6824694 51.5778209,75.6824694 C63.1648612,75.6824694 70.5155708,68.6009944 71.1672446,57.5415757 L53.968193,57.5415757 L53.968193,53.6383046 L75.9470875,53.6383046 C76.0194205,54.089272 76.0194205,54.4014976 76.0194205,54.7832069 C76.0194205,69.0456451 66.6048518,79.7684738 51.5778209,79.7684738 C38.0715877,79.7684738 25.8328737,70.3992243 25.8328737,54.9569163 C25.8328737,40.347285 37.0577978,30.1101657 51.7952709,30.1101657 C59.7613751,30.1101657 66.7860225,33.2335497 71.4207485,38.4039965"/>
    <g transform="translate(0 7.761)">
      <mask id="logo-ja-b" fill="#fff">
        <use xlink:href="#logo-ja-a"/>
      </mask>
      <path fill="#303030" d="M88.4090201,92.494577 L11.4150632,92.494577 C7.10887824,92.494577 3.60534269,89.2344816 3.60534269,85.0925293 L3.60534269,10.9987332 C3.60534269,6.85700651 7.10887824,3.38394794 11.4150632,3.38394794 L88.4090201,3.38394794 C92.7152051,3.38394794 96.2187406,6.85700651 96.2187406,10.9987332 L96.2187406,85.0925293 C96.2187406,89.2344816 92.7152051,92.494577 88.4090201,92.494577 M88.3105479,0 L11.5135354,0 C5.16489823,0 -4.50673469e-05,4.98139696 -4.50673469e-05,11.0932581 L-4.50673469e-05,84.9982299 C-4.50673469e-05,91.1098655 5.16489823,96.1041215 11.5135354,96.1041215 L88.3105479,96.1041215 C94.6591851,96.1041215 99.8241284,91.1098655 99.8241284,84.9982299 L99.8241284,11.0932581 C99.8241284,4.98139696 94.6591851,0 88.3105479,0" mask="url(#logo-ja-b)"/>
    </g>
  </g>
</svg>
