<svg xmlns="http://www.w3.org/2000/svg" xmlns:xlink="http://www.w3.org/1999/xlink" width="200" height="200" viewBox="0 0 200 200">
  <defs>
    <polygon id="logo-a" points="0 0 148.269 0 148.269 142.308 0 142.308"/>
  </defs>
  <g fill="none" fill-rule="evenodd" transform="translate(18 23)">
    <path fill="#FFFA9F" d="M120.975504,46.3312842 L116.135161,50.801961 C110.380434,44.1729458 101.721569,40.1141605 91.8256751,40.1141605 C73.9697567,40.1141605 60.094018,52.4976312 60.094018,70.8423384 C60.094018,89.1867115 73.9697567,101.57085 91.5026955,101.57085 C108.712989,101.57085 119.631038,91.1910499 120.598973,74.7474577 L95.1060098,74.7474577 L95.1060098,68.8897787 L127.6985,68.8897787 C127.805936,69.5575575 127.805936,70.0198915 127.805936,70.585115 C127.805936,91.7044946 113.822426,107.582529 91.5026955,107.582529 C71.4418139,107.582529 53.2632506,93.708833 53.2632506,70.8423384 C53.2632506,49.208846 69.9360261,34.0500347 91.8256751,34.0500347 C103.657773,34.0500347 114.09152,38.6750456 120.975504,46.3312842"/>
    <path stroke="#000" stroke-linecap="round" stroke-linejoin="round" stroke-width="1.672" d="M119.591206 44.8795753C120.066768 45.3505948 120.527949 45.8343085 120.974414 46.3313844L119.501579 47.6926642M117.608952 49.440219L116.135295 50.7969612C115.696846 50.2935516 115.241327 49.8051244 114.770078 49.3320126"/>
    <path stroke="#000" stroke-dasharray="4.055 4.055" stroke-linecap="round" stroke-linejoin="round" stroke-width="1.672" d="M111.727276,46.6565549 C106.334688,42.5216048 99.4470229,40.1140603 91.8257086,40.1140603 C73.9694555,40.1140603 60.0937167,52.497531 60.0937167,70.8422382 C60.0937167,89.1866113 73.9694555,101.571084 91.502729,101.571084 C107.272166,101.571084 117.759129,92.8562208 120.148843,78.7470148"/>
    <path stroke="#000" stroke-linecap="round" stroke-linejoin="round" stroke-width="1.672" d="M120.429317,76.7447809 C120.502615,76.0896963 120.559178,75.4235879 120.599007,74.7474577 L118.590843,74.7474577"/>
    <path stroke="#000" stroke-dasharray="4.292 4.292" stroke-linecap="round" stroke-linejoin="round" stroke-width="1.672" d="M114.295349,74.7476247 L99.2619037,74.7476247"/>
    <polyline stroke="#000" stroke-linecap="round" stroke-linejoin="round" stroke-width="1.672" points="97.114 74.748 95.106 74.748 95.106 72.743"/>
    <polyline stroke="#000" stroke-linecap="round" stroke-linejoin="round" stroke-width="1.672" points="95.106 70.894 95.106 68.89 97.114 68.89"/>
    <path stroke="#000" stroke-dasharray="4.079 4.079" stroke-linecap="round" stroke-linejoin="round" stroke-width="1.672" d="M101.196535,68.889879 L123.649139,68.889879"/>
    <path stroke="#000" stroke-linecap="round" stroke-linejoin="round" stroke-width="1.672" d="M125.690303,68.889879 L127.698466,68.889879 C127.805903,69.5576577 127.805903,70.0199918 127.805903,70.5852152 C127.805903,70.6867683 127.805568,70.7879874 127.804899,70.8892065"/>
    <path stroke="#000" stroke-dasharray="4.066 4.066" stroke-linecap="round" stroke-linejoin="round" stroke-width="1.672" d="M127.601706,74.9451523 C125.804735,93.8524104 112.258,107.582797 91.5029633,107.582797 C71.4417469,107.582797 53.2635184,93.7087662 53.2635184,70.8422716 C53.2635184,49.2087792 69.9359592,34.050302 91.8256082,34.050302 C102.114098,34.050302 111.344955,37.5468703 118.104098,43.4927401"/>
    <path stroke="#000" stroke-dasharray="4.013" stroke-linecap="round" stroke-linejoin="round" stroke-width="1.672" d="M163.832653 127.434566C163.832653 135.26919 157.213078 141.619937 149.046882 141.619937L31.3531184 141.619937C23.1872571 141.619937 16.5673469 135.26919 16.5673469 127.434566L16.5673469 14.5191601C16.5673469 6.68486941 23.1872571.333789154 31.3531184.333789154L149.046882.333789154C157.213078.333789154 163.832653 6.68486941 163.832653 14.5191601L163.832653 127.434566zM143.632037 84.4607154L163.832486 73.5327284M1.15198286 81.872079L16.5673135 73.532695M29.4363935 150.606154L50.1000588 142.034267M94.8857143 151.248511L115.54938 141.620003M94.8857143 151.248511L115.54938 141.620003M36.2441673 11.9430508L63.673.564421692M103.381182 11.9639293L127.794758.588306725"/>
    <path fill="#303030" d="M106.081626,56.8674564 L101.241283,61.3381332 C95.4865567,54.709118 86.8276914,50.6499987 76.9317976,50.6499987 C59.0758792,50.6499987 45.2001404,63.0338035 45.2001404,81.3785106 C45.2001404,99.7228837 59.0758792,112.068272 76.608818,112.068272 C93.8191118,112.068272 104.737161,101.582242 105.705096,85.2057948 L80.1592506,85.2057948 L80.1592506,79.425951 L112.804622,79.425951 C112.912059,80.0937297 112.912059,80.5560638 112.912059,81.1212872 C112.912059,102.240667 98.9285486,118.118702 76.608818,118.118702 C56.5479363,118.118702 38.3697078,104.245005 38.3697078,81.3785106 C38.3697078,59.7450182 55.0421486,44.5862069 76.9317976,44.5862069 C88.7638955,44.5862069 99.1976424,49.2112178 106.081626,56.8674564"/>
    <g transform="translate(0 11.493)">
      <mask id="logo-b" fill="#fff">
        <use xlink:href="#logo-a"/>
      </mask>
      <path fill="#303030" d="M131.314398,136.963124 L16.9548555,136.963124 C10.5588555,136.963124 5.3550351,132.135675 5.3550351,126.002399 L5.3550351,16.2865857 C5.3550351,10.1536443 10.5588555,5.01084599 16.9548555,5.01084599 L131.314398,5.01084599 C137.710398,5.01084599 142.914219,10.1536443 142.914219,16.2865857 L142.914219,126.002399 C142.914219,132.135675 137.710398,136.963124 131.314398,136.963124 M131.168137,0 L17.1011167,0 C7.67145143,0 -6.69387755e-05,7.37629935 -6.69387755e-05,16.4265553 L-6.69387755e-05,125.862764 C-6.69387755e-05,134.912685 7.67145143,142.308026 17.1011167,142.308026 L131.168137,142.308026 C140.597802,142.308026 148.269321,134.912685 148.269321,125.862764 L148.269321,16.4265553 C148.269321,7.37629935 140.597802,0 131.168137,0" mask="url(#logo-b)"/>
    </g>
  </g>
</svg>
