<svg xmlns="http://www.w3.org/2000/svg" xmlns:xlink="http://www.w3.org/1999/xlink" width="200" height="60" viewBox="0 0 200 60">
  <defs>
    <polygon id="logo-zh_hans-s-a" points="0 0 46.108 0 46.108 44.356 0 44.356"/>
  </defs>
  <g fill="none" fill-rule="evenodd" transform="translate(6 6)">
    <path fill="#FFFA9F" d="M37.620431,14.4409197 L36.1152024,15.8343774 C34.3256229,13.7681909 31.6329269,12.503115 28.5555453,12.503115 C23.0027902,12.503115 18.6877739,16.362898 18.6877739,22.0807289 C18.6877739,27.7984555 23.0027902,31.6584469 28.4551065,31.6584469 C33.8070882,31.6584469 37.2023351,28.4231844 37.5033392,23.2979089 L29.5756494,23.2979089 L29.5756494,21.4721388 L39.7111188,21.4721388 C39.744529,21.6802777 39.744529,21.8243818 39.744529,22.0005553 C39.744529,28.5832191 35.3959984,33.5322169 28.4551065,33.5322169 C22.2166616,33.5322169 16.5635718,29.2079479 16.5635718,22.0807289 C16.5635718,15.3378221 21.7483984,10.6129978 28.5555453,10.6129978 C32.2350392,10.6129978 35.47968,12.0545597 37.620431,14.4409197"/>
    <path stroke="#000" stroke-linecap="round" stroke-linejoin="round" stroke-width=".52" d="M37.1899483 13.988439C37.3378363 14.1352503 37.4812523 14.2860182 37.6200923 14.440951L37.1620763 14.865246M36.5735155 15.4099384L36.1152441 15.8328191C35.9788971 15.6759122 35.837242 15.5236751 35.6906951 15.3762117"/>
    <path stroke="#000" stroke-dasharray="1.261 1.261" stroke-linecap="round" stroke-linejoin="round" stroke-width=".52" d="M34.7444578,14.5423028 C33.0674945,13.2534872 30.9255986,12.5030837 28.5555557,12.5030837 C23.0026965,12.5030837 18.6876802,16.3628668 18.6876802,22.0806976 C18.6876802,27.7984243 23.0026965,31.6585197 28.4551169,31.6585197 C33.3590271,31.6585197 36.6202169,28.9421987 37.3633598,24.5445241"/>
    <path stroke="#000" stroke-linecap="round" stroke-linejoin="round" stroke-width=".52" d="M37.4505802,23.9204512 C37.4733741,23.716269 37.4909639,23.5086508 37.5033496,23.2979089 L36.8788598,23.2979089"/>
    <path stroke="#000" stroke-dasharray="1.335 1.335" stroke-linecap="round" stroke-linejoin="round" stroke-width=".52" d="M35.5430657,23.297961 L30.868031,23.297961"/>
    <polyline stroke="#000" stroke-linecap="round" stroke-linejoin="round" stroke-width=".52" points="30.2 23.298 29.576 23.298 29.576 22.673"/>
    <polyline stroke="#000" stroke-linecap="round" stroke-linejoin="round" stroke-width=".52" points="29.576 22.097 29.576 21.472 30.2 21.472"/>
    <path stroke="#000" stroke-dasharray="1.268 1.268" stroke-linecap="round" stroke-linejoin="round" stroke-width=".52" d="M31.4696541,21.4721701 L38.4518663,21.4721701"/>
    <path stroke="#000" stroke-linecap="round" stroke-linejoin="round" stroke-width=".52" d="M39.0866186,21.4721701 L39.7111084,21.4721701 C39.7445186,21.6803089 39.7445186,21.824413 39.7445186,22.0005866 C39.7445186,22.0322395 39.7444145,22.0637883 39.7442063,22.0953371"/>
    <path stroke="#000" stroke-dasharray="1.265 1.265" stroke-linecap="round" stroke-linejoin="round" stroke-width=".52" d="M39.6810184,23.359528 C39.1222041,29.2526993 34.9095,33.5323002 28.4551898,33.5323002 C22.2166408,33.5323002 16.5636551,29.2079271 16.5636551,22.080708 C16.5636551,15.3378013 21.7483776,10.6130811 28.5555245,10.6130811 C31.7549939,10.6130811 34.6255653,11.7029206 36.7274939,13.5561787"/>
    <path stroke="#000" stroke-dasharray="1.248" stroke-linecap="round" stroke-linejoin="round" stroke-width=".52" d="M50.9479592 39.7198646C50.9479592 42.1618256 48.8894327 44.141279 46.3499449 44.141279L9.7500551 44.141279C7.21067143 44.141279 5.15204082 42.1618256 5.15204082 39.7198646L5.15204082 4.52545249C5.15204082 2.08359566 7.21067143.104038178 9.7500551.104038178L46.3499449.104038178C48.8894327.104038178 50.9479592 2.08359566 50.9479592 4.52545249L50.9479592 39.7198646zM44.6660602 26.3254178L50.9479071 22.919292M.358238571 25.5185701L5.15203041 22.9192816M9.15400041 46.9421779L15.5798963 44.2704208M29.5071429 47.1423931L35.9330388 44.1412998M29.5071429 47.1423931L35.9330388 44.1412998M11.271052 3.72250933L19.80075.175923644M32.1490261 3.72901692L39.7410527.18336833"/>
    <path fill="#303030" d="M32.9887984,17.7249215 L31.4835698,19.1183792 C29.6939902,17.0521926 27.0012943,15.7870126 23.9239127,15.7870126 C18.3711576,15.7870126 14.0561412,19.6468998 14.0561412,25.3647306 C14.0561412,31.0824573 18.3711576,34.9303705 23.8234739,34.9303705 C29.1754555,34.9303705 32.5707024,31.6619974 32.8717065,26.5576503 L24.9275718,26.5576503 L24.9275718,24.7561406 L35.0794861,24.7561406 C35.1128963,24.9642794 35.1128963,25.1083835 35.1128963,25.284557 C35.1128963,31.8672208 30.7643657,36.8162187 23.8234739,36.8162187 C17.585029,36.8162187 11.9320433,32.4919497 11.9320433,25.3647306 C11.9320433,18.6218239 17.1167657,13.8969996 23.9239127,13.8969996 C27.6034065,13.8969996 30.8480473,15.3385614 32.9887984,17.7249215"/>
    <g transform="translate(0 3.582)">
      <mask id="logo-zh_hans-s-b" fill="#fff">
        <use xlink:href="#logo-zh_hans-s-a"/>
      </mask>
      <path fill="#303030" d="M40.8355751,42.6898048 L5.27254653,42.6898048 C3.28354653,42.6898048 1.66528531,41.1851453 1.66528531,39.2734751 L1.66528531,5.07633839 C1.66528531,3.16477223 3.28354653,1.56182213 5.27254653,1.56182213 L40.8355751,1.56182213 C42.8245751,1.56182213 44.4428363,3.16477223 44.4428363,5.07633839 L44.4428363,39.2734751 C44.4428363,41.1851453 42.8245751,42.6898048 40.8355751,42.6898048 M40.7900914,0 L5.3180302,0 C2.38563429,0 -2.08163265e-05,2.29910629 -2.08163265e-05,5.11996529 L-2.08163265e-05,39.2299523 C-2.08163265e-05,42.0507072 2.38563429,44.3557484 5.3180302,44.3557484 L40.7900914,44.3557484 C43.7224873,44.3557484 46.1081424,42.0507072 46.1081424,39.2299523 L46.1081424,5.11996529 C46.1081424,2.29910629 43.7224873,0 40.7900914,0" mask="url(#logo-zh_hans-s-b)"/>
    </g>
    <g fill="#181818" fill-rule="nonzero" transform="translate(65 10)">
      <path d="M.646 15.379L.646 14.48 8.046 14.48 8.046 9.652 2.937 9.652 2.937 8.77 8.046 8.77 8.046 4.823 3.694 4.823C2.971 6.251 2.214 7.608 1.155 9.036L.397 8.507C2.319 5.882 3.446 3.466 4.434.788L5.227 1.14C4.891 2.128 4.487 3.044 4.063 3.943L8.045 3.943 8.045.224 8.945.224 8.945 3.943 14.867 3.943 14.867 4.824 8.945 4.824 8.945 8.771 14.197 8.771 14.197 9.654 8.945 9.654 8.945 14.482 16.205 14.482 16.205 15.38.646 15.38.646 15.379zM30.348 12.453C28.797 13.951 26.948 15.115 24.463 16.172L24.022 15.344C26.542 14.305 28.393 13.123 29.944 11.59 29.221 9.828 28.622 7.414 28.411 4.082L22.542 4.082 22.542 6.797 27 6.797C27 8.611 26.842 10.85 26.611 11.891 26.382 12.895 25.836 13.123 24.797 13.123 24.285 13.123 23.776 13.07 23.246 12.965L23.158 11.944C23.793 12.085 24.39 12.173 24.885 12.173 25.38 12.173 25.625 12.068 25.748 11.573 26.014 10.516 26.084 9.053 26.084 7.643L22.541 7.643 22.541 9.018C22.541 11.713 21.906 14.022 20.408 16.368L19.668 15.856C21.131 13.565 21.643 11.538 21.643 8.913L21.643 3.167 28.358 3.167C28.305 2.269 28.305 1.353 28.323.294L29.204.294C29.186 1.353 29.204 2.269 29.257 3.167L35.566 3.167 35.566 4.083 29.31 4.083C29.539 7.097 30.05 9.229 30.667 10.851 31.864 9.511 32.817 7.996 33.804 6.111L34.615 6.588C33.47 8.649 32.359 10.324 31.037 11.733 32.307 14.501 33.857 15.065 34.209 15.065 34.475 15.065 34.686 14.889 35.021 12.122L35.902 12.845C35.531 15.206 35.232 16.07 34.422 16.07 33.68 16.066 31.793 15.344 30.348 12.453zM33.68 2.938C32.551 2.038 31.916 1.563 30.912.84L31.424.188C32.41.893 33.115 1.37 34.244 2.215L33.68 2.938zM54.852 11.695C54.164 11.431 53.477 11.15 53.002 10.884L53.002 16.349 52.209 16.349 52.209 15.501 48.684 15.501 48.684 16.349 47.873 16.349 47.873 10.302 51.891 10.302C50.623 9.544 49.547 8.859 48.754 8.066L45.529 8.066C44.453 9.052 43.467 9.687 42.34 10.302L46.533 10.302 46.533 16.349 45.705 16.349 45.705 15.501 42.232 15.501 42.232 16.349 41.439 16.349 41.439 10.779C40.859 11.08 40.171 11.361 39.519 11.625L39.13 10.885C41.403 9.934 42.831 9.299 44.4 8.067L39.677 8.067 39.677 7.29 45.193 7.29C45.881 6.587 46.498 5.739 47.08 4.841L47.75 5.265C47.273 6.04 46.744 6.71 46.234 7.29L54.816 7.29 54.816 8.067 49.828 8.067C51.521 9.282 52.879 10.04 55.24 10.885L54.852 11.695zM41.105 5.492L41.105 1.103 46.304 1.103 46.304 5.492 41.105 5.492zM45.494 1.879L41.916 1.879 41.916 4.717 45.494 4.717 45.494 1.879zM45.705 11.098L42.232 11.098 42.232 14.744 45.705 14.744 45.705 11.098zM48.049 5.492L48.049 1.103 53.389 1.103 53.389 5.492 48.049 5.492zM52.209 11.098L48.684 11.098 48.684 14.744 52.209 14.744 52.209 11.098zM52.578 1.879L48.859 1.879 48.859 4.717 52.578 4.717 52.578 1.879zM51.592 7.219C50.746 6.815 50.112 6.549 49.389 6.25L49.688 5.598C50.534 5.916 50.993 6.092 51.891 6.479L51.592 7.219zM74.156 16.438C70.773 15.502 68.217 13.653 66.754 10.534L66.367 10.534C65.732 11.044 64.939 11.573 63.969 12.12L63.969 14.798C65.168 14.499 66.155 14.218 67.354 13.847L67.512 14.658C65.028 15.381 62.877 15.945 60.992 16.351L60.656 15.539C61.642 15.346 62.347 15.205 63.176 14.994L63.176 12.56C61.979 13.107 60.41 13.654 58.93 14.095L58.576 13.318C61.256 12.615 63.283 11.82 65.256 10.535L59.141 10.535 59.141 9.74 66.702 9.74C66.438 9.439 66.138 9.176 65.839 8.912L66.491 8.383 66.456 8.383C66.19 8.383 65.839 8.365 65.487 8.313L65.344 7.485C65.821 7.573 66.172 7.608 66.473 7.608 67.02 7.608 67.108 7.555 67.108 7.061L67.108 6.338 64.2 6.338 64.2 9.141 63.389 9.141 63.389 6.338 60.78 6.338 60.78 8.594 59.969 8.594 59.969 5.58 63.389 5.58 63.389 4.576 58.719 4.576 58.719 3.801 59.6 3.801 59.246 3.5C60.287 2.391 60.814 1.475 61.256.434L61.979.717C61.856 1.016 61.573 1.545 61.415 1.809L63.39 1.809 63.39.223 64.201.223 64.201 1.809 67.937 1.809 67.937 2.549 64.201 2.549 64.201 3.801 68.818 3.801 68.818 4.576 64.201 4.576 64.201 5.58 67.92 5.58 67.92 7.113C67.92 8.259 67.461 8.383 66.492 8.383L67.779 9.74 74.14 9.74 74.14 10.533 67.619 10.533C68.043 11.431 68.607 12.224 69.312 12.912 70.421 12.348 71.197 11.891 72.466 11.043L72.958 11.731C71.761 12.524 71.038 12.895 69.909 13.46 71.091 14.429 72.624 15.011 74.616 15.628L74.156 16.438zM63.389 2.549L61.01 2.549C60.744 2.92 60.358 3.465 60.057 3.801L63.389 3.801 63.389 2.549zM69.697 6.762L69.697 1.227 70.508 1.227 70.508 6.762 69.697 6.762zM70.49 8.787L70.349 7.924C70.966 8.047 71.566 8.102 71.9 8.102 72.464 8.102 72.57 8.047 72.57 7.555L72.57.399 73.381.399 73.381 7.608C73.381 8.753 72.94 8.878 71.918 8.878 71.584 8.877 71.107 8.859 70.49 8.787zM93.707 15.732C92.525 15.82 91.293 15.855 90.006 15.855 86.834 15.855 84.684 15.591 83.502 15.185 82.568 14.851 81.529 14.269 80.772 13.511 80.225 14.409 79.643 15.238 78.745 16.171L78.11 15.571C80.102 13.493 81.247 11.184 81.671 9.526L79.38 9.526C79.257 9.721 79.15 9.862 78.991 10.073L78.303 9.544C79.52 7.94 80.242 6.655 80.948 5.263L78.005 5.263 78.005 4.452 82.198 4.452C81.405 6.196 80.93 7.147 79.889 8.751L82.709 8.751C82.375 10.231 81.828 11.624 81.211 12.823 81.934 13.475 82.867 13.985 83.695 14.321 84.736 14.69 86.781 14.938 90.006 14.938 91.293 14.938 92.613 14.868 93.83 14.778L93.707 15.732zM80.541 3.994C79.977 2.724 79.607 1.967 78.99.787L79.695.398C80.347 1.562 80.736 2.355 81.351 3.589L80.541 3.994zM82.832 6.656L82.832 5.828 87.803 5.828 87.803 3.394 85.176 3.394C84.754 4.117 84.348 4.751 83.856 5.333L83.151 4.786C84.19 3.534 85.018 2.073 85.53.663L86.288.962C86.095 1.544 85.882 2.073 85.618 2.583L87.804 2.583 87.804.187 88.65.187 88.65 2.583 92.246 2.583 92.246 3.394 88.65 3.394 88.65 5.828 93.603 5.828 93.603 6.656 82.832 6.656zM91.486 13.705L91.486 12.666 85.123 12.666 85.123 13.705 84.295 13.705 84.295 8.365 92.297 8.365 92.297 13.705 91.486 13.705zM91.486 9.176L85.123 9.176 85.123 11.856 91.486 11.856 91.486 9.176zM101.361 4.717L101.361 16.385 100.533 16.385 100.533 6.92C99.969 8.541 99.228 10.34 97.943 12.613L97.22 12.119C98.683 9.705 99.775 7.113 100.392 4.717L97.519 4.717 97.519 3.889 100.533 3.889 100.533.223 101.361.223 101.361 3.889 104.023 3.889 104.023 4.717 101.361 4.717zM103.301 10.303C102.684 8.948 102.225 8.012 101.608 6.815L102.296 6.444C102.948 7.643 103.46 8.63 104.077 9.899L103.301 10.303zM111.672 16.014C111.371 16.032 111.09 16.032 110.826 16.014 109.75 15.961 109.556 15.627 109.556 14.727L109.556 2.057 105.978 2.057 105.978 7.202C105.978 10.71 105.591 13.671 102.859 16.403L102.207 15.786C104.781 13.212 105.186 10.516 105.186 7.202L105.186 1.3 110.403 1.3 110.403 14.693C110.403 15.029 110.473 15.134 110.827 15.152 111.091 15.17 111.372 15.17 111.673 15.152 112.112 15.134 112.22 15.029 112.273 14.658 112.326 14.236 112.378 13.531 112.431 12.262L113.312 12.651C113.259 13.637 113.224 14.307 113.171 14.782 113.029 15.785 112.605 15.961 111.672 16.014z"/>
    </g>
    <g fill="#181818" fill-rule="nonzero" transform="translate(66 31)">
      <path d="M2.758 2.977C2.623 2.977 2.549 2.872 2.549 2.764 2.549 2.557 2.723 2.557 3 2.557 3.338 2.557 3.729 2.565 3.992 2.571 4.416 2.579 4.619 2.811 4.619 3.178 4.619 3.877 3.951 5.059 2.461 5.059 1.186 5.059.094 4.092.094 2.612.094 1.364.936.085 2.555.085 3.506.085 4.235.651 4.235.931 4.235 1.058 4.128 1.158 4.012 1.158 3.944 1.158 3.877 1.125 3.823 1.053 3.526.653 3.042.473 2.542.473 1.261.473.526 1.534.526 2.614.526 3.7 1.247 4.62 2.475 4.62 3.756 4.62 4.147 3.64 4.147 3.274 4.147 2.96 3.905 2.96 3.715 2.96 3.473 2.96 3.074 2.968 2.764 2.98L2.758 2.98 2.758 2.977zM9.938 4.998C9.85 5.004 9.452 5.004 9.055 5.004 8.662 5.004 8.266 5.004 8.178 4.998 7.584 4.951 7.293 4.684 7.274 4.252 7.26 3.971 7.26 3.49 7.26 2.965 7.26 2.17 7.268 1.291 7.28.871 7.294.437 7.563.178 8.063.15 8.192.142 8.569.136 8.94.136 9.317.136 9.682.142 9.784.15 9.925.156 9.999.25 9.999.343 9.999.436 9.919.531 9.77.531 9.735.531 9.094.523 8.616.523 7.934.523 7.72.523 7.686.929 7.672 1.089 7.678 1.65 7.672 2.044 7.672 2.169 7.738 2.169 7.807 2.169 7.942 2.177 8.286 2.177 8.629 2.177 8.972 2.177 9.324 2.177 9.459 2.169 9.668 2.163 9.688 2.315 9.688 2.362 9.688 2.464 9.608 2.569 9.459 2.569L9.445 2.569C9.236 2.555 8.857 2.555 8.507 2.555 7.671 2.555 7.663 2.555 7.663 2.69 7.663 3.715 7.663 4.03 7.684 4.19 7.709 4.444 7.852 4.59 8.209 4.616 8.324 4.624 8.695 4.624 9.064 4.624 9.443 4.624 9.82 4.624 9.941 4.616L9.962 4.616C10.097 4.616 10.171 4.704 10.171 4.798 10.174 4.891 10.1 4.992 9.938 4.998zM16.543 4.551C16.543 4.852 16.307 5.031 16.057 5.031 15.895 5.031 15.719 4.951 15.606 4.771 15.126 4.011 13.67 1.384 13.305.763 13.258.683 13.198.63 13.151.63 13.055.63 13.055.724 13.055 1.191 13.055 2.045 13.069 4.117 13.09 4.81L13.09 4.818C13.09 4.951 12.975 5.017 12.86 5.017 12.747 5.017 12.631 4.951 12.631 4.818L12.631 4.81C12.645 4.197 12.651 3.498 12.651 2.818 12.651 2.031 12.645 1.269 12.631.677L12.631.656C12.631.297 12.84.131 13.069.131 13.258.131 13.454.236 13.583.443 14.001 1.136 15.39 3.625 15.89 4.398 15.929 4.464 15.984 4.503 16.025 4.503 16.113 4.503 16.113 4.376 16.113 4.177 16.113 3.464 16.092.989 16.072.357L16.072.35C16.072.198 16.187.123 16.295.123 16.416.123 16.531.203 16.531.35L16.531.358C16.517.737 16.517 1.225 16.517 1.745 16.517 2.739 16.531 3.852 16.544 4.546L16.544 4.551 16.543 4.551zM22.158 4.998C22.07 5.004 21.672 5.004 21.275 5.004 20.882 5.004 20.486 5.004 20.398 4.998 19.804 4.951 19.513 4.684 19.494 4.252 19.48 3.971 19.48 3.49 19.48 2.965 19.48 2.17 19.488 1.291 19.5.871 19.514.437 19.783.178 20.283.15 20.412.142 20.789.136 21.16.136 21.537.136 21.902.142 22.004.15 22.145.156 22.219.25 22.219.343 22.219.436 22.139.531 21.99.531 21.955.531 21.314.523 20.836.523 20.154.523 19.94.523 19.906.929 19.892 1.089 19.898 1.65 19.892 2.044 19.892 2.169 19.958 2.169 20.027 2.169 20.162 2.177 20.506 2.177 20.849 2.177 21.192 2.177 21.544 2.177 21.679 2.169 21.888 2.163 21.908 2.315 21.908 2.362 21.908 2.464 21.828 2.569 21.679 2.569L21.665 2.569C21.456 2.555 21.077 2.555 20.727 2.555 19.891 2.555 19.883 2.555 19.883 2.69 19.883 3.715 19.883 4.03 19.904 4.19 19.929 4.444 20.072 4.59 20.429 4.616 20.544 4.624 20.915 4.624 21.284 4.624 21.663 4.624 22.04 4.624 22.161 4.616L22.182 4.616C22.317 4.616 22.391 4.704 22.391 4.798 22.395 4.891 22.32 4.992 22.158 4.998zM26.768 2.59C26.768 2.617 26.795 2.651 26.842 2.692 27.213 3.032 27.502 3.612 27.766 4.038 27.955 4.339 28.151 4.538 28.454 4.571 28.589 4.585 28.663 4.692 28.663 4.8 28.663 4.913 28.575 5.019 28.388 5.019 28.24 5.019 27.775 4.914 27.409 4.259 27.132 3.773 26.565 2.659 26.095 2.646 25.999 2.646 25.71 2.632 25.534 2.632 25.345 2.632 25.319 2.671 25.319 2.759 25.319 3.273 25.339 4.552 25.339 4.8 25.339 4.933 25.224 4.999 25.116 4.999 25.008 4.999 24.907 4.938 24.907 4.806 24.921 3.533 24.913 1.566 24.934.845 24.954.118 25.627.118 26.147.118 26.295.118 26.444.124 26.545.132 27.529.198 27.955.765 27.955 1.331 27.955 1.905 27.523 2.477 26.828 2.558 26.787 2.557 26.768 2.57 26.768 2.59zM26.498.471C26.404.463 26.256.457 26.1.457 25.602.457 25.366.551 25.338.93 25.324 1.098 25.332 1.778 25.324 2.178 25.324 2.278 25.426 2.291 25.978 2.291 26.195 2.291 26.416 2.283 26.544 2.277 27.171 2.23 27.528 1.777 27.528 1.338 27.529.918 27.213.51 26.498.471zM34.365 5.004C34.285 5.004 34.197 4.957 34.156 4.852 34.074 4.659 33.818 3.971 33.609 3.358 33.589 3.305 33.568 3.278 33.502 3.278 33.395 3.272 33.07 3.272 32.727 3.272 32.248 3.272 31.715 3.272 31.573 3.278 31.512 3.278 31.485 3.319 31.473 3.358 31.297 3.891 31.088 4.518 30.987 4.844 30.954 4.957 30.858 5.004 30.77 5.004 30.67 5.004 30.561 4.938 30.561 4.824 30.561 4.804 30.569 4.777 30.575 4.758 30.954 3.551 31.743 1.41 32.065.49 32.153.25 32.342.136 32.524.136 32.719.136 32.917.257 33.003.495 33.448 1.724 34.339 4.157 34.569 4.69 34.581 4.723 34.589 4.756 34.589 4.79 34.588 4.918 34.48 5.004 34.365 5.004zM33.422 2.811C33.211 2.184 32.779 1.038 32.672.704 32.639.604 32.592.558 32.537.558 32.484.558 32.43.611 32.389.718 32.248 1.099 31.647 2.812 31.647 2.864 31.647 2.891 31.668 2.905 31.721 2.905 31.856 2.905 32.221 2.911 32.571 2.911 32.928 2.911 33.274 2.905 33.374 2.905 33.423 2.905 33.435 2.891 33.435 2.872 33.435 2.853 33.428 2.83 33.422 2.811zM38.232 4.805C38.232 4.946 38.117 5.018 37.996 5.018 37.875 5.018 37.76 4.946 37.76 4.805L37.76 4.799C37.774 4.211 37.787 3.012 37.787 1.99 37.787 1.457 37.779.97 37.773.656 37.773.564 37.759.543 37.308.543 37.017.543 36.64.557 36.316.557 36.168.557 36.093.457 36.093.364 36.093.264 36.167.171 36.31.171L36.316.171C36.728.179 37.443.185 38.15.185 38.73.185 39.304.179 39.695.171L39.703.171C39.838.171 39.904.271 39.904.364 39.904.464 39.838.557 39.709.557L39.703.557C39.453.551 39.211.543 39 .543 38.678.543 38.428.551 38.326.557 38.265.557 38.219.571 38.219.657 38.211.977 38.205 1.411 38.205 1.886 38.205 2.925 38.225 4.159 38.232 4.8L38.232 4.805zM41.5 2.578C41.5 1.131 42.545.084 43.947.084 45.349.084 46.396 1.131 46.396 2.578 46.396 4.078 45.349 5.058 43.947 5.058 42.545 5.058 41.5 4.078 41.5 2.578zM45.957 2.578C45.957 1.305 45.061.457 43.947.457 42.833.457 41.937 1.305 41.937 2.578 41.937 3.844 42.833 4.678 43.947 4.678 45.061 4.678 45.957 3.844 45.957 2.578zM50.861 2.59C50.861 2.617 50.888 2.651 50.935 2.692 51.306 3.032 51.595 3.612 51.859 4.038 52.048 4.339 52.244 4.538 52.547 4.571 52.682 4.585 52.756 4.692 52.756 4.8 52.756 4.913 52.668 5.019 52.481 5.019 52.333 5.019 51.868 4.914 51.502 4.259 51.225 3.773 50.658 2.659 50.188 2.646 50.092 2.646 49.803 2.632 49.627 2.632 49.438 2.632 49.412 2.671 49.412 2.759 49.412 3.273 49.432 4.552 49.432 4.8 49.432 4.933 49.317 4.999 49.209 4.999 49.101 4.999 49 4.938 49 4.806 49.014 3.533 49.006 1.566 49.027.845 49.047.118 49.72.118 50.24.118 50.388.118 50.537.124 50.638.132 51.622.198 52.048.765 52.048 1.331 52.048 1.905 51.616 2.477 50.921 2.558 50.88 2.557 50.861 2.57 50.861 2.59zM50.591.471C50.497.463 50.349.457 50.193.457 49.695.457 49.459.551 49.431.93 49.417 1.098 49.425 1.778 49.417 2.178 49.417 2.278 49.519 2.291 50.071 2.291 50.288 2.291 50.509 2.283 50.637 2.277 51.264 2.23 51.621 1.777 51.621 1.338 51.622.918 51.306.51 50.591.471zM62.094 2.977C61.959 2.977 61.885 2.872 61.885 2.764 61.885 2.557 62.061 2.557 62.336 2.557 62.674 2.557 63.065 2.565 63.328 2.571 63.754 2.579 63.955 2.811 63.955 3.178 63.955 3.877 63.287 5.059 61.797 5.059 60.524 5.059 59.43 4.092 59.43 2.612 59.43 1.364 60.274.085 61.891.085 62.842.085 63.571.651 63.571.931 63.571 1.058 63.464 1.158 63.348 1.158 63.282 1.158 63.213 1.125 63.16 1.053 62.863.653 62.377.473 61.879.473 60.596.473 59.861 1.534 59.861 2.614 59.861 3.7 60.584 4.62 61.81 4.62 63.091 4.62 63.482 3.64 63.482 3.274 63.482 2.96 63.24 2.96 63.05 2.96 62.808 2.96 62.409 2.968 62.101 2.98L62.094 2.98 62.094 2.977zM69.273 4.998C69.185 5.004 68.787 5.004 68.39 5.004 67.997 5.004 67.601 5.004 67.513 4.998 66.919 4.951 66.628 4.684 66.609 4.252 66.595 3.971 66.595 3.49 66.595 2.965 66.595 2.17 66.603 1.291 66.615.871 66.629.437 66.898.178 67.398.15 67.527.142 67.904.136 68.275.136 68.652.136 69.017.142 69.119.15 69.26.156 69.334.25 69.334.343 69.334.436 69.254.531 69.105.531 69.07.531 68.429.523 67.951.523 67.269.523 67.055.523 67.021.929 67.007 1.089 67.013 1.65 67.007 2.044 67.007 2.169 67.073 2.169 67.142 2.169 67.277 2.177 67.621 2.177 67.964 2.177 68.307 2.177 68.659 2.177 68.794 2.169 69.003 2.163 69.023 2.315 69.023 2.362 69.023 2.464 68.943 2.569 68.794 2.569L68.78 2.569C68.571 2.555 68.192 2.555 67.842 2.555 67.006 2.555 66.998 2.555 66.998 2.69 66.998 3.715 66.998 4.03 67.019 4.19 67.044 4.444 67.187 4.59 67.544 4.616 67.659 4.624 68.03 4.624 68.399 4.624 68.778 4.624 69.155 4.624 69.276 4.616L69.297 4.616C69.432 4.616 69.506 4.704 69.506 4.798 69.51 4.891 69.436 4.992 69.273 4.998zM75.879 4.551C75.879 4.852 75.643 5.031 75.395 5.031 75.233 5.031 75.057 4.951 74.942 4.771 74.463 4.011 73.006 1.384 72.643.763 72.594.683 72.534.63 72.487.63 72.393.63 72.393.724 72.393 1.191 72.393 2.045 72.407 4.117 72.426 4.81L72.426 4.818C72.426 4.951 72.311 5.017 72.197 5.017 72.082 5.017 71.967 4.951 71.967 4.818L71.967 4.81C71.981 4.197 71.988 3.498 71.988 2.818 71.988 2.031 71.98 1.269 71.967.677L71.967.656C71.967.297 72.176.131 72.406.131 72.594.131 72.791.236 72.918.443 73.336 1.136 74.727 3.625 75.225 4.398 75.266 4.464 75.321 4.503 75.36 4.503 75.448 4.503 75.448 4.376 75.448 4.177 75.448 3.464 75.428.989 75.407.357L75.407.35C75.407.198 75.522.123 75.63.123 75.753.123 75.866.203 75.866.35L75.866.358C75.852.737 75.852 1.225 75.852 1.745 75.852 2.739 75.866 3.852 75.879 4.546L75.879 4.551zM81.494 4.998C81.406 5.004 81.008 5.004 80.611 5.004 80.218 5.004 79.822 5.004 79.734 4.998 79.14 4.951 78.849 4.684 78.83 4.252 78.816 3.971 78.816 3.49 78.816 2.965 78.816 2.17 78.824 1.291 78.836.871 78.85.437 79.119.178 79.619.15 79.748.142 80.125.136 80.496.136 80.873.136 81.238.142 81.34.15 81.481.156 81.555.25 81.555.343 81.555.436 81.475.531 81.326.531 81.291.531 80.65.523 80.172.523 79.49.523 79.276.523 79.242.929 79.228 1.089 79.234 1.65 79.228 2.044 79.228 2.169 79.294 2.169 79.363 2.169 79.498 2.177 79.842 2.177 80.185 2.177 80.528 2.177 80.88 2.177 81.015 2.169 81.224 2.163 81.244 2.315 81.244 2.362 81.244 2.464 81.164 2.569 81.015 2.569L81.001 2.569C80.792 2.555 80.413 2.555 80.063 2.555 79.227 2.555 79.219 2.555 79.219 2.69 79.219 3.715 79.219 4.03 79.24 4.19 79.265 4.444 79.408 4.59 79.765 4.616 79.88 4.624 80.251 4.624 80.62 4.624 80.999 4.624 81.376 4.624 81.497 4.616L81.518 4.616C81.653 4.616 81.727 4.704 81.727 4.798 81.73 4.891 81.656 4.992 81.494 4.998zM86.104 2.59C86.104 2.617 86.131 2.651 86.178 2.692 86.549 3.032 86.838 3.612 87.102 4.038 87.291 4.339 87.487 4.538 87.79 4.571 87.925 4.585 87.999 4.692 87.999 4.8 87.999 4.913 87.911 5.019 87.724 5.019 87.576 5.019 87.111 4.914 86.745 4.259 86.468 3.773 85.901 2.659 85.431 2.646 85.335 2.646 85.046 2.632 84.87 2.632 84.681 2.632 84.655 2.671 84.655 2.759 84.655 3.273 84.675 4.552 84.675 4.8 84.675 4.933 84.56 4.999 84.452 4.999 84.344 4.999 84.243 4.938 84.243 4.806 84.257 3.533 84.249 1.566 84.27.845 84.29.118 84.963.118 85.483.118 85.631.118 85.78.124 85.881.132 86.865.198 87.291.765 87.291 1.331 87.291 1.905 86.859 2.477 86.164 2.558 86.123 2.557 86.104 2.57 86.104 2.59zM85.834.471C85.74.463 85.592.457 85.436.457 84.938.457 84.702.551 84.674.93 84.66 1.098 84.668 1.778 84.66 2.178 84.66 2.278 84.762 2.291 85.314 2.291 85.531 2.291 85.752 2.283 85.88 2.277 86.507 2.23 86.864 1.777 86.864 1.338 86.865.918 86.549.51 85.834.471zM93.701 5.004C93.621 5.004 93.533 4.957 93.492 4.852 93.41 4.659 93.154 3.971 92.945 3.358 92.925 3.305 92.904 3.278 92.838 3.278 92.731 3.272 92.406 3.272 92.063 3.272 91.584 3.272 91.051 3.272 90.909 3.278 90.848 3.278 90.821 3.319 90.809 3.358 90.633 3.891 90.424 4.518 90.323 4.844 90.29 4.957 90.194 5.004 90.106 5.004 90.006 5.004 89.897 4.938 89.897 4.824 89.897 4.804 89.905 4.777 89.911 4.758 90.29 3.551 91.079 1.41 91.401.49 91.489.25 91.678.136 91.86.136 92.055.136 92.253.257 92.339.495 92.784 1.724 93.675 4.157 93.905 4.69 93.917 4.723 93.925 4.756 93.925 4.79 93.924 4.918 93.816 5.004 93.701 5.004zM92.758 2.811C92.547 2.184 92.115 1.038 92.008.704 91.975.604 91.928.558 91.873.558 91.82.558 91.766.611 91.725.718 91.584 1.099 90.983 2.812 90.983 2.864 90.983 2.891 91.004 2.905 91.057 2.905 91.192 2.905 91.557 2.911 91.907 2.911 92.264 2.911 92.61 2.905 92.71 2.905 92.759 2.905 92.771 2.891 92.771 2.872 92.771 2.853 92.764 2.83 92.758 2.811zM97.568 4.805C97.568 4.946 97.455 5.018 97.332 5.018 97.211 5.018 97.098 4.946 97.098 4.805L97.098 4.799C97.112 4.211 97.123 3.012 97.123 1.99 97.123 1.457 97.117.97 97.111.656 97.111.564 97.097.543 96.644.543 96.355.543 95.976.557 95.654.557 95.506.557 95.431.457 95.431.364 95.431.264 95.505.171 95.646.171L95.654.171C96.064.179 96.779.185 97.488.185 98.068.185 98.64.179 99.033.171L99.039.171C99.174.171 99.242.271 99.242.364 99.242.464 99.174.557 99.047.557L99.039.557C98.789.551 98.547.543 98.338.543 98.014.543 97.764.551 97.664.557 97.603.557 97.555.571 97.555.657 97.549.977 97.543 1.411 97.543 1.886 97.543 2.925 97.563 4.159 97.568 4.8L97.568 4.805zM100.7 2.578C100.7 1.131 101.745.084 103.149.084 104.551.084 105.596 1.131 105.596 2.578 105.596 4.078 104.551 5.058 103.149 5.058 101.745 5.059 100.7 4.078 100.7 2.578zM105.159 2.578C105.159 1.305 104.261.457 103.149.457 102.036.457 101.139 1.305 101.139 2.578 101.139 3.844 102.035 4.678 103.149 4.678 104.26 4.678 105.159 3.844 105.159 2.578zM109.863 2.59C109.863 2.617 109.888 2.651 109.937 2.692 110.306 3.032 110.597 3.612 110.861 4.038 111.049 4.339 111.244 4.538 111.549 4.571 111.684 4.585 111.758 4.692 111.758 4.8 111.758 4.913 111.67 5.019 111.481 5.019 111.333 5.019 110.868 4.914 110.504 4.259 110.227 3.773 109.66 2.659 109.188 2.646 109.094 2.646 108.803 2.632 108.629 2.632 108.44 2.632 108.412 2.671 108.412 2.759 108.412 3.273 108.432 4.552 108.432 4.8 108.432 4.933 108.319 4.999 108.211 4.999 108.102 4.999 108 4.938 108 4.806 108.014 3.533 108.008 1.566 108.027.845 108.048.118 108.722.118 109.242.118 109.39.118 109.539.124 109.64.132 110.624.198 111.048.765 111.048 1.331 111.048 1.905 110.616 2.477 109.923 2.558 109.883 2.557 109.863 2.57 109.863 2.59zM109.592.471C109.498.463 109.35.457 109.196.457 108.696.457 108.46.551 108.432.93 108.42 1.098 108.426 1.778 108.42 2.178 108.42 2.278 108.52 2.291 109.074 2.291 109.289 2.291 109.512 2.283 109.64 2.277 110.267 2.23 110.624 1.777 110.624 1.338 110.625.918 110.307.51 109.592.471z"/>
    </g>
  </g>
</svg>
