<svg xmlns="http://www.w3.org/2000/svg" xmlns:xlink="http://www.w3.org/1999/xlink" width="200" height="60" viewBox="0 0 200 60">
  <defs>
    <polygon id="logo-zh_hant-s-a" points="0 0 46.108 0 46.108 44.356 0 44.356"/>
  </defs>
  <g fill="none" fill-rule="evenodd" transform="translate(6 6)">
    <path fill="#FFFA9F" d="M37.620431,14.4409197 L36.1152024,15.8343774 C34.3256229,13.7681909 31.6329269,12.503115 28.5555453,12.503115 C23.0027902,12.503115 18.6877739,16.362898 18.6877739,22.0807289 C18.6877739,27.7984555 23.0027902,31.6584469 28.4551065,31.6584469 C33.8070882,31.6584469 37.2023351,28.4231844 37.5033392,23.2979089 L29.5756494,23.2979089 L29.5756494,21.4721388 L39.7111188,21.4721388 C39.744529,21.6802777 39.744529,21.8243818 39.744529,22.0005553 C39.744529,28.5832191 35.3959984,33.5322169 28.4551065,33.5322169 C22.2166616,33.5322169 16.5635718,29.2079479 16.5635718,22.0807289 C16.5635718,15.3378221 21.7483984,10.6129978 28.5555453,10.6129978 C32.2350392,10.6129978 35.47968,12.0545597 37.620431,14.4409197"/>
    <path stroke="#000" stroke-linecap="round" stroke-linejoin="round" stroke-width=".52" d="M37.1899483 13.988439C37.3378363 14.1352503 37.4812523 14.2860182 37.6200923 14.440951L37.1620763 14.865246M36.5735155 15.4099384L36.1152441 15.8328191C35.9788971 15.6759122 35.837242 15.5236751 35.6906951 15.3762117"/>
    <path stroke="#000" stroke-dasharray="1.261 1.261" stroke-linecap="round" stroke-linejoin="round" stroke-width=".52" d="M34.7444578,14.5423028 C33.0674945,13.2534872 30.9255986,12.5030837 28.5555557,12.5030837 C23.0026965,12.5030837 18.6876802,16.3628668 18.6876802,22.0806976 C18.6876802,27.7984243 23.0026965,31.6585197 28.4551169,31.6585197 C33.3590271,31.6585197 36.6202169,28.9421987 37.3633598,24.5445241"/>
    <path stroke="#000" stroke-linecap="round" stroke-linejoin="round" stroke-width=".52" d="M37.4505802,23.9204512 C37.4733741,23.716269 37.4909639,23.5086508 37.5033496,23.2979089 L36.8788598,23.2979089"/>
    <path stroke="#000" stroke-dasharray="1.335 1.335" stroke-linecap="round" stroke-linejoin="round" stroke-width=".52" d="M35.5430657,23.297961 L30.868031,23.297961"/>
    <polyline stroke="#000" stroke-linecap="round" stroke-linejoin="round" stroke-width=".52" points="30.2 23.298 29.576 23.298 29.576 22.673"/>
    <polyline stroke="#000" stroke-linecap="round" stroke-linejoin="round" stroke-width=".52" points="29.576 22.097 29.576 21.472 30.2 21.472"/>
    <path stroke="#000" stroke-dasharray="1.268 1.268" stroke-linecap="round" stroke-linejoin="round" stroke-width=".52" d="M31.4696541,21.4721701 L38.4518663,21.4721701"/>
    <path stroke="#000" stroke-linecap="round" stroke-linejoin="round" stroke-width=".52" d="M39.0866186,21.4721701 L39.7111084,21.4721701 C39.7445186,21.6803089 39.7445186,21.824413 39.7445186,22.0005866 C39.7445186,22.0322395 39.7444145,22.0637883 39.7442063,22.0953371"/>
    <path stroke="#000" stroke-dasharray="1.265 1.265" stroke-linecap="round" stroke-linejoin="round" stroke-width=".52" d="M39.6810184,23.359528 C39.1222041,29.2526993 34.9095,33.5323002 28.4551898,33.5323002 C22.2166408,33.5323002 16.5636551,29.2079271 16.5636551,22.080708 C16.5636551,15.3378013 21.7483776,10.6130811 28.5555245,10.6130811 C31.7549939,10.6130811 34.6255653,11.7029206 36.7274939,13.5561787"/>
    <path stroke="#000" stroke-dasharray="1.248" stroke-linecap="round" stroke-linejoin="round" stroke-width=".52" d="M50.9479592 39.7198646C50.9479592 42.1618256 48.8894327 44.141279 46.3499449 44.141279L9.7500551 44.141279C7.21067143 44.141279 5.15204082 42.1618256 5.15204082 39.7198646L5.15204082 4.52545249C5.15204082 2.08359566 7.21067143.104038178 9.7500551.104038178L46.3499449.104038178C48.8894327.104038178 50.9479592 2.08359566 50.9479592 4.52545249L50.9479592 39.7198646zM44.6660602 26.3254178L50.9479071 22.919292M.358238571 25.5185701L5.15203041 22.9192816M9.15400041 46.9421779L15.5798963 44.2704208M29.5071429 47.1423931L35.9330388 44.1412998M29.5071429 47.1423931L35.9330388 44.1412998M11.271052 3.72250933L19.80075.175923644M32.1490261 3.72901692L39.7410527.18336833"/>
    <path fill="#303030" d="M32.9887984,17.7249215 L31.4835698,19.1183792 C29.6939902,17.0521926 27.0012943,15.7870126 23.9239127,15.7870126 C18.3711576,15.7870126 14.0561412,19.6468998 14.0561412,25.3647306 C14.0561412,31.0824573 18.3711576,34.9303705 23.8234739,34.9303705 C29.1754555,34.9303705 32.5707024,31.6619974 32.8717065,26.5576503 L24.9275718,26.5576503 L24.9275718,24.7561406 L35.0794861,24.7561406 C35.1128963,24.9642794 35.1128963,25.1083835 35.1128963,25.284557 C35.1128963,31.8672208 30.7643657,36.8162187 23.8234739,36.8162187 C17.585029,36.8162187 11.9320433,32.4919497 11.9320433,25.3647306 C11.9320433,18.6218239 17.1167657,13.8969996 23.9239127,13.8969996 C27.6034065,13.8969996 30.8480473,15.3385614 32.9887984,17.7249215"/>
    <g transform="translate(0 3.582)">
      <mask id="logo-zh_hant-s-b" fill="#fff">
        <use xlink:href="#logo-zh_hant-s-a"/>
      </mask>
      <path fill="#303030" d="M40.8355751,42.6898048 L5.27254653,42.6898048 C3.28354653,42.6898048 1.66528531,41.1851453 1.66528531,39.2734751 L1.66528531,5.07633839 C1.66528531,3.16477223 3.28354653,1.56182213 5.27254653,1.56182213 L40.8355751,1.56182213 C42.8245751,1.56182213 44.4428363,3.16477223 44.4428363,5.07633839 L44.4428363,39.2734751 C44.4428363,41.1851453 42.8245751,42.6898048 40.8355751,42.6898048 M40.7900914,0 L5.3180302,0 C2.38563429,0 -2.08163265e-05,2.29910629 -2.08163265e-05,5.11996529 L-2.08163265e-05,39.2299523 C-2.08163265e-05,42.0507072 2.38563429,44.3557484 5.3180302,44.3557484 L40.7900914,44.3557484 C43.7224873,44.3557484 46.1081424,42.0507072 46.1081424,39.2299523 L46.1081424,5.11996529 C46.1081424,2.29910629 43.7224873,0 40.7900914,0" mask="url(#logo-zh_hant-s-b)"/>
    </g>
    <g fill="#181818" fill-rule="nonzero" transform="translate(65 10)">
      <path d="M2.562 7.736L2.562 11.296C2.562 13.341 2.033 14.997.747 16.69L.024 16.213C1.293 14.434 1.751 13.111 1.751 11.12L1.751 6.943 15.903 6.943 15.903 7.736 2.562 7.736zM12.466 6.819C11.197 6.203 9.963 5.71 8.677 5.215 7.002 5.85 5.328 6.361 3.583 6.713L3.337 5.92C4.888 5.585 6.368 5.268 7.637 4.845 6.491 4.44 5.188 4.017 3.918 3.647L4.288 2.924C5.928 3.4 7.337 3.876 8.729 4.369 9.998 3.876 11.108 3.294 12.095 2.713L.957 2.713.957 1.955 7.777 1.955C7.654 1.813 7.566 1.673 7.443 1.531 7.284 1.338 7.126 1.178 6.914.968L7.531.404C8.077.968 8.359 1.409 8.835 1.956L15.145 1.956 15.145 2.714 12.096 2.714 12.642 3.277C11.796 3.859 10.845 4.299 9.717 4.775 10.845 5.215 11.955 5.621 13.012 6.115L12.466 6.819zM2.808 16.195L2.808 15.35 9.03 15.35 9.03 13.147 5.329 13.147 5.329 12.319 9.03 12.319 9.03 10.592 5.276 10.592C4.836 11.578 4.324 12.513 3.619 13.376L2.932 12.883C4.113 11.35 4.818 9.94 5.364 8.177L6.122 8.477C5.981 8.953 5.787 9.358 5.629 9.763L9.03 9.763 9.03 8.036 9.928 8.036 9.928 9.763 14.792 9.763 14.792 10.592 9.928 10.592 9.928 12.319 14.194 12.319 14.194 13.147 9.928 13.147 9.928 15.35 16.115 15.35 16.115 16.196 2.808 16.196 2.808 16.195zM19.769 15.649L19.769 14.751 27.17 14.751 27.17 9.922 22.06 9.922 22.06 9.04 27.17 9.04 27.17 5.093 22.817 5.093C22.094 6.521 21.337 7.877 20.279 9.305L19.521 8.777C21.442 6.151 22.57 3.736 23.557 1.057L24.35 1.41C24.015 2.397 23.61 3.313 23.187 4.213L27.169 4.213 27.169.494 28.068.494 28.068 4.213 33.99 4.213 33.99 5.094 28.068 5.094 28.068 9.041 33.32 9.041 33.32 9.923 28.068 9.923 28.068 14.752 35.329 14.752 35.329 15.65 19.769 15.65 19.769 15.649zM54.582 11.966C53.894 11.701 53.207 11.42 52.731 11.155L52.731 16.619 51.938 16.619 51.938 15.772 48.413 15.772 48.413 16.619 47.602 16.619 47.602 10.573 51.621 10.573C50.352 9.815 49.277 9.129 48.484 8.336L45.258 8.336C44.183 9.322 43.196 9.957 42.069 10.573L46.263 10.573 46.263 16.619 45.435 16.619 45.435 15.772 41.962 15.772 41.962 16.619 41.169 16.619 41.169 11.05C40.588 11.35 39.9 11.631 39.248 11.896L38.86 11.156C41.133 10.204 42.561 9.57 44.13 8.337L39.406 8.337 39.406 7.56 44.923 7.56C45.611 6.856 46.228 6.009 46.809 5.111L47.479 5.534C47.003 6.309 46.474 6.979 45.963 7.56L54.546 7.56 54.546 8.336 49.558 8.336C51.25 9.552 52.608 10.31 54.969 11.155L54.582 11.966zM40.835 5.763L40.835 1.374 46.034 1.374 46.034 5.763 40.835 5.763zM45.224 2.149L41.646 2.149 41.646 4.987 45.224 4.987 45.224 2.149zM45.436 11.367L41.963 11.367 41.963 15.014 45.436 15.014 45.436 11.367zM47.779 5.763L47.779 1.374 53.119 1.374 53.119 5.763 47.779 5.763zM51.938 11.367L48.413 11.367 48.413 15.014 51.938 15.014 51.938 11.367zM52.309 2.149L48.59 2.149 48.59 4.987 52.309 4.987 52.309 2.149zM51.321 7.489C50.475 7.084 49.841 6.819 49.118 6.52L49.418 5.868C50.264 6.185 50.723 6.361 51.621 6.749L51.321 7.489zM73.887 16.707C70.503 15.772 67.948 13.922 66.485 10.803L66.097 10.803C65.462 11.314 64.669 11.843 63.7 12.389L63.7 15.068C64.899 14.769 65.886 14.487 67.085 14.117L67.243 14.928C64.758 15.651 62.608 16.214 60.722 16.62L60.387 15.808C61.373 15.615 62.078 15.473 62.907 15.262L62.907 12.829C61.709 13.376 60.14 13.922 58.66 14.363L58.307 13.587C60.986 12.883 63.013 12.09 64.987 10.803L58.872 10.803 58.872 10.01 66.433 10.01C66.168 9.71 65.869 9.446 65.569 9.182L66.221 8.653 66.186 8.653C65.921 8.653 65.569 8.635 65.217 8.583L65.075 7.755C65.551 7.843 65.903 7.878 66.203 7.878 66.75 7.878 66.838 7.825 66.838 7.332L66.838 6.609 63.93 6.609 63.93 9.411 63.119 9.411 63.119 6.609 60.511 6.609 60.511 8.865 59.7 8.865 59.7 5.851 63.119 5.851 63.119 4.846 58.449 4.846 58.449 4.07 59.33 4.07 58.977 3.77C60.017 2.66 60.545 1.744 60.986.704L61.709.986C61.586 1.286 61.304 1.814 61.146 2.079L63.12 2.079 63.12.493 63.931.493 63.931 2.079 67.667 2.079 67.667 2.819 63.931 2.819 63.931 4.07 68.548 4.07 68.548 4.845 63.931 4.845 63.931 5.85 67.65 5.85 67.65 7.383C67.65 8.529 67.192 8.652 66.222 8.652L67.509 10.009 73.871 10.009 73.871 10.802 67.35 10.802C67.773 11.7 68.337 12.494 69.042 13.181 70.152 12.618 70.928 12.16 72.196 11.313L72.689 12.001C71.491 12.794 70.768 13.164 69.64 13.729 70.821 14.698 72.355 15.28 74.346 15.897L73.887 16.707zM63.118 2.819L60.739 2.819C60.474 3.189 60.087 3.735 59.787 4.07L63.118 4.07 63.118 2.819zM69.428 7.031L69.428 1.497 70.239 1.497 70.239 7.031 69.428 7.031zM70.221 9.058L70.079 8.195C70.696 8.318 71.296 8.372 71.631 8.372 72.194 8.372 72.3 8.318 72.3 7.825L72.3.67 73.112.67 73.112 7.878C73.112 9.024 72.671 9.148 71.649 9.148 71.313 9.146 70.837 9.129 70.221 9.058zM93.437 16.002C92.256 16.09 91.023 16.125 89.736 16.125 86.564 16.125 84.414 15.861 83.233 15.455 82.298 15.121 81.259 14.539 80.502 13.781 79.955 14.679 79.374 15.509 78.475 16.442L77.841 15.842C79.832 13.763 80.978 11.454 81.401 9.797L79.11 9.797C78.987 9.991 78.881 10.132 78.722 10.344L78.034 9.815C79.25 8.211 79.972 6.925 80.678 5.533L77.735 5.533 77.735 4.722 81.929 4.722C81.136 6.467 80.66 7.418 79.62 9.022L82.44 9.022C82.105 10.502 81.558 11.895 80.942 13.093 81.665 13.745 82.598 14.256 83.426 14.591 84.466 14.961 86.511 15.208 89.736 15.208 91.023 15.208 92.344 15.138 93.56 15.049L93.437 16.002zM80.271 4.265C79.707 2.995 79.337 2.238 78.72 1.057L79.425.669C80.076 1.832 80.465 2.625 81.081 3.859L80.271 4.265zM82.562 6.926L82.562 6.098 87.532 6.098 87.532 3.665 84.906 3.665C84.483 4.388 84.078 5.022 83.585 5.603L82.88 5.057C83.92 3.805 84.748 2.343 85.259.933L86.017 1.233C85.824 1.814 85.612 2.343 85.348 2.854L87.533 2.854 87.533.458 88.38.458 88.38 2.854 91.975 2.854 91.975 3.665 88.38 3.665 88.38 6.098 93.332 6.098 93.332 6.926 82.562 6.926zM91.216 13.976L91.216 12.936 84.854 12.936 84.854 13.976 84.026 13.976 84.026 8.635 92.027 8.635 92.027 13.976 91.216 13.976zM91.216 9.445L84.854 9.445 84.854 12.125 91.216 12.125 91.216 9.445zM100.192 5.022L100.192 16.671 99.381 16.671 99.381 7.488C98.905 9.48 98.377 11.119 97.619 12.828L96.914 12.405C97.848 10.202 98.817 7.365 99.24 5.021L97.142 5.021 97.142 4.21 99.38 4.21 99.38.526 100.191.526 100.191 4.21 101.724 4.21 101.724 5.021 100.192 5.021 100.192 5.022zM101.427 9.499C101.092 8.3 100.88 7.578 100.51 6.503L101.215 6.221C101.62 7.349 101.885 8.142 102.237 9.217L101.427 9.499zM112.864 15.614C112.706 16.177 112.424 16.46 111.93 16.46 111.101 16.46 110.027 15.702 109.039 14.064 107.77 14.927 106.36 15.685 104.527 16.408L104.157 15.685C105.902 15.05 107.383 14.257 108.669 13.359 108.281 12.601 107.946 11.702 107.647 10.628L104.581 10.628C104.528 10.962 104.476 11.297 104.405 11.632 105.303 12.196 105.938 12.602 106.925 13.36L106.397 14.03C105.534 13.307 104.934 12.867 104.211 12.373 103.771 13.906 102.96 15.264 101.532 16.479L100.95 15.898C102.801 14.365 103.523 12.602 103.823 10.628L101.409 10.628 101.409 9.888 103.929 9.888C103.982 9.518 104 9.148 104.018 8.706L104.776 8.706C104.758 9.147 104.741 9.518 104.687 9.888L107.455 9.888C106.891 7.508 106.538 4.494 106.662.53L107.437.53C107.348 4.565 107.701 7.615 108.318 9.888L110.486 9.888C110.186 9.465 109.957 9.165 109.622 8.742L110.31 8.301C110.733 8.865 110.998 9.236 111.438 9.888L113.078 9.888 113.078 10.628 108.495 10.628C108.76 11.526 109.042 12.249 109.342 12.884 110.1 12.302 110.751 11.632 111.368 10.998L111.985 11.526C111.227 12.284 110.522 12.954 109.729 13.57 110.504 14.91 111.297 15.492 111.773 15.492 112.196 15.492 112.302 14.857 112.355 12.584L113.201 12.901C113.148 13.552 113.113 14.082 113.06 14.522 113.005 14.962 112.952 15.314 112.864 15.614zM106.149 8.987C105.991 8.582 105.885 8.282 105.761 8.001 104.792 8.23 103.735 8.371 102.307 8.459L102.149 7.701C102.342 7.701 102.484 7.701 102.625 7.683 103.383 6.696 103.964 5.832 104.511 4.969 103.823 5.092 102.907 5.198 102.115 5.25L101.956 4.545C102.168 4.545 102.344 4.527 102.538 4.51 103.296 3.241 103.859 2.149 104.441.756L105.164 1.056C104.6 2.254 103.982 3.435 103.401 4.422 103.947 4.369 104.476 4.299 104.952 4.211 105.234 3.734 105.516 3.224 105.815 2.677L106.485 2.994C105.516 4.757 104.687 6.132 103.559 7.612 104.334 7.541 104.969 7.435 105.48 7.312 105.357 7.03 105.251 6.748 105.057 6.342L105.692 6.007C106.203 7.135 106.45 7.664 106.873 8.651L106.149 8.987zM112.529 9.094C112.229 8.547 112.071 8.177 111.877 7.842 110.838 8.071 109.763 8.212 108.282 8.265L108.141 7.56 108.634 7.56C109.322 6.644 109.885 5.798 110.397 4.899 109.745 5.023 108.757 5.111 107.824 5.164L107.647 4.459C107.876 4.459 108.052 4.441 108.247 4.441 109.022 3.172 109.64 1.974 110.185.687L110.908 1.004C110.361 2.202 109.745 3.383 109.11 4.37 109.674 4.317 110.256 4.265 110.82 4.176 111.084 3.683 111.348 3.102 111.648 2.485L112.318 2.855C111.348 4.758 110.555 6.186 109.515 7.507 110.343 7.454 111.048 7.349 111.525 7.226 111.383 6.961 111.208 6.697 110.978 6.291L111.63 5.956C112.246 6.943 112.564 7.507 113.216 8.67L112.529 9.094z"/>
    </g>
    <g fill="#181818" fill-rule="nonzero" transform="translate(66 31)">
      <path d="M2.758 2.977C2.623 2.977 2.549 2.872 2.549 2.764 2.549 2.557 2.723 2.557 3 2.557 3.338 2.557 3.729 2.565 3.992 2.571 4.416 2.579 4.619 2.811 4.619 3.178 4.619 3.877 3.951 5.059 2.461 5.059 1.186 5.059.094 4.092.094 2.612.094 1.364.936.085 2.555.085 3.506.085 4.235.651 4.235.931 4.235 1.058 4.128 1.158 4.012 1.158 3.944 1.158 3.877 1.125 3.823 1.053 3.526.653 3.042.473 2.542.473 1.261.473.526 1.534.526 2.614.526 3.7 1.247 4.62 2.475 4.62 3.756 4.62 4.147 3.64 4.147 3.274 4.147 2.96 3.905 2.96 3.715 2.96 3.473 2.96 3.074 2.968 2.764 2.98L2.758 2.98 2.758 2.977zM9.938 4.998C9.85 5.004 9.452 5.004 9.055 5.004 8.662 5.004 8.266 5.004 8.178 4.998 7.584 4.951 7.293 4.684 7.274 4.252 7.26 3.971 7.26 3.49 7.26 2.965 7.26 2.17 7.268 1.291 7.28.871 7.294.437 7.563.178 8.063.15 8.192.142 8.569.136 8.94.136 9.317.136 9.682.142 9.784.15 9.925.156 9.999.25 9.999.343 9.999.436 9.919.531 9.77.531 9.735.531 9.094.523 8.616.523 7.934.523 7.72.523 7.686.929 7.672 1.089 7.678 1.65 7.672 2.044 7.672 2.169 7.738 2.169 7.807 2.169 7.942 2.177 8.286 2.177 8.629 2.177 8.972 2.177 9.324 2.177 9.459 2.169 9.668 2.163 9.688 2.315 9.688 2.362 9.688 2.464 9.608 2.569 9.459 2.569L9.445 2.569C9.236 2.555 8.857 2.555 8.507 2.555 7.671 2.555 7.663 2.555 7.663 2.69 7.663 3.715 7.663 4.03 7.684 4.19 7.709 4.444 7.852 4.59 8.209 4.616 8.324 4.624 8.695 4.624 9.064 4.624 9.443 4.624 9.82 4.624 9.941 4.616L9.962 4.616C10.097 4.616 10.171 4.704 10.171 4.798 10.174 4.891 10.1 4.992 9.938 4.998zM16.543 4.551C16.543 4.852 16.307 5.031 16.057 5.031 15.895 5.031 15.719 4.951 15.606 4.771 15.126 4.011 13.67 1.384 13.305.763 13.258.683 13.198.63 13.151.63 13.055.63 13.055.724 13.055 1.191 13.055 2.045 13.069 4.117 13.09 4.81L13.09 4.818C13.09 4.951 12.975 5.017 12.86 5.017 12.747 5.017 12.631 4.951 12.631 4.818L12.631 4.81C12.645 4.197 12.651 3.498 12.651 2.818 12.651 2.031 12.645 1.269 12.631.677L12.631.656C12.631.297 12.84.131 13.069.131 13.258.131 13.454.236 13.583.443 14.001 1.136 15.39 3.625 15.89 4.398 15.929 4.464 15.984 4.503 16.025 4.503 16.113 4.503 16.113 4.376 16.113 4.177 16.113 3.464 16.092.989 16.072.357L16.072.35C16.072.198 16.187.123 16.295.123 16.416.123 16.531.203 16.531.35L16.531.358C16.517.737 16.517 1.225 16.517 1.745 16.517 2.739 16.531 3.852 16.544 4.546L16.544 4.551 16.543 4.551zM22.158 4.998C22.07 5.004 21.672 5.004 21.275 5.004 20.882 5.004 20.486 5.004 20.398 4.998 19.804 4.951 19.513 4.684 19.494 4.252 19.48 3.971 19.48 3.49 19.48 2.965 19.48 2.17 19.488 1.291 19.5.871 19.514.437 19.783.178 20.283.15 20.412.142 20.789.136 21.16.136 21.537.136 21.902.142 22.004.15 22.145.156 22.219.25 22.219.343 22.219.436 22.139.531 21.99.531 21.955.531 21.314.523 20.836.523 20.154.523 19.94.523 19.906.929 19.892 1.089 19.898 1.65 19.892 2.044 19.892 2.169 19.958 2.169 20.027 2.169 20.162 2.177 20.506 2.177 20.849 2.177 21.192 2.177 21.544 2.177 21.679 2.169 21.888 2.163 21.908 2.315 21.908 2.362 21.908 2.464 21.828 2.569 21.679 2.569L21.665 2.569C21.456 2.555 21.077 2.555 20.727 2.555 19.891 2.555 19.883 2.555 19.883 2.69 19.883 3.715 19.883 4.03 19.904 4.19 19.929 4.444 20.072 4.59 20.429 4.616 20.544 4.624 20.915 4.624 21.284 4.624 21.663 4.624 22.04 4.624 22.161 4.616L22.182 4.616C22.317 4.616 22.391 4.704 22.391 4.798 22.395 4.891 22.32 4.992 22.158 4.998zM26.768 2.59C26.768 2.617 26.795 2.651 26.842 2.692 27.213 3.032 27.502 3.612 27.766 4.038 27.955 4.339 28.151 4.538 28.454 4.571 28.589 4.585 28.663 4.692 28.663 4.8 28.663 4.913 28.575 5.019 28.388 5.019 28.24 5.019 27.775 4.914 27.409 4.259 27.132 3.773 26.565 2.659 26.095 2.646 25.999 2.646 25.71 2.632 25.534 2.632 25.345 2.632 25.319 2.671 25.319 2.759 25.319 3.273 25.339 4.552 25.339 4.8 25.339 4.933 25.224 4.999 25.116 4.999 25.008 4.999 24.907 4.938 24.907 4.806 24.921 3.533 24.913 1.566 24.934.845 24.954.118 25.627.118 26.147.118 26.295.118 26.444.124 26.545.132 27.529.198 27.955.765 27.955 1.331 27.955 1.905 27.523 2.477 26.828 2.558 26.787 2.557 26.768 2.57 26.768 2.59zM26.498.471C26.404.463 26.256.457 26.1.457 25.602.457 25.366.551 25.338.93 25.324 1.098 25.332 1.778 25.324 2.178 25.324 2.278 25.426 2.291 25.978 2.291 26.195 2.291 26.416 2.283 26.544 2.277 27.171 2.23 27.528 1.777 27.528 1.338 27.529.918 27.213.51 26.498.471zM34.365 5.004C34.285 5.004 34.197 4.957 34.156 4.852 34.074 4.659 33.818 3.971 33.609 3.358 33.589 3.305 33.568 3.278 33.502 3.278 33.395 3.272 33.07 3.272 32.727 3.272 32.248 3.272 31.715 3.272 31.573 3.278 31.512 3.278 31.485 3.319 31.473 3.358 31.297 3.891 31.088 4.518 30.987 4.844 30.954 4.957 30.858 5.004 30.77 5.004 30.67 5.004 30.561 4.938 30.561 4.824 30.561 4.804 30.569 4.777 30.575 4.758 30.954 3.551 31.743 1.41 32.065.49 32.153.25 32.342.136 32.524.136 32.719.136 32.917.257 33.003.495 33.448 1.724 34.339 4.157 34.569 4.69 34.581 4.723 34.589 4.756 34.589 4.79 34.588 4.918 34.48 5.004 34.365 5.004zM33.422 2.811C33.211 2.184 32.779 1.038 32.672.704 32.639.604 32.592.558 32.537.558 32.484.558 32.43.611 32.389.718 32.248 1.099 31.647 2.812 31.647 2.864 31.647 2.891 31.668 2.905 31.721 2.905 31.856 2.905 32.221 2.911 32.571 2.911 32.928 2.911 33.274 2.905 33.374 2.905 33.423 2.905 33.435 2.891 33.435 2.872 33.435 2.853 33.428 2.83 33.422 2.811zM38.232 4.805C38.232 4.946 38.117 5.018 37.996 5.018 37.875 5.018 37.76 4.946 37.76 4.805L37.76 4.799C37.774 4.211 37.787 3.012 37.787 1.99 37.787 1.457 37.779.97 37.773.656 37.773.564 37.759.543 37.308.543 37.017.543 36.64.557 36.316.557 36.168.557 36.093.457 36.093.364 36.093.264 36.167.171 36.31.171L36.316.171C36.728.179 37.443.185 38.15.185 38.73.185 39.304.179 39.695.171L39.703.171C39.838.171 39.904.271 39.904.364 39.904.464 39.838.557 39.709.557L39.703.557C39.453.551 39.211.543 39 .543 38.678.543 38.428.551 38.326.557 38.265.557 38.219.571 38.219.657 38.211.977 38.205 1.411 38.205 1.886 38.205 2.925 38.225 4.159 38.232 4.8L38.232 4.805zM41.5 2.578C41.5 1.131 42.545.084 43.947.084 45.349.084 46.396 1.131 46.396 2.578 46.396 4.078 45.349 5.058 43.947 5.058 42.545 5.058 41.5 4.078 41.5 2.578zM45.957 2.578C45.957 1.305 45.061.457 43.947.457 42.833.457 41.937 1.305 41.937 2.578 41.937 3.844 42.833 4.678 43.947 4.678 45.061 4.678 45.957 3.844 45.957 2.578zM50.861 2.59C50.861 2.617 50.888 2.651 50.935 2.692 51.306 3.032 51.595 3.612 51.859 4.038 52.048 4.339 52.244 4.538 52.547 4.571 52.682 4.585 52.756 4.692 52.756 4.8 52.756 4.913 52.668 5.019 52.481 5.019 52.333 5.019 51.868 4.914 51.502 4.259 51.225 3.773 50.658 2.659 50.188 2.646 50.092 2.646 49.803 2.632 49.627 2.632 49.438 2.632 49.412 2.671 49.412 2.759 49.412 3.273 49.432 4.552 49.432 4.8 49.432 4.933 49.317 4.999 49.209 4.999 49.101 4.999 49 4.938 49 4.806 49.014 3.533 49.006 1.566 49.027.845 49.047.118 49.72.118 50.24.118 50.388.118 50.537.124 50.638.132 51.622.198 52.048.765 52.048 1.331 52.048 1.905 51.616 2.477 50.921 2.558 50.88 2.557 50.861 2.57 50.861 2.59zM50.591.471C50.497.463 50.349.457 50.193.457 49.695.457 49.459.551 49.431.93 49.417 1.098 49.425 1.778 49.417 2.178 49.417 2.278 49.519 2.291 50.071 2.291 50.288 2.291 50.509 2.283 50.637 2.277 51.264 2.23 51.621 1.777 51.621 1.338 51.622.918 51.306.51 50.591.471zM62.094 2.977C61.959 2.977 61.885 2.872 61.885 2.764 61.885 2.557 62.061 2.557 62.336 2.557 62.674 2.557 63.065 2.565 63.328 2.571 63.754 2.579 63.955 2.811 63.955 3.178 63.955 3.877 63.287 5.059 61.797 5.059 60.524 5.059 59.43 4.092 59.43 2.612 59.43 1.364 60.274.085 61.891.085 62.842.085 63.571.651 63.571.931 63.571 1.058 63.464 1.158 63.348 1.158 63.282 1.158 63.213 1.125 63.16 1.053 62.863.653 62.377.473 61.879.473 60.596.473 59.861 1.534 59.861 2.614 59.861 3.7 60.584 4.62 61.81 4.62 63.091 4.62 63.482 3.64 63.482 3.274 63.482 2.96 63.24 2.96 63.05 2.96 62.808 2.96 62.409 2.968 62.101 2.98L62.094 2.98 62.094 2.977zM69.273 4.998C69.185 5.004 68.787 5.004 68.39 5.004 67.997 5.004 67.601 5.004 67.513 4.998 66.919 4.951 66.628 4.684 66.609 4.252 66.595 3.971 66.595 3.49 66.595 2.965 66.595 2.17 66.603 1.291 66.615.871 66.629.437 66.898.178 67.398.15 67.527.142 67.904.136 68.275.136 68.652.136 69.017.142 69.119.15 69.26.156 69.334.25 69.334.343 69.334.436 69.254.531 69.105.531 69.07.531 68.429.523 67.951.523 67.269.523 67.055.523 67.021.929 67.007 1.089 67.013 1.65 67.007 2.044 67.007 2.169 67.073 2.169 67.142 2.169 67.277 2.177 67.621 2.177 67.964 2.177 68.307 2.177 68.659 2.177 68.794 2.169 69.003 2.163 69.023 2.315 69.023 2.362 69.023 2.464 68.943 2.569 68.794 2.569L68.78 2.569C68.571 2.555 68.192 2.555 67.842 2.555 67.006 2.555 66.998 2.555 66.998 2.69 66.998 3.715 66.998 4.03 67.019 4.19 67.044 4.444 67.187 4.59 67.544 4.616 67.659 4.624 68.03 4.624 68.399 4.624 68.778 4.624 69.155 4.624 69.276 4.616L69.297 4.616C69.432 4.616 69.506 4.704 69.506 4.798 69.51 4.891 69.436 4.992 69.273 4.998zM75.879 4.551C75.879 4.852 75.643 5.031 75.395 5.031 75.233 5.031 75.057 4.951 74.942 4.771 74.463 4.011 73.006 1.384 72.643.763 72.594.683 72.534.63 72.487.63 72.393.63 72.393.724 72.393 1.191 72.393 2.045 72.407 4.117 72.426 4.81L72.426 4.818C72.426 4.951 72.311 5.017 72.197 5.017 72.082 5.017 71.967 4.951 71.967 4.818L71.967 4.81C71.981 4.197 71.988 3.498 71.988 2.818 71.988 2.031 71.98 1.269 71.967.677L71.967.656C71.967.297 72.176.131 72.406.131 72.594.131 72.791.236 72.918.443 73.336 1.136 74.727 3.625 75.225 4.398 75.266 4.464 75.321 4.503 75.36 4.503 75.448 4.503 75.448 4.376 75.448 4.177 75.448 3.464 75.428.989 75.407.357L75.407.35C75.407.198 75.522.123 75.63.123 75.753.123 75.866.203 75.866.35L75.866.358C75.852.737 75.852 1.225 75.852 1.745 75.852 2.739 75.866 3.852 75.879 4.546L75.879 4.551zM81.494 4.998C81.406 5.004 81.008 5.004 80.611 5.004 80.218 5.004 79.822 5.004 79.734 4.998 79.14 4.951 78.849 4.684 78.83 4.252 78.816 3.971 78.816 3.49 78.816 2.965 78.816 2.17 78.824 1.291 78.836.871 78.85.437 79.119.178 79.619.15 79.748.142 80.125.136 80.496.136 80.873.136 81.238.142 81.34.15 81.481.156 81.555.25 81.555.343 81.555.436 81.475.531 81.326.531 81.291.531 80.65.523 80.172.523 79.49.523 79.276.523 79.242.929 79.228 1.089 79.234 1.65 79.228 2.044 79.228 2.169 79.294 2.169 79.363 2.169 79.498 2.177 79.842 2.177 80.185 2.177 80.528 2.177 80.88 2.177 81.015 2.169 81.224 2.163 81.244 2.315 81.244 2.362 81.244 2.464 81.164 2.569 81.015 2.569L81.001 2.569C80.792 2.555 80.413 2.555 80.063 2.555 79.227 2.555 79.219 2.555 79.219 2.69 79.219 3.715 79.219 4.03 79.24 4.19 79.265 4.444 79.408 4.59 79.765 4.616 79.88 4.624 80.251 4.624 80.62 4.624 80.999 4.624 81.376 4.624 81.497 4.616L81.518 4.616C81.653 4.616 81.727 4.704 81.727 4.798 81.73 4.891 81.656 4.992 81.494 4.998zM86.104 2.59C86.104 2.617 86.131 2.651 86.178 2.692 86.549 3.032 86.838 3.612 87.102 4.038 87.291 4.339 87.487 4.538 87.79 4.571 87.925 4.585 87.999 4.692 87.999 4.8 87.999 4.913 87.911 5.019 87.724 5.019 87.576 5.019 87.111 4.914 86.745 4.259 86.468 3.773 85.901 2.659 85.431 2.646 85.335 2.646 85.046 2.632 84.87 2.632 84.681 2.632 84.655 2.671 84.655 2.759 84.655 3.273 84.675 4.552 84.675 4.8 84.675 4.933 84.56 4.999 84.452 4.999 84.344 4.999 84.243 4.938 84.243 4.806 84.257 3.533 84.249 1.566 84.27.845 84.29.118 84.963.118 85.483.118 85.631.118 85.78.124 85.881.132 86.865.198 87.291.765 87.291 1.331 87.291 1.905 86.859 2.477 86.164 2.558 86.123 2.557 86.104 2.57 86.104 2.59zM85.834.471C85.74.463 85.592.457 85.436.457 84.938.457 84.702.551 84.674.93 84.66 1.098 84.668 1.778 84.66 2.178 84.66 2.278 84.762 2.291 85.314 2.291 85.531 2.291 85.752 2.283 85.88 2.277 86.507 2.23 86.864 1.777 86.864 1.338 86.865.918 86.549.51 85.834.471zM93.701 5.004C93.621 5.004 93.533 4.957 93.492 4.852 93.41 4.659 93.154 3.971 92.945 3.358 92.925 3.305 92.904 3.278 92.838 3.278 92.731 3.272 92.406 3.272 92.063 3.272 91.584 3.272 91.051 3.272 90.909 3.278 90.848 3.278 90.821 3.319 90.809 3.358 90.633 3.891 90.424 4.518 90.323 4.844 90.29 4.957 90.194 5.004 90.106 5.004 90.006 5.004 89.897 4.938 89.897 4.824 89.897 4.804 89.905 4.777 89.911 4.758 90.29 3.551 91.079 1.41 91.401.49 91.489.25 91.678.136 91.86.136 92.055.136 92.253.257 92.339.495 92.784 1.724 93.675 4.157 93.905 4.69 93.917 4.723 93.925 4.756 93.925 4.79 93.924 4.918 93.816 5.004 93.701 5.004zM92.758 2.811C92.547 2.184 92.115 1.038 92.008.704 91.975.604 91.928.558 91.873.558 91.82.558 91.766.611 91.725.718 91.584 1.099 90.983 2.812 90.983 2.864 90.983 2.891 91.004 2.905 91.057 2.905 91.192 2.905 91.557 2.911 91.907 2.911 92.264 2.911 92.61 2.905 92.71 2.905 92.759 2.905 92.771 2.891 92.771 2.872 92.771 2.853 92.764 2.83 92.758 2.811zM97.568 4.805C97.568 4.946 97.455 5.018 97.332 5.018 97.211 5.018 97.098 4.946 97.098 4.805L97.098 4.799C97.112 4.211 97.123 3.012 97.123 1.99 97.123 1.457 97.117.97 97.111.656 97.111.564 97.097.543 96.644.543 96.355.543 95.976.557 95.654.557 95.506.557 95.431.457 95.431.364 95.431.264 95.505.171 95.646.171L95.654.171C96.064.179 96.779.185 97.488.185 98.068.185 98.64.179 99.033.171L99.039.171C99.174.171 99.242.271 99.242.364 99.242.464 99.174.557 99.047.557L99.039.557C98.789.551 98.547.543 98.338.543 98.014.543 97.764.551 97.664.557 97.603.557 97.555.571 97.555.657 97.549.977 97.543 1.411 97.543 1.886 97.543 2.925 97.563 4.159 97.568 4.8L97.568 4.805zM100.7 2.578C100.7 1.131 101.745.084 103.149.084 104.551.084 105.596 1.131 105.596 2.578 105.596 4.078 104.551 5.058 103.149 5.058 101.745 5.059 100.7 4.078 100.7 2.578zM105.159 2.578C105.159 1.305 104.261.457 103.149.457 102.036.457 101.139 1.305 101.139 2.578 101.139 3.844 102.035 4.678 103.149 4.678 104.26 4.678 105.159 3.844 105.159 2.578zM109.863 2.59C109.863 2.617 109.888 2.651 109.937 2.692 110.306 3.032 110.597 3.612 110.861 4.038 111.049 4.339 111.244 4.538 111.549 4.571 111.684 4.585 111.758 4.692 111.758 4.8 111.758 4.913 111.67 5.019 111.481 5.019 111.333 5.019 110.868 4.914 110.504 4.259 110.227 3.773 109.66 2.659 109.188 2.646 109.094 2.646 108.803 2.632 108.629 2.632 108.44 2.632 108.412 2.671 108.412 2.759 108.412 3.273 108.432 4.552 108.432 4.8 108.432 4.933 108.319 4.999 108.211 4.999 108.102 4.999 108 4.938 108 4.806 108.014 3.533 108.008 1.566 108.027.845 108.048.118 108.722.118 109.242.118 109.39.118 109.539.124 109.64.132 110.624.198 111.048.765 111.048 1.331 111.048 1.905 110.616 2.477 109.923 2.558 109.883 2.557 109.863 2.57 109.863 2.59zM109.592.471C109.498.463 109.35.457 109.196.457 108.696.457 108.46.551 108.432.93 108.42 1.098 108.426 1.778 108.42 2.178 108.42 2.278 108.52 2.291 109.074 2.291 109.289 2.291 109.512 2.283 109.64 2.277 110.267 2.23 110.624 1.777 110.624 1.338 110.625.918 110.307.51 109.592.471z"/>
    </g>
  </g>
</svg>
