<svg xmlns="http://www.w3.org/2000/svg" xmlns:xlink="http://www.w3.org/1999/xlink" width="433" height="130" viewBox="0 0 433 130">
  <defs>
    <polygon id="logo-zh_hans-a" points="0 0 99.824 0 99.824 96.104 0 96.104"/>
  </defs>
  <g fill="none" fill-rule="evenodd" transform="translate(12.99 13)">
    <path fill="#FFFA9F" d="M81.4482332,31.2886594 L78.1894133,34.3078178 C74.3149735,29.8310803 68.4852868,27.0900824 61.8227556,27.0900824 C49.8010408,27.0900824 40.4590304,35.4529458 40.4590304,47.8415792 C40.4590304,60.229987 49.8010408,68.5933015 61.6053056,68.5933015 C73.1923459,68.5933015 80.5430555,61.5835662 81.1947293,50.4788026 L64.0312809,50.4788026 L64.0312809,46.5229675 L85.9745721,46.5229675 C86.0469052,46.9739349 86.0469052,47.2861605 86.0469052,47.6678698 C86.0469052,61.930308 76.6323365,72.6531367 61.6053056,72.6531367 C48.0990724,72.6531367 35.860133,63.2838872 35.860133,47.8415792 C35.860133,33.2319479 47.0852825,22.9948286 61.8227556,22.9948286 C69.7888598,22.9948286 76.8135072,26.1182126 81.4482332,31.2886594"/>
    <path stroke="#000" stroke-linecap="round" stroke-linejoin="round" stroke-width="1.127" d="M80.5162381 30.3082846C80.8364156 30.6263757 81.1469113 30.9530395 81.4474999 31.2887271L80.4558952 32.208033M79.1816611 33.3881999L78.1895034 34.3044413C77.8943123 33.9644764 77.587629 33.6346295 77.2703549 33.3151254"/>
    <path stroke="#000" stroke-dasharray="2.732 2.732" stroke-linecap="round" stroke-linejoin="round" stroke-width="1.127" d="M75.221751,31.5083228 C71.5911256,28.7158889 66.9539209,27.0900148 61.8227781,27.0900148 C49.800838,27.0900148 40.4588276,35.4528781 40.4588276,47.8415115 C40.4588276,60.2299193 49.800838,68.5934594 61.6053282,68.5934594 C72.2222938,68.5934594 79.2827697,62.7080972 80.891674,53.1798022"/>
    <path stroke="#000" stroke-linecap="round" stroke-linejoin="round" stroke-width="1.127" d="M81.0805061,51.8276443 C81.1298549,51.3852495 81.1679368,50.93541 81.1947519,50.4788026 L79.8427315,50.4788026"/>
    <path stroke="#000" stroke-dasharray="2.892 2.892" stroke-linecap="round" stroke-linejoin="round" stroke-width="1.127" d="M76.9507373,50.4789154 L66.8292872,50.4789154"/>
    <polyline stroke="#000" stroke-linecap="round" stroke-linejoin="round" stroke-width="1.127" points="65.383 50.479 64.031 50.479 64.031 49.125"/>
    <polyline stroke="#000" stroke-linecap="round" stroke-linejoin="round" stroke-width="1.127" points="64.031 47.877 64.031 46.523 65.383 46.523"/>
    <path stroke="#000" stroke-dasharray="2.748 2.748" stroke-linecap="round" stroke-linejoin="round" stroke-width="1.127" d="M68.1318011,46.5230351 L83.2482906,46.5230351"/>
    <path stroke="#000" stroke-linecap="round" stroke-linejoin="round" stroke-width="1.127" d="M84.6225292,46.5230351 L85.9745496,46.5230351 C86.0468827,46.9740026 86.0468827,47.2862282 86.0468827,47.6679375 C86.0468827,47.7365189 86.0466574,47.8048746 86.0462067,47.8732304"/>
    <path stroke="#000" stroke-dasharray="2.74 2.74" stroke-linecap="round" stroke-linejoin="round" stroke-width="1.127" d="M85.9094048,50.6123106 C84.6995718,63.3808486 75.5790675,72.6533171 61.6054859,72.6533171 C48.0990274,72.6533171 35.8603133,63.2838421 35.8603133,47.8415341 C35.8603133,33.2319028 47.0852374,22.9950091 61.8227105,22.9950091 C68.7495617,22.9950091 74.9643489,25.356328 79.5150242,29.3717206"/>
    <path stroke="#000" stroke-dasharray="2.704" stroke-linecap="round" stroke-linejoin="round" stroke-width="1.127" d="M110.302332 86.0597067C110.302332 91.3506221 105.845622 95.6394377 100.347631 95.6394377L21.1088693 95.6394377C15.6111036 95.6394377 11.1541684 91.3506221 11.1541684 86.0597067L11.1541684 9.80514707C11.1541684 4.51445727 15.6111036.225416052 21.1088693.225416052L100.347631.225416052C105.845622.225416052 110.302332 4.51445727 110.302332 9.80514707L110.302332 86.0597067zM96.7020203 57.0384052L110.302219 49.6584659M.775586507 55.2902351L11.1541458 49.6584434M19.8184109 101.708052L33.7304755 95.9192451M63.8829643 102.141852L77.7950289 95.6394829M63.8829643 102.141852L77.7950289 95.6394829M24.4018277 8.06543688L42.8686238.381167896M69.6026416 8.07953666L86.039379.397298048"/>
    <path fill="#303030" d="M71.4207485,38.4039965 L68.1619286,41.4231549 C64.2874888,36.9464174 58.4578021,34.2051939 51.7952709,34.2051939 C39.7735561,34.2051939 30.4315458,42.5682829 30.4315458,54.9569163 C30.4315458,67.3453241 39.7735561,75.6824694 51.5778209,75.6824694 C63.1648612,75.6824694 70.5155708,68.6009944 71.1672446,57.5415757 L53.968193,57.5415757 L53.968193,53.6383046 L75.9470875,53.6383046 C76.0194205,54.089272 76.0194205,54.4014976 76.0194205,54.7832069 C76.0194205,69.0456451 66.6048518,79.7684738 51.5778209,79.7684738 C38.0715877,79.7684738 25.8328737,70.3992243 25.8328737,54.9569163 C25.8328737,40.347285 37.0577978,30.1101657 51.7952709,30.1101657 C59.7613751,30.1101657 66.7860225,33.2335497 71.4207485,38.4039965"/>
    <g transform="translate(0 7.761)">
      <mask id="logo-zh_hans-b" fill="#fff">
        <use xlink:href="#logo-zh_hans-a"/>
      </mask>
      <path fill="#303030" d="M88.4090201,92.494577 L11.4150632,92.494577 C7.10887824,92.494577 3.60534269,89.2344816 3.60534269,85.0925293 L3.60534269,10.9987332 C3.60534269,6.85700651 7.10887824,3.38394794 11.4150632,3.38394794 L88.4090201,3.38394794 C92.7152051,3.38394794 96.2187406,6.85700651 96.2187406,10.9987332 L96.2187406,85.0925293 C96.2187406,89.2344816 92.7152051,92.494577 88.4090201,92.494577 M88.3105479,0 L11.5135354,0 C5.16489823,0 -4.50673469e-05,4.98139696 -4.50673469e-05,11.0932581 L-4.50673469e-05,84.9982299 C-4.50673469e-05,91.1098655 5.16489823,96.1041215 11.5135354,96.1041215 L88.3105479,96.1041215 C94.6591851,96.1041215 99.8241284,91.1098655 99.8241284,84.9982299 L99.8241284,11.0932581 C99.8241284,4.98139696 94.6591851,0 88.3105479,0" mask="url(#logo-zh_hans-b)"/>
    </g>
    <g fill="#181818" fill-rule="nonzero" transform="translate(140.725 21.667)">
      <path d="M1.39859 33.3211667L1.39859 31.3733333 17.41959 31.3733333 17.41959 20.9126667 6.358605 20.9126667 6.358605 19.0016667 17.41959 19.0016667 17.41959 10.4498333 7.99751 10.4498333C6.432215 13.5438333 4.79331 16.484 2.500575 19.578L.859505 18.4318333C5.020635 12.7443333 7.46059 7.50966667 9.59961 1.70733333L11.316455 2.47C10.589015 4.61066667 9.714355 6.59533333 8.796395 8.54316667L17.417425 8.54316667 17.417425.485333333 19.365925.485333333 19.365925 8.54316667 32.187055 8.54316667 32.187055 10.452 19.365925 10.452 19.365925 19.0038333 30.736505 19.0038333 30.736505 20.917 19.365925 20.917 19.365925 31.3776667 35.083825 31.3776667 35.083825 33.3233333 1.39859 33.3233333 1.39859 33.3211667zM65.70342 26.9815C62.345505 30.2271667 58.34242 32.7491667 52.962395 35.0393333L52.00763 33.2453333C57.46343 30.9941667 61.470845 28.4331667 64.82876 25.1116667 63.263465 21.294 61.96663 16.0636667 61.509815 8.84433333L48.80343 8.84433333 48.80343 14.7268333 58.455 14.7268333C58.455 18.6571667 58.11293 23.5083333 57.612815 25.7638333 57.11703 27.9391667 55.93494 28.4331667 53.685505 28.4331667 52.577025 28.4331667 51.47504 28.3183333 50.32759 28.0908333L50.13707 25.8786667C51.511845 26.1841667 52.80435 26.3748333 53.876025 26.3748333 54.9477 26.3748333 55.478125 26.1473333 55.74442 25.0748333 56.32031 22.7846667 56.47186 19.6148333 56.47186 16.5598333L48.801265 16.5598333 48.801265 19.539C48.801265 25.3781667 47.42649 30.381 44.18332 35.464L42.58122 34.3546667C45.748615 29.3908333 46.857095 24.999 46.857095 19.3115L46.857095 6.86183333 61.39507 6.86183333C61.280325 4.91616667 61.280325 2.9315 61.319295.637L63.22666.637C63.18769 2.9315 63.22666 4.91616667 63.341405 6.86183333L77.00039 6.86183333 77.00039 8.8465 63.45615 8.8465C63.951935 15.3768333 65.05825 19.9961667 66.394055 23.5105 68.98556 20.6071667 71.048805 17.3246667 73.18566 13.2405L74.941475 14.274C72.46255 18.7395 70.057235 22.3686667 67.195105 25.4215 69.944655 31.4188333 73.300405 32.6408333 74.062485 32.6408333 74.638375 32.6408333 75.09519 32.2595 75.820465 26.2643333L77.72783 27.8308333C76.924615 32.9463333 76.27728 34.8183333 74.52363 34.8183333 72.9172 34.8096667 68.831845 33.2453333 65.70342 26.9815zM72.9172 6.36566667C70.472915 4.41566667 69.09814 3.3865 66.92448 1.82L68.03296.407333333C70.16765 1.93483333 71.693975 2.96833333 74.13826 4.79916667L72.9172 6.36566667zM118.75458 25.3391667C117.26506 24.7671667 115.777705 24.1583333 114.74933 23.582L114.74933 35.4228333 113.032485 35.4228333 113.032485 33.5855 105.40086 33.5855 105.40086 35.4228333 103.645045 35.4228333 103.645045 22.321 112.344015 22.321C109.598795 20.6786667 107.269255 19.1945 105.55241 17.4763333L98.570285 17.4763333C96.240745 19.6126667 94.106055 20.9885 91.6661 22.321L100.743945 22.321 100.743945 35.4228333 98.951325 35.4228333 98.951325 33.5855 91.43228 33.5855 91.43228 35.4228333 89.715435 35.4228333 89.715435 23.3545C88.459735 24.0066667 86.970215 24.6155 85.558635 25.1875L84.71645 23.5841667C89.637495 21.5236667 92.729115 20.1478333 96.126 17.4785L85.900705 17.4785 85.900705 15.795 97.842845 15.795C99.332365 14.2718333 100.66817 12.4345 101.9282 10.4888333L103.37875 11.4075C102.346045 13.0866667 101.20076 14.5383333 100.09661 15.795L118.67664 15.795 118.67664 17.4785 107.87762 17.4785C111.542965 20.111 114.483035 21.7533333 119.5946 23.5841667L118.75458 25.3391667zM88.992325 11.8993333L88.992325 2.38983333 100.24816 2.38983333 100.24816 11.8993333 88.992325 11.8993333zM98.49451 4.07116667L90.74814 4.07116667 90.74814 10.2201667 98.49451 10.2201667 98.49451 4.07116667zM98.951325 24.0456667L91.43228 24.0456667 91.43228 31.9453333 98.951325 31.9453333 98.951325 24.0456667zM104.026085 11.8993333L104.026085 2.38983333 115.587185 2.38983333 115.587185 11.8993333 104.026085 11.8993333zM113.032485 24.0456667L105.40086 24.0456667 105.40086 31.9453333 113.032485 31.9453333 113.032485 24.0456667zM113.83137 4.07116667L105.779735 4.07116667 105.779735 10.2201667 113.83137 10.2201667 113.83137 4.07116667zM111.69668 15.6411667C109.86509 14.7658333 108.49248 14.1895 106.927185 13.5416667L107.57452 12.129C109.40611 12.818 110.399845 13.1993333 112.344015 14.0378333L111.69668 15.6411667zM160.54774 35.6156667C153.223545 33.5876667 147.689805 29.5815 144.52241 22.8236667L143.684555 22.8236667C142.30978 23.9286667 140.592935 25.0748333 138.492885 26.26L138.492885 32.0623333C141.08872 31.4145 143.225575 30.8056667 145.82141 30.0018333L146.16348 31.759C140.78562 33.3255 136.128705 34.5475 132.04768 35.4271667L131.32024 33.6678333C133.45493 33.2496667 134.981255 32.9441667 136.77604 32.487L136.77604 27.2133333C134.184535 28.3985 130.78765 29.5836667 127.58345 30.5391667L126.81704 28.8556667C132.61924 27.3325 137.007695 25.61 141.27924 22.8258333L128.040265 22.8258333 128.040265 21.1033333 144.40983 21.1033333C143.83827 20.4511667 143.18877 19.8813333 142.541435 19.3093333L143.953015 18.1631667 143.87724 18.1631667C143.30135 18.1631667 142.541435 18.1241667 141.779355 18.0115L141.46976 16.2175C142.502465 16.4081667 143.26238 16.484 143.914045 16.484 145.0983 16.484 145.28882 16.3691667 145.28882 15.2988333L145.28882 13.7323333 138.993 13.7323333 138.993 19.8055 137.237185 19.8055 137.237185 13.7323333 131.5887 13.7323333 131.5887 18.6203333 129.832885 18.6203333 129.832885 12.09 137.237185 12.09 137.237185 9.91466667 127.126635 9.91466667 127.126635 8.2355 129.034 8.2355 128.26759 7.58333333C130.521355 5.1805 131.66231 3.19583333 132.61924.940333333L134.184535 1.5535C133.91824 2.20133333 133.305545 3.3475 132.963475 3.9195L137.23935 3.9195 137.23935.483166667 138.995165.483166667 138.995165 3.9195 147.083605 3.9195 147.083605 5.52283333 138.995165 5.52283333 138.995165 8.2355 148.99097 8.2355 148.99097 9.91466667 138.995165 9.91466667 138.995165 12.09 147.0468 12.09 147.0468 15.4115C147.0468 17.8945 146.053065 18.1631667 143.95518 18.1631667L146.741535 21.1033333 160.5131 21.1033333 160.5131 22.8215 146.395135 22.8215C147.313095 24.7671667 148.534155 26.4853333 150.06048 27.976 152.461465 26.754 154.141505 25.7638333 156.88889 23.9265L157.95407 25.4171667C155.362565 27.1353333 153.79727 27.9391667 151.352985 29.1633333 153.912015 31.2628333 157.23096 32.5238333 161.54364 33.8606667L160.54774 35.6156667zM137.237185 5.52283333L132.08665 5.52283333C131.51076 6.32666667 130.67507 7.5075 130.023405 8.2355L137.237185 8.2355 137.237185 5.52283333zM150.894005 14.651L150.894005 2.6585 152.64982 2.6585 152.64982 14.651 150.894005 14.651zM152.61085 19.0385L152.305585 17.1686667C153.64139 17.4351667 154.94039 17.5543333 155.6635 17.5543333 156.88456 17.5543333 157.11405 17.4351667 157.11405 16.3691667L157.11405.8645 158.869865.8645 158.869865 16.484C158.869865 18.9648333 157.9151 19.2356667 155.70247 19.2356667 154.97936 19.2335 153.946655 19.1945 152.61085 19.0385zM202.875655 34.086C200.316625 34.2766667 197.649345 34.3525 194.86299 34.3525 187.99561 34.3525 183.34086 33.7805 180.78183 32.9008333 178.75972 32.1771667 176.510285 30.9161667 174.87138 29.2738333 173.687125 31.2195 172.427095 33.0156667 170.482925 35.0371667L169.10815 33.7371667C173.42083 29.2348333 175.899755 24.232 176.817715 20.6396667L171.8577 20.6396667C171.591405 21.0621667 171.35975 21.3676667 171.015515 21.8248333L169.525995 20.6786667C172.1608 17.2033333 173.72393 14.4191667 175.25242 11.4031667L168.880825 11.4031667 168.880825 9.646 177.95867 9.646C176.241825 13.4246667 175.21345 15.4851667 172.959685 18.9605L179.064985 18.9605C178.341875 22.1671667 177.15762 25.1853333 175.821815 27.7831667 177.38711 29.1958333 179.407055 30.3008333 181.199675 31.0288333 183.45344 31.8283333 187.880865 32.3656667 194.86299 32.3656667 197.649345 32.3656667 200.507145 32.214 203.14195 32.019L202.875655 34.086zM174.371265 8.65366667C173.150205 5.902 172.349155 4.26183333 171.01335 1.70516667L172.539675.862333333C173.951255 3.38433333 174.79344 5.1025 176.124915 7.77616667L174.371265 8.65366667zM179.33128 14.4213333L179.33128 12.6273333 190.093495 12.6273333 190.093495 7.35366667 184.40604 7.35366667C183.49241 8.92016667 182.61342 10.2938333 181.54824 11.5548333L180.021915 10.3696667C182.27135 7.657 184.06397 4.4915 185.17245 1.4365L186.81352 2.08433333C186.395675 3.34533333 185.93453 4.4915 185.36297 5.5965L190.09566 5.5965 190.09566.405166667 191.92725.405166667 191.92725 5.5965 199.71259 5.5965 199.71259 7.35366667 191.92725 7.35366667 191.92725 12.6273333 202.650495 12.6273333 202.650495 14.4213333 179.33128 14.4213333zM198.06719 29.6941667L198.06719 27.443 184.291295 27.443 184.291295 29.6941667 182.498675 29.6941667 182.498675 18.1241667 199.823005 18.1241667 199.823005 29.6941667 198.06719 29.6941667zM198.06719 19.8813333L184.291295 19.8813333 184.291295 25.688 198.06719 25.688 198.06719 19.8813333zM219.446565 10.2201667L219.446565 35.5008333 217.653945 35.5008333 217.653945 14.9933333C216.432885 18.5055 214.82862 22.4033333 212.046595 27.3281667L210.4813 26.2578333C213.648695 21.0275 216.012875 15.4115 217.34868 10.2201667L211.128635 10.2201667 211.128635 8.42616667 217.653945 8.42616667 217.653945.483166667 219.446565.483166667 219.446565 8.42616667 225.209795 8.42616667 225.209795 10.2201667 219.446565 10.2201667zM223.646665 22.3231667C222.31086 19.3873333 221.317125 17.3593333 219.98132 14.7658333L221.47084 13.962C222.88242 16.5598333 223.9909 18.6983333 225.326705 21.4478333L223.646665 22.3231667zM241.76988 34.697C241.118215 34.736 240.50985 34.736 239.93829 34.697 237.60875 34.5821667 237.18874 33.8585 237.18874 31.9085L237.18874 4.45683333 229.44237 4.45683333 229.44237 15.6043333C229.44237 23.205 228.604515 29.6205 222.689735 35.5398333L221.278155 34.203C226.850865 28.626 227.72769 22.7846667 227.72769 15.6043333L227.72769 2.81666667 239.022495 2.81666667 239.022495 31.8348333C239.022495 32.5628333 239.174045 32.7903333 239.940455 32.8293333 240.512015 32.8683333 241.12038 32.8683333 241.772045 32.8293333 242.72248 32.7903333 242.9563 32.5628333 243.071045 31.759 243.18579 30.8446667 243.29837 29.3171667 243.413115 26.5676667L245.32048 27.4105C245.205735 29.5468333 245.12996 30.9985 245.015215 32.0276667 244.707785 34.2008333 243.789825 34.5821667 241.76988 34.697z"/>
    </g>
    <g fill="#181818" fill-rule="nonzero" transform="translate(142.89 67.167)">
      <path d="M5.97107 6.45016667C5.678795 6.45016667 5.518585 6.22266667 5.518585 5.98866667 5.518585 5.54016667 5.895295 5.54016667 6.495 5.54016667 7.22677 5.54016667 8.073285 5.5575 8.64268 5.5705 9.56064 5.58783333 10.000135 6.0905 10.000135 6.88566667 10.000135 8.40016667 8.553915 10.9611667 5.328065 10.9611667 2.56769 10.9611667.20351 8.866.20351 5.65933333.20351 2.95533333 2.02644.184166667 5.531575.184166667 7.59049.184166667 9.168775 1.4105 9.168775 2.01716667 9.168775 2.29233333 8.93712 2.509 8.68598 2.509 8.53876 2.509 8.393705 2.4375 8.276795 2.2815 7.63379 1.41483333 6.58593 1.02483333 5.50343 1.02483333 2.730065 1.02483333 1.13879 3.32366667 1.13879 5.66366667 1.13879 8.01666667 2.699755 10.01 5.358375 10.01 8.13174 10.01 8.978255 7.88666667 8.978255 7.09366667 8.978255 6.41333333 8.454325 6.41333333 8.042975 6.41333333 7.519045 6.41333333 6.65521 6.43066667 5.98406 6.45666667L5.97107 6.45666667 5.97107 6.45016667zM21.51577 10.829C21.32525 10.842 20.46358 10.842 19.604075 10.842 18.75323 10.842 17.89589 10.842 17.70537 10.829 16.41936 10.7271667 15.789345 10.1486667 15.74821 9.21266667 15.7179 8.60383333 15.7179 7.56166667 15.7179 6.42416667 15.7179 4.70166667 15.73522 2.79716667 15.7612 1.88716667 15.79151.946833333 16.373895.385666667 17.456395.325 17.73568.307666667 18.551885.294666667 19.3551.294666667 20.171305.294666667 20.96153.307666667 21.18236.325 21.487625.338 21.647835.541666667 21.647835.743166667 21.647835.944666667 21.474635 1.1505 21.15205 1.1505 21.076275 1.1505 19.68851 1.13316667 18.65364 1.13316667 17.17711 1.13316667 16.7138 1.13316667 16.64019 2.01283333 16.60988 2.3595 16.62287 3.575 16.60988 4.42866667 16.60988 4.6995 16.75277 4.6995 16.902155 4.6995 17.19443 4.71683333 17.93919 4.71683333 18.681785 4.71683333 19.42438 4.71683333 20.18646 4.71683333 20.478735 4.6995 20.93122 4.6865 20.97452 5.01583333 20.97452 5.11766667 20.97452 5.33866667 20.80132 5.56616667 20.478735 5.56616667L20.448425 5.56616667C19.99594 5.53583333 19.175405 5.53583333 18.417655 5.53583333 16.607715 5.53583333 16.590395 5.53583333 16.590395 5.82833333 16.590395 8.04916667 16.590395 8.73166667 16.63586 9.07833333 16.689985 9.62866667 16.99958 9.945 17.772485 10.0013333 18.02146 10.0186667 18.824675 10.0186667 19.62356 10.0186667 20.444095 10.0186667 21.2603 10.0186667 21.522265 10.0013333L21.56773 10.0013333C21.860005 10.0013333 22.020215 10.192 22.020215 10.3956667 22.02671 10.5971667 21.8665 10.816 21.51577 10.829zM35.815595 9.8605C35.815595 10.5126667 35.304655 10.9005 34.763405 10.9005 34.412675 10.9005 34.031635 10.7271667 33.78699 10.3371667 32.74779 8.6905 29.59555 2.99866667 28.805325 1.65316667 28.70357 1.47983333 28.57367 1.365 28.471915 1.365 28.264075 1.365 28.264075 1.56866667 28.264075 2.5805 28.264075 4.43083333 28.294385 8.92016667 28.33985 10.4216667L28.33985 10.439C28.33985 10.7271667 28.090875 10.8701667 27.8419 10.8701667 27.597255 10.8701667 27.346115 10.7271667 27.346115 10.439L27.346115 10.4216667C27.376425 9.0935 27.389415 7.579 27.389415 6.10566667 27.389415 4.4005 27.376425 2.7495 27.346115 1.46683333L27.346115 1.42133333C27.346115.6435 27.7986.283833333 28.294385.283833333 28.70357.283833333 29.12791.511333333 29.407195.959833333 30.312165 2.46133333 33.31935 7.85416667 34.40185 9.529 34.486285 9.672 34.60536 9.7565 34.694125 9.7565 34.884645 9.7565 34.884645 9.48133333 34.884645 9.05016667 34.884645 7.50533333 34.83918 2.14283333 34.79588.7735L34.79588.758333333C34.79588.429 35.044855.2665 35.278675.2665 35.54064.2665 35.789615.439833333 35.789615.758333333L35.789615.775666667C35.759305 1.59683333 35.759305 2.65416667 35.759305 3.78083333 35.759305 5.9345 35.789615 8.346 35.81776 9.84966667L35.81776 9.8605 35.815595 9.8605zM47.97207 10.829C47.78155 10.842 46.91988 10.842 46.060375 10.842 45.20953 10.842 44.35219 10.842 44.16167 10.829 42.87566 10.7271667 42.245645 10.1486667 42.20451 9.21266667 42.1742 8.60383333 42.1742 7.56166667 42.1742 6.42416667 42.1742 4.70166667 42.19152 2.79716667 42.2175 1.88716667 42.24781.946833333 42.830195.385666667 43.912695.325 44.19198.307666667 45.008185.294666667 45.8114.294666667 46.627605.294666667 47.41783.307666667 47.63866.325 47.943925.338 48.104135.541666667 48.104135.743166667 48.104135.944666667 47.930935 1.1505 47.60835 1.1505 47.532575 1.1505 46.14481 1.13316667 45.10994 1.13316667 43.63341 1.13316667 43.1701 1.13316667 43.09649 2.01283333 43.06618 2.3595 43.07917 3.575 43.06618 4.42866667 43.06618 4.6995 43.20907 4.6995 43.358455 4.6995 43.65073 4.71683333 44.39549 4.71683333 45.138085 4.71683333 45.88068 4.71683333 46.64276 4.71683333 46.935035 4.6995 47.38752 4.6865 47.43082 5.01583333 47.43082 5.11766667 47.43082 5.33866667 47.25762 5.56616667 46.935035 5.56616667L46.904725 5.56616667C46.45224 5.53583333 45.631705 5.53583333 44.873955 5.53583333 43.064015 5.53583333 43.046695 5.53583333 43.046695 5.82833333 43.046695 8.04916667 43.046695 8.73166667 43.09216 9.07833333 43.146285 9.62866667 43.45588 9.945 44.228785 10.0013333 44.47776 10.0186667 45.280975 10.0186667 46.07986 10.0186667 46.900395 10.0186667 47.7166 10.0186667 47.978565 10.0013333L48.02403 10.0013333C48.316305 10.0013333 48.476515 10.192 48.476515 10.3956667 48.485175 10.5971667 48.3228 10.816 47.97207 10.829zM57.95272 5.61166667C57.95272 5.67016667 58.011175 5.74383333 58.11293 5.83266667 58.916145 6.56933333 59.54183 7.826 60.11339 8.749 60.522575 9.40116667 60.946915 9.83233333 61.60291 9.90383333 61.895185 9.93416667 62.055395 10.166 62.055395 10.4 62.055395 10.6448333 61.864875 10.8745 61.46002 10.8745 61.1396 10.8745 60.132875 10.647 59.340485 9.22783333 58.74078 8.17483333 57.513225 5.76116667 56.495675 5.733 56.287835 5.733 55.66215 5.70266667 55.28111 5.70266667 54.871925 5.70266667 54.815635 5.78716667 54.815635 5.97783333 54.815635 7.0915 54.858935 9.86266667 54.858935 10.4 54.858935 10.6881667 54.60996 10.8311667 54.37614 10.8311667 54.14232 10.8311667 53.923655 10.699 53.923655 10.413 53.953965 7.65483333 53.936645 3.393 53.98211 1.83083333 54.02541.255666667 55.482455.255666667 56.608255.255666667 56.928675.255666667 57.25126.268666667 57.469925.286 59.600285.429 60.522575 1.6575 60.522575 2.88383333 60.522575 4.1275 59.587295 5.36683333 58.08262 5.54233333 57.993855 5.54016667 57.95272 5.56833333 57.95272 5.61166667zM57.36817 1.0205C57.16466 1.00316667 56.84424.990166667 56.5065.990166667 55.42833.990166667 54.91739 1.19383333 54.85677 2.015 54.82646 2.379 54.84378 3.85233333 54.82646 4.719 54.82646 4.93566667 55.04729 4.96383333 56.24237 4.96383333 56.712175 4.96383333 57.19064 4.9465 57.46776 4.9335 58.825215 4.83166667 59.59812 3.85016667 59.59812 2.899 59.600285 1.989 58.916145 1.105 57.36817 1.0205zM74.400225 10.842C74.227025 10.842 74.036505 10.7401667 73.94774 10.5126667 73.77021 10.0945 73.21597 8.60383333 72.763485 7.27566667 72.720185 7.16083333 72.67472 7.10233333 72.53183 7.10233333 72.300175 7.08933333 71.59655 7.08933333 70.853955 7.08933333 69.81692 7.08933333 68.662975 7.08933333 68.355545 7.10233333 68.22348 7.10233333 68.165025 7.19116667 68.139045 7.27566667 67.758005 8.4305 67.30552 9.789 67.086855 10.4953333 67.01541 10.7401667 66.80757 10.842 66.61705 10.842 66.40055 10.842 66.164565 10.699 66.164565 10.452 66.164565 10.4086667 66.181885 10.3501667 66.194875 10.309 67.01541 7.69383333 68.723595 3.055 69.420725 1.06166667 69.611245.541666667 70.02043.294666667 70.41446.294666667 70.836635.294666667 71.265305.556833333 71.451495 1.0725 72.41492 3.73533333 74.343935 9.00683333 74.841885 10.1616667 74.867865 10.2331667 74.885185 10.3046667 74.885185 10.3783333 74.88302 10.6556667 74.6492 10.842 74.400225 10.842zM72.35863 6.0905C71.901815 4.732 70.966535 2.249 70.73488 1.52533333 70.663435 1.30866667 70.56168 1.209 70.442605 1.209 70.32786 1.209 70.21095 1.32383333 70.122185 1.55566667 69.81692 2.38116667 68.515755 6.09266667 68.515755 6.20533333 68.515755 6.26383333 68.56122 6.29416667 68.675965 6.29416667 68.96824 6.29416667 69.758465 6.30716667 70.516215 6.30716667 71.28912 6.30716667 72.03821 6.29416667 72.25471 6.29416667 72.360795 6.29416667 72.386775 6.26383333 72.386775 6.22266667 72.386775 6.1815 72.37162 6.13166667 72.35863 6.0905zM82.77228 10.4108333C82.77228 10.7163333 82.523305 10.8723333 82.26134 10.8723333 81.999375 10.8723333 81.7504 10.7163333 81.7504 10.4108333L81.7504 10.3978333C81.78071 9.12383333 81.808855 6.526 81.808855 4.31166667 81.808855 3.15683333 81.791535 2.10166667 81.778545 1.42133333 81.778545 1.222 81.748235 1.1765 80.77182 1.1765 80.141805 1.1765 79.3256 1.20683333 78.62414 1.20683333 78.30372 1.20683333 78.141345.990166667 78.141345.788666667 78.141345.572 78.301555.3705 78.61115.3705L78.62414.3705C79.51612.387833333 81.064095.400833333 82.59475.400833333 83.85045.400833333 85.09316.387833333 85.939675.3705L85.956995.3705C86.24927.3705 86.39216.587166667 86.39216.788666667 86.39216 1.00533333 86.24927 1.20683333 85.969985 1.20683333L85.956995 1.20683333C85.415745 1.19383333 84.891815 1.1765 84.435 1.1765 83.73787 1.1765 83.19662 1.19383333 82.97579 1.20683333 82.843725 1.20683333 82.744135 1.23716667 82.744135 1.4235 82.726815 2.11683333 82.713825 3.05716667 82.713825 4.08633333 82.713825 6.3375 82.757125 9.01116667 82.77228 10.4L82.77228 10.4108333zM89.8475 5.58566667C89.8475 2.4505 92.109925.182 95.145255.182 98.180585.182 100.44734 2.4505 100.44734 5.58566667 100.44734 8.83566667 98.180585 10.959 95.145255 10.959 92.109925 10.959 89.8475 8.83566667 89.8475 5.58566667zM99.496905 5.58566667C99.496905 2.8275 97.557065.990166667 95.145255.990166667 92.733445.990166667 90.793605 2.8275 90.793605 5.58566667 90.793605 8.32866667 92.733445 10.1356667 95.145255 10.1356667 97.557065 10.1356667 99.496905 8.32866667 99.496905 5.58566667zM110.114065 5.61166667C110.114065 5.67016667 110.17252 5.74383333 110.274275 5.83266667 111.07749 6.56933333 111.703175 7.826 112.274735 8.749 112.68392 9.40116667 113.10826 9.83233333 113.764255 9.90383333 114.05653 9.93416667 114.21674 10.166 114.21674 10.4 114.21674 10.6448333 114.02622 10.8745 113.621365 10.8745 113.300945 10.8745 112.29422 10.647 111.50183 9.22783333 110.902125 8.17483333 109.67457 5.76116667 108.65702 5.733 108.44918 5.733 107.823495 5.70266667 107.442455 5.70266667 107.03327 5.70266667 106.97698 5.78716667 106.97698 5.97783333 106.97698 7.0915 107.02028 9.86266667 107.02028 10.4 107.02028 10.6881667 106.771305 10.8311667 106.537485 10.8311667 106.303665 10.8311667 106.085 10.699 106.085 10.413 106.11531 7.65483333 106.09799 3.393 106.143455 1.83083333 106.186755.255666667 107.6438.255666667 108.7696.255666667 109.09002.255666667 109.412605.268666667 109.63127.286 111.76163.429 112.68392 1.6575 112.68392 2.88383333 112.68392 4.1275 111.74864 5.36683333 110.243965 5.54233333 110.1552 5.54016667 110.114065 5.56833333 110.114065 5.61166667zM109.529515 1.0205C109.326005 1.00316667 109.005585.990166667 108.667845.990166667 107.589675.990166667 107.078735 1.19383333 107.018115 2.015 106.987805 2.379 107.005125 3.85233333 106.987805 4.719 106.987805 4.93566667 107.208635 4.96383333 108.403715 4.96383333 108.87352 4.96383333 109.351985 4.9465 109.629105 4.9335 110.98656 4.83166667 111.759465 3.85016667 111.759465 2.899 111.76163 1.989 111.07749 1.105 109.529515 1.0205zM134.43351 6.45016667C134.141235 6.45016667 133.981025 6.22266667 133.981025 5.98866667 133.981025 5.54016667 134.362065 5.54016667 134.95744 5.54016667 135.68921 5.54016667 136.535725 5.5575 137.10512 5.5705 138.02741 5.58783333 138.462575 6.0905 138.462575 6.88566667 138.462575 8.40016667 137.016355 10.9611667 133.790505 10.9611667 131.03446 10.9611667 128.66595 8.866 128.66595 5.65933333 128.66595 2.95533333 130.49321.184166667 133.994015.184166667 136.05293.184166667 137.631215 1.4105 137.631215 2.01716667 137.631215 2.29233333 137.39956 2.509 137.14842 2.509 137.00553 2.509 136.856145 2.4375 136.7414 2.2815 136.098395 1.41483333 135.046205 1.02483333 133.968035 1.02483333 131.19034 1.02483333 129.599065 3.32366667 129.599065 5.66366667 129.599065 8.01666667 131.16436 10.01 133.81865 10.01 136.592015 10.01 137.43853 7.88666667 137.43853 7.09366667 137.43853 6.41333333 136.9146 6.41333333 136.50325 6.41333333 135.97932 6.41333333 135.115485 6.43066667 134.448665 6.45666667L134.43351 6.45666667 134.43351 6.45016667zM149.976045 10.829C149.785525 10.842 148.923855 10.842 148.06435 10.842 147.213505 10.842 146.356165 10.842 146.165645 10.829 144.879635 10.7271667 144.24962 10.1486667 144.208485 9.21266667 144.178175 8.60383333 144.178175 7.56166667 144.178175 6.42416667 144.178175 4.70166667 144.195495 2.79716667 144.221475 1.88716667 144.251785.946833333 144.83417.385666667 145.91667.325 146.195955.307666667 147.01216.294666667 147.815375.294666667 148.63158.294666667 149.421805.307666667 149.642635.325 149.9479.338 150.10811.541666667 150.10811.743166667 150.10811.944666667 149.93491 1.1505 149.612325 1.1505 149.53655 1.1505 148.148785 1.13316667 147.113915 1.13316667 145.637385 1.13316667 145.174075 1.13316667 145.100465 2.01283333 145.070155 2.3595 145.083145 3.575 145.070155 4.42866667 145.070155 4.6995 145.213045 4.6995 145.36243 4.6995 145.654705 4.71683333 146.399465 4.71683333 147.14206 4.71683333 147.884655 4.71683333 148.646735 4.71683333 148.93901 4.6995 149.391495 4.6865 149.434795 5.01583333 149.434795 5.11766667 149.434795 5.33866667 149.261595 5.56616667 148.93901 5.56616667L148.9087 5.56616667C148.456215 5.53583333 147.63568 5.53583333 146.87793 5.53583333 145.06799 5.53583333 145.05067 5.53583333 145.05067 5.82833333 145.05067 8.04916667 145.05067 8.73166667 145.096135 9.07833333 145.15026 9.62866667 145.459855 9.945 146.23276 10.0013333 146.481735 10.0186667 147.28495 10.0186667 148.083835 10.0186667 148.90437 10.0186667 149.720575 10.0186667 149.98254 10.0013333L150.028005 10.0013333C150.32028 10.0013333 150.48049 10.192 150.48049 10.3956667 150.48915 10.5971667 150.32894 10.816 149.976045 10.829zM164.278035 9.8605C164.278035 10.5126667 163.767095 10.9005 163.230175 10.9005 162.879445 10.9005 162.498405 10.7271667 162.24943 10.3371667 161.212395 8.6905 158.05799 2.99866667 157.272095 1.65316667 157.16601 1.47983333 157.03611 1.365 156.934355 1.365 156.730845 1.365 156.730845 1.56866667 156.730845 2.5805 156.730845 4.43083333 156.761155 8.92016667 156.80229 10.4216667L156.80229 10.439C156.80229 10.7271667 156.553315 10.8701667 156.306505 10.8701667 156.05753 10.8701667 155.808555 10.7271667 155.808555 10.439L155.808555 10.4216667C155.838865 9.0935 155.85402 7.579 155.85402 6.10566667 155.85402 4.4005 155.8367 2.7495 155.808555 1.46683333L155.808555 1.42133333C155.808555.6435 156.26104.283833333 156.75899.283833333 157.16601.283833333 157.592515.511333333 157.86747.959833333 158.77244 2.46133333 161.783955 7.85416667 162.862125 9.529 162.95089 9.672 163.069965 9.7565 163.1544 9.7565 163.34492 9.7565 163.34492 9.48133333 163.34492 9.05016667 163.34492 7.50533333 163.30162 2.14283333 163.256155.7735L163.256155.758333333C163.256155.429 163.50513.2665 163.73895.2665 164.005245.2665 164.24989.439833333 164.24989.758333333L164.24989.775666667C164.21958 1.59683333 164.21958 2.65416667 164.21958 3.78083333 164.21958 5.9345 164.24989 8.346 164.278035 9.84966667L164.278035 9.8605zM176.43451 10.829C176.24399 10.842 175.38232 10.842 174.522815 10.842 173.67197 10.842 172.81463 10.842 172.62411 10.829 171.3381 10.7271667 170.708085 10.1486667 170.66695 9.21266667 170.63664 8.60383333 170.63664 7.56166667 170.63664 6.42416667 170.63664 4.70166667 170.65396 2.79716667 170.67994 1.88716667 170.71025.946833333 171.292635.385666667 172.375135.325 172.65442.307666667 173.470625.294666667 174.27384.294666667 175.090045.294666667 175.88027.307666667 176.1011.325 176.406365.338 176.566575.541666667 176.566575.743166667 176.566575.944666667 176.393375 1.1505 176.07079 1.1505 175.995015 1.1505 174.60725 1.13316667 173.57238 1.13316667 172.09585 1.13316667 171.63254 1.13316667 171.55893 2.01283333 171.52862 2.3595 171.54161 3.575 171.52862 4.42866667 171.52862 4.6995 171.67151 4.6995 171.820895 4.6995 172.11317 4.71683333 172.85793 4.71683333 173.600525 4.71683333 174.34312 4.71683333 175.1052 4.71683333 175.397475 4.6995 175.84996 4.6865 175.89326 5.01583333 175.89326 5.11766667 175.89326 5.33866667 175.72006 5.56616667 175.397475 5.56616667L175.367165 5.56616667C174.91468 5.53583333 174.094145 5.53583333 173.336395 5.53583333 171.526455 5.53583333 171.509135 5.53583333 171.509135 5.82833333 171.509135 8.04916667 171.509135 8.73166667 171.5546 9.07833333 171.608725 9.62866667 171.91832 9.945 172.691225 10.0013333 172.9402 10.0186667 173.743415 10.0186667 174.5423 10.0186667 175.362835 10.0186667 176.17904 10.0186667 176.441005 10.0013333L176.48647 10.0013333C176.778745 10.0013333 176.938955 10.192 176.938955 10.3956667 176.94545 10.5971667 176.78524 10.816 176.43451 10.829zM186.41516 5.61166667C186.41516 5.67016667 186.473615 5.74383333 186.57537 5.83266667 187.378585 6.56933333 188.00427 7.826 188.57583 8.749 188.985015 9.40116667 189.409355 9.83233333 190.06535 9.90383333 190.357625 9.93416667 190.517835 10.166 190.517835 10.4 190.517835 10.6448333 190.327315 10.8745 189.92246 10.8745 189.60204 10.8745 188.595315 10.647 187.802925 9.22783333 187.20322 8.17483333 185.975665 5.76116667 184.958115 5.733 184.750275 5.733 184.12459 5.70266667 183.74355 5.70266667 183.334365 5.70266667 183.278075 5.78716667 183.278075 5.97783333 183.278075 7.0915 183.321375 9.86266667 183.321375 10.4 183.321375 10.6881667 183.0724 10.8311667 182.83858 10.8311667 182.60476 10.8311667 182.386095 10.699 182.386095 10.413 182.416405 7.65483333 182.399085 3.393 182.44455 1.83083333 182.48785.255666667 183.944895.255666667 185.070695.255666667 185.391115.255666667 185.7137.268666667 185.932365.286 188.062725.429 188.985015 1.6575 188.985015 2.88383333 188.985015 4.1275 188.049735 5.36683333 186.54506 5.54233333 186.456295 5.54016667 186.41516 5.56833333 186.41516 5.61166667zM185.83061 1.0205C185.6271 1.00316667 185.30668.990166667 184.96894.990166667 183.89077.990166667 183.37983 1.19383333 183.31921 2.015 183.2889 2.379 183.30622 3.85233333 183.2889 4.719 183.2889 4.93566667 183.50973 4.96383333 184.70481 4.96383333 185.174615 4.96383333 185.65308 4.9465 185.9302 4.9335 187.287655 4.83166667 188.06056 3.85016667 188.06056 2.899 188.062725 1.989 187.378585 1.105 185.83061 1.0205zM202.862665 10.842C202.689465 10.842 202.498945 10.7401667 202.41018 10.5126667 202.23265 10.0945 201.67841 8.60383333 201.225925 7.27566667 201.182625 7.16083333 201.13716 7.10233333 200.99427 7.10233333 200.762615 7.08933333 200.05899 7.08933333 199.316395 7.08933333 198.27936 7.08933333 197.125415 7.08933333 196.817985 7.10233333 196.68592 7.10233333 196.627465 7.19116667 196.601485 7.27566667 196.220445 8.4305 195.76796 9.789 195.549295 10.4953333 195.47785 10.7401667 195.27001 10.842 195.07949 10.842 194.86299 10.842 194.627005 10.699 194.627005 10.452 194.627005 10.4086667 194.644325 10.3501667 194.657315 10.309 195.47785 7.69383333 197.186035 3.055 197.883165 1.06166667 198.073685.541666667 198.48287.294666667 198.8769.294666667 199.299075.294666667 199.727745.556833333 199.913935 1.0725 200.87736 3.73533333 202.806375 9.00683333 203.304325 10.1616667 203.330305 10.2331667 203.347625 10.3046667 203.347625 10.3783333 203.34546 10.6556667 203.11164 10.842 202.862665 10.842zM200.82107 6.0905C200.364255 4.732 199.428975 2.249 199.19732 1.52533333 199.125875 1.30866667 199.02412 1.209 198.905045 1.209 198.7903 1.209 198.67339 1.32383333 198.584625 1.55566667 198.27936 2.38116667 196.978195 6.09266667 196.978195 6.20533333 196.978195 6.26383333 197.02366 6.29416667 197.138405 6.29416667 197.43068 6.29416667 198.220905 6.30716667 198.978655 6.30716667 199.75156 6.30716667 200.50065 6.29416667 200.71715 6.29416667 200.823235 6.29416667 200.849215 6.26383333 200.849215 6.22266667 200.849215 6.1815 200.83406 6.13166667 200.82107 6.0905zM211.23472 10.4108333C211.23472 10.7163333 210.990075 10.8723333 210.72378 10.8723333 210.461815 10.8723333 210.21717 10.7163333 210.21717 10.4108333L210.21717 10.3978333C210.24748 9.12383333 210.271295 6.526 210.271295 4.31166667 210.271295 3.15683333 210.258305 2.10166667 210.245315 1.42133333 210.245315 1.222 210.215005 1.1765 209.23426 1.1765 208.608575 1.1765 207.78804 1.20683333 207.09091 1.20683333 206.77049 1.20683333 206.608115.990166667 206.608115.788666667 206.608115.572 206.768325.3705 207.07359.3705L207.09091.3705C207.97856.387833333 209.526535.400833333 211.06152.400833333 212.31722.400833333 213.5556.387833333 214.406445.3705L214.419435.3705C214.71171.3705 214.85893.587166667 214.85893.788666667 214.85893 1.00533333 214.71171 1.20683333 214.436755 1.20683333L214.419435 1.20683333C213.878185 1.19383333 213.354255 1.1765 212.90177 1.1765 212.20031 1.1765 211.65906 1.19383333 211.44256 1.20683333 211.310495 1.20683333 211.206575 1.23716667 211.206575 1.4235 211.193585 2.11683333 211.180595 3.05716667 211.180595 4.08633333 211.180595 6.3375 211.223895 9.01116667 211.23472 10.4L211.23472 10.4108333zM218.0155 5.58566667C218.0155 2.4505 220.277925.182 223.317585.182 226.352915.182 228.61534 2.4505 228.61534 5.58566667 228.61534 8.83566667 226.352915 10.959 223.317585 10.959 220.277925 10.9611667 218.0155 8.83566667 218.0155 5.58566667zM227.669235 5.58566667C227.669235 2.8275 225.725065.990166667 223.317585.990166667 220.90794.990166667 218.965935 2.8275 218.965935 5.58566667 218.965935 8.32866667 220.905775 10.1356667 223.317585 10.1356667 225.7229 10.1356667 227.669235 8.32866667 227.669235 5.58566667zM237.853395 5.61166667C237.853395 5.67016667 237.90752 5.74383333 238.013605 5.83266667 238.81249 6.56933333 239.442505 7.826 240.014065 8.749 240.421085 9.40116667 240.84326 9.83233333 241.503585 9.90383333 241.79586 9.93416667 241.95607 10.166 241.95607 10.4 241.95607 10.6448333 241.76555 10.8745 241.356365 10.8745 241.035945 10.8745 240.02922 10.647 239.24116 9.22783333 238.641455 8.17483333 237.4139 5.76116667 236.39202 5.733 236.18851 5.733 235.558495 5.70266667 235.181785 5.70266667 234.7726 5.70266667 234.71198 5.78716667 234.71198 5.97783333 234.71198 7.0915 234.75528 9.86266667 234.75528 10.4 234.75528 10.6881667 234.510635 10.8311667 234.276815 10.8311667 234.04083 10.8311667 233.82 10.699 233.82 10.413 233.85031 7.65483333 233.83732 3.393 233.878455 1.83083333 233.92392.255666667 235.38313.255666667 236.50893.255666667 236.82935.255666667 237.151935.268666667 237.3706.286 239.50096.429 240.41892 1.6575 240.41892 2.88383333 240.41892 4.1275 239.48364 5.36683333 237.983295 5.54233333 237.896695 5.54016667 237.853395 5.56833333 237.853395 5.61166667zM237.26668 1.0205C237.06317 1.00316667 236.74275.990166667 236.40934.990166667 235.32684.990166667 234.8159 1.19383333 234.75528 2.015 234.7293 2.379 234.74229 3.85233333 234.7293 4.719 234.7293 4.93566667 234.9458 4.96383333 236.14521 4.96383333 236.610685 4.96383333 237.09348 4.9465 237.3706 4.9335 238.728055 4.83166667 239.50096 3.85016667 239.50096 2.899 239.503125 1.989 238.814655 1.105 237.26668 1.0205z"/>
    </g>
  </g>
</svg>
