<svg xmlns="http://www.w3.org/2000/svg" xmlns:xlink="http://www.w3.org/1999/xlink" width="433" height="130" viewBox="0 0 433 130">
  <defs>
    <polygon id="logo-en-a" points="0 0 99.824 0 99.824 96.104 0 96.104"/>
  </defs>
  <g fill="none" fill-rule="evenodd" transform="translate(12.99 13)">
    <g fill="#181818" fill-rule="nonzero" transform="translate(142.89 23.833)">
      <path d="M11.32728 11.6393333C10.80335 11.6393333 10.515405 11.2255 10.515405 10.8095 10.515405 10.0078333 11.195215 10.0078333 12.27122 10.0078333 13.581045 10.0078333 15.100875 10.0338333 16.122755 10.0576667 17.772485 10.0836667 18.55838 10.9915 18.55838 12.4171667 18.55838 15.1385 15.966875 19.7253333 10.173335 19.7253333 5.22198 19.7253333.980745 15.9683333.980745 10.2136667.980745 5.36683333 4.254225.39 10.541385.39 14.23704.39 17.066695 2.5935 17.066695 3.68116667 17.066695 4.17516667 16.64885 4.563 16.200695 4.563 15.93873 4.563 15.676765 4.433 15.468925 4.14916667 14.31498 2.5935 12.429265 1.89366667 10.49159 1.89366667 5.514255 1.89366667 2.656455 6.01466667 2.656455 10.2158333 2.656455 14.4386667 5.46013 18.018 10.229625 18.018 15.20696 18.018 16.724625 14.2068333 16.724625 12.7811667 16.724625 11.5635 15.780685 11.5635 15.05108 11.5635 14.10714 11.5635 12.56133 11.5916667 11.355425 11.6415L11.32728 11.6415 11.32728 11.6393333zM39.19083 19.4935C38.84876 19.5195 37.305115 19.5195 35.75714 19.5195 34.239475 19.5195 32.6915 19.5195 32.35376 19.4935 30.0502 19.3115 28.92007 18.2758333 28.844295 16.5901667 28.79017 15.5003333 28.79017 13.6348333 28.79017 11.5873333 28.79017 8.502 28.81615 5.08083333 28.870275 3.44716667 28.92007 1.76366667 29.970095.751833333 31.909935.647833333 32.40572.621833333 33.871425.598 35.313315.598 36.781185.598 38.192765.624 38.586795.647833333 39.136705.676 39.42898 1.03783333 39.42898 1.39966667 39.42898 1.76366667 39.11289 2.12766667 38.537 2.12766667 38.404935 2.12766667 35.915185 2.0995 34.05978 2.0995 31.411985 2.0995 30.576295 2.0995 30.44423 3.679 30.390105 4.30083333 30.41392 6.4805 30.390105 8.008 30.390105 8.502 30.65207 8.502 30.914035 8.502 31.437965 8.528 32.77377 8.528 34.11174 8.528 35.44971 8.528 36.80933 8.528 37.33326 8.502 38.145135 8.476 38.22524 9.07183333 38.22524 9.25383333 38.22524 9.64383333 37.90915 10.0576667 37.33326 10.0576667L37.283465 10.0576667C36.47159 10.0078333 35.00372 10.0078333 33.637605 10.0078333 30.390105 10.0078333 30.364125 10.0078333 30.364125 10.5235 30.364125 14.5166667 30.364125 15.7343333 30.44423 16.3561667 30.545985 17.3398333 31.095895 17.9118333 32.485825 18.0158333 32.92965 18.0418333 34.37154 18.0418333 35.81343 18.0418333 37.2813 18.0418333 38.74484 18.0418333 39.21681 18.0158333L39.296915 18.0158333C39.820845 18.0158333 40.10879 18.3516667 40.10879 18.7156667 40.106625 19.0796667 39.820845 19.4675 39.19083 19.4935zM64.826595 17.7558333C64.826595 18.9236667 63.908635 19.6213333 62.94088 19.6213333 62.310865 19.6213333 61.631055 19.3093333 61.185065 18.6095 59.32533 15.6563333 53.66602 5.44483333 52.25011 3.03333333 52.06825 2.72133333 51.832265 2.5155 51.650405 2.5155 51.282355 2.5155 51.282355 2.8795 51.282355 4.693 51.282355 8.01016667 51.33215 16.0723333 51.41442 18.7676667L51.41442 18.7936667C51.41442 19.3115 50.970595 19.5715 50.52244 19.5715 50.078615 19.5715 49.63479 19.3115 49.63479 18.7936667L49.63479 18.7676667C49.684585 16.3821667 49.710565 13.663 49.710565 11.0175 49.710565 7.96033333 49.684585 5.005 49.63479 2.6975L49.63479 2.6195C49.63479 1.21983333 50.446665.572 51.334315.572 52.070415.572 52.826.985833333 53.326115 1.78966667 54.949865 4.485 60.345045 14.1548333 62.28705 17.16 62.44293 17.42 62.6551 17.5738333 62.81098 17.5738333 63.14872 17.5738333 63.14872 17.082 63.14872 16.3041667 63.14872 13.533 63.072945 3.91516667 62.99284 1.45383333L62.99284 1.42783333C62.99284.832 63.440995.546 63.85884.546 64.328645.546 64.77247.858 64.77247 1.42783333L64.77247 1.45383333C64.722675 2.9315 64.722675 4.82516667 64.722675 6.8445 64.722675 10.7055 64.77247 15.0345 64.82876 17.7298333L64.82876 17.7558333 64.826595 17.7558333zM86.60866 19.4935C86.27092 19.5195 84.722945 19.5195 83.1793 19.5195 81.657305 19.5195 80.11366 19.5195 79.77159 19.4935 77.46803 19.3115 76.34223 18.2758333 76.262125 16.5901667 76.21233 15.5003333 76.21233 13.6348333 76.21233 11.5873333 76.21233 8.502 76.23831 5.08083333 76.288105 3.44716667 76.34223 1.76366667 77.392255.751833333 79.327765.647833333 79.825715.621833333 81.293585.598 82.731145.598 84.199015.598 85.614925.624 86.008955.647833333 86.558865.676 86.84681 1.03783333 86.84681 1.39966667 86.84681 1.76366667 86.532885 2.12766667 85.95483 2.12766667 85.822765 2.12766667 83.337345 2.0995 81.47761 2.0995 78.829815 2.0995 77.994125 2.0995 77.86206 3.679 77.812265 4.30083333 77.83608 6.4805 77.812265 8.008 77.812265 8.502 78.07423 8.502 78.336195 8.502 78.860125 8.528 80.1916 8.528 81.52957 8.528 82.86754 8.528 84.23149 8.528 84.75109 8.502 85.567295 8.476 85.64307 9.07183333 85.64307 9.25383333 85.64307 9.64383333 85.329145 10.0576667 84.75109 10.0576667L84.701295 10.0576667C83.88942 10.0078333 82.42155 10.0078333 81.059765 10.0078333 77.812265 10.0078333 77.781955 10.0078333 77.781955 10.5235 77.781955 14.5166667 77.781955 15.7343333 77.86206 16.3561667 77.968145 17.3398333 78.518055 17.9118333 79.903655 18.0158333 80.35181 18.0418333 81.78937 18.0418333 83.23126 18.0418333 84.69913 18.0418333 86.164835 18.0418333 86.63897 18.0158333L86.714745 18.0158333C87.238675 18.0158333 87.52662 18.3516667 87.52662 18.7156667 87.52662 19.0796667 87.238675 19.4675 86.60866 19.4935zM104.49156 10.1378333C104.49156 10.2418333 104.597645 10.3696667 104.779505 10.5256667 106.221395 11.8473333 107.347195 14.1028333 108.369075 15.7625 109.100845 16.9281667 109.86076 17.706 111.040685 17.836 111.564615 17.888 111.85256 18.304 111.85256 18.7178333 111.85256 19.1576667 111.51049 19.5736667 110.77872 19.5736667 110.20283 19.5736667 108.39289 19.1598333 106.98131 16.6183333 105.90747 14.7268333 103.7035 10.3978333 101.874075 10.3458333 101.506025 10.3458333 100.37806 10.2938333 99.696085 10.2938333 98.964315 10.2938333 98.85823 10.4498333 98.85823 10.7878333 98.85823 12.7833333 98.938335 17.7601667 98.938335 18.72 98.938335 19.2356667 98.49018 19.4956667 98.072335 19.4956667 97.65449 19.4956667 97.26046 19.2638333 97.26046 18.7438333 97.314585 13.793 97.28644 6.14683333 97.366545 3.3475 97.44665.522166667 100.064135.522166667 102.081915.522166667 102.657805.522166667 103.23586.548166667 103.62989.572 107.45328.832 109.100845 3.0355 109.100845 5.239 109.100845 7.46633333 107.4273 9.69583333 104.727545 10.0078333 104.571665 10.0078333 104.49156 10.0598333 104.49156 10.1378333zM103.441535 1.89366667C103.077815 1.86766667 102.497595 1.84383333 101.89789 1.84383333 99.95805 1.84383333 99.04009 2.20566667 98.938335 3.68333333 98.88421 4.33333333 98.908025 6.97666667 98.88421 8.53016667 98.88421 8.92016667 99.27824 8.97216667 101.42592 8.97216667 102.263775 8.97216667 103.129775 8.944 103.62989 8.92016667 106.065515 8.73816667 107.45328 6.97666667 107.45328 5.265 107.451115 3.63133333 106.21923 2.04966667 103.441535 1.89366667zM133.981025 19.5195C133.664935 19.5195 133.32503 19.3396667 133.16915 18.9258333 132.85306 18.1718333 131.859325 15.5025 131.04745 13.1191667 130.967345 12.9111667 130.89157 12.805 130.629605 12.805 130.20743 12.779 128.95173 12.779 127.61376 12.779 125.754025 12.779 123.68645 12.779 123.13654 12.805 122.900555 12.805 122.79447 12.961 122.74251 13.1191667 122.0627 15.1926667 121.250825 17.628 120.856795 18.8976667 120.72473 19.3396667 120.358845 19.5195 120.01461 19.5195 119.62491 19.5195 119.202735 19.2616667 119.202735 18.8196667 119.202735 18.7438333 119.233045 18.6398333 119.25686 18.5618333 120.72473 13.871 123.79037 5.54883333 125.04607 1.97383333 125.38814 1.04 126.11991.600166667 126.8257.600166667 127.58778.600166667 128.347695 1.066 128.685435 1.99983333 130.41527 6.76866667 133.872775 16.2305 134.76259 18.304 134.816715 18.434 134.842695 18.5618333 134.842695 18.6918333 134.842695 19.1836667 134.42485 19.5195 133.981025 19.5195zM130.309185 10.9915C129.49731 8.55616667 127.823765 4.095 127.403755 2.8015 127.27169 2.4115 127.087665 2.2295 126.879825 2.2295 126.667655 2.2295 126.46198 2.4375 126.299605 2.85133333 125.749695 4.33116667 123.420155 10.9915 123.420155 11.1995 123.420155 11.3035 123.49593 11.3533333 123.7081 11.3533333 124.23203 11.3533333 125.645775 11.3815 127.009725 11.3815 128.39749 11.3815 129.733295 11.3533333 130.12516 11.3533333 130.30702 11.3533333 130.361145 11.3035 130.361145 11.2233333 130.361145 11.1431667 130.335165 11.0695 130.309185 10.9915zM148.97798 18.7416667C148.97798 19.2855 148.534155 19.5715 148.06002 19.5715 147.590215 19.5715 147.14206 19.2855 147.14206 18.7416667L147.14206 18.7156667C147.196185 16.4341667 147.248145 11.7671667 147.248145 7.80216667 147.248145 5.72866667 147.222165 3.83716667 147.19835 2.61733333 147.19835 2.2555 147.144225 2.1775 145.38841 2.1775 144.26261 2.1775 142.796905 2.22733333 141.541205 2.22733333 140.960985 2.22733333 140.675205 1.8395 140.675205 1.4755 140.675205 1.08766667 140.96315.723666667 141.51306.723666667L141.54337.723666667C143.14114.749666667 145.91667.7735 148.668385.7735 150.92215.7735 153.145605.7475 154.665435.723666667L154.695745.723666667C155.219675.723666667 155.48164 1.11366667 155.48164 1.4755 155.48164 1.8655 155.219675 2.22733333 154.71956 2.22733333L154.69358 2.22733333C153.721495 2.20133333 152.777555 2.1775 151.96568 2.1775 150.70998 2.1775 149.742225 2.2035 149.348195 2.22733333 149.11221 2.22733333 148.93035 2.27933333 148.93035 2.61733333 148.90437 3.861 148.876225 5.54666667 148.876225 7.38616667 148.876225 11.4291667 148.95633 16.2261667 148.98231 18.7156667L148.98231 18.7416667 148.97798 18.7416667zM162.23644 10.0836667C162.23644 4.459 166.295815.39 171.747285.39 177.194425.39 181.2538 4.459 181.2538 10.0836667 181.2538 15.9141667 177.194425 19.7253333 171.747285 19.7253333 166.295815 19.7253333 162.23644 15.9163333 162.23644 10.0836667zM179.55211 10.0836667C179.55211 5.13283333 176.068625 1.84166667 171.747285 1.84166667 167.421615 1.84166667 163.93813 5.13283333 163.93813 10.0836667 163.93813 15.0085 167.421615 18.2498333 171.747285 18.2498333 176.06646 18.2498333 179.55211 15.0106667 179.55211 10.0836667zM197.01933 10.1378333C197.01933 10.2418333 197.125415 10.3696667 197.307275 10.5256667 198.749165 11.8473333 199.874965 14.1028333 200.896845 15.7625 201.628615 16.9281667 202.38853 17.706 203.568455 17.836 204.092385 17.888 204.38033 18.304 204.38033 18.7178333 204.38033 19.1576667 204.03826 19.5736667 203.30649 19.5736667 202.7306 19.5736667 200.92066 19.1598333 199.50908 16.6183333 198.43524 14.7268333 196.23127 10.3978333 194.401845 10.3458333 194.033795 10.3458333 192.90583 10.2938333 192.223855 10.2938333 191.492085 10.2938333 191.386 10.4498333 191.386 10.7878333 191.386 12.7833333 191.466105 17.7601667 191.466105 18.72 191.466105 19.2356667 191.01795 19.4956667 190.600105 19.4956667 190.18226 19.4956667 189.78823 19.2638333 189.78823 18.7438333 189.842355 13.793 189.81421 6.14683333 189.894315 3.3475 189.97442.522166667 192.591905.522166667 194.609685.522166667 195.185575.522166667 195.76363.548166667 196.15766.572 199.98105.832 201.628615 3.0355 201.628615 5.239 201.628615 7.46633333 199.95507 9.69583333 197.255315 10.0078333 197.099435 10.0078333 197.01933 10.0598333 197.01933 10.1378333zM195.97147 1.89366667C195.60775 1.86766667 195.02753 1.84383333 194.427825 1.84383333 192.487985 1.84383333 191.570025 2.20566667 191.46827 3.68333333 191.414145 4.33333333 191.43796 6.97666667 191.414145 8.53016667 191.414145 8.92016667 191.808175 8.97216667 193.955855 8.97216667 194.79371 8.97216667 195.65971 8.944 196.159825 8.92016667 198.59545 8.73816667 199.983215 6.97666667 199.983215 5.265 199.978885 3.63133333 198.749165 2.04966667 195.97147 1.89366667zM11.32728 42.7418333C10.80335 42.7418333 10.515405 42.328 10.515405 41.912 10.515405 41.1081667 11.195215 41.1081667 12.27122 41.1081667 13.581045 41.1081667 15.100875 41.1363333 16.122755 41.1601667 17.772485 41.1861667 18.55838 42.094 18.55838 43.5196667 18.55838 46.241 15.966875 50.8278333 10.173335 50.8278333 5.22198 50.8278333.980745 47.0708333.980745 41.314.980745 36.4693333 4.254225 31.4925 10.541385 31.4925 14.23704 31.4925 17.066695 33.696 17.066695 34.7858333 17.066695 35.2776667 16.64885 35.6655 16.200695 35.6655 15.93873 35.6655 15.676765 35.5355 15.468925 35.2516667 14.31498 33.696 12.429265 32.9961667 10.49159 32.9961667 5.514255 32.9961667 2.656455 37.1171667 2.656455 41.3161667 2.656455 45.5411667 5.46013 49.1205 10.229625 49.1205 15.20696 49.1205 16.724625 45.3093333 16.724625 43.8836667 16.724625 42.666 15.780685 42.666 15.05108 42.666 14.10714 42.666 12.56133 42.692 11.355425 42.7418333L11.32728 42.7418333zM39.19083 50.596C38.84876 50.622 37.305115 50.622 35.75714 50.622 34.239475 50.622 32.6915 50.622 32.35376 50.596 30.0502 50.414 28.92007 49.3783333 28.844295 47.6926667 28.79017 46.605 28.79017 44.7395 28.79017 42.6898333 28.79017 39.6045 28.81615 36.1833333 28.870275 34.5496667 28.92007 32.8661667 29.970095 31.8543333 31.909935 31.7503333 32.40572 31.7243333 33.871425 31.7005 35.313315 31.7005 36.781185 31.7005 38.192765 31.7265 38.586795 31.7503333 39.136705 31.7763333 39.42898 32.1403333 39.42898 32.5043333 39.42898 32.8661667 39.11289 33.228 38.537 33.228 38.404935 33.228 35.915185 33.202 34.05978 33.202 31.411985 33.202 30.576295 33.202 30.44423 34.7836667 30.390105 35.4055 30.41392 37.5808333 30.390105 39.1105 30.390105 39.6045 30.65207 39.6045 30.914035 39.6045 31.437965 39.6305 32.77377 39.6305 34.11174 39.6305 35.44971 39.6305 36.80933 39.6305 37.33326 39.6045 38.145135 39.5785 38.22524 40.1765 38.22524 40.3563333 38.22524 40.7463333 37.90915 41.1601667 37.33326 41.1601667L37.283465 41.1601667C36.47159 41.1081667 35.00372 41.1081667 33.637605 41.1081667 30.390105 41.1081667 30.364125 41.1081667 30.364125 41.6281667 30.364125 45.6191667 30.364125 46.8368333 30.44423 47.4586667 30.545985 48.4423333 31.095895 49.0143333 32.485825 49.1183333 32.92965 49.1443333 34.37154 49.1443333 35.81343 49.1443333 37.2813 49.1443333 38.74484 49.1443333 39.21681 49.1183333L39.296915 49.1183333C39.820845 49.1183333 40.10879 49.4541667 40.10879 49.816 40.106625 50.18 39.820845 50.57 39.19083 50.596zM64.826595 48.8583333C64.826595 50.024 63.908635 50.7238333 62.94088 50.7238333 62.310865 50.7238333 61.631055 50.4118333 61.185065 49.7141667 59.32533 46.7588333 53.66602 36.5451667 52.25011 34.1358333 52.06825 33.8238333 51.832265 33.618 51.650405 33.618 51.282355 33.618 51.282355 33.982 51.282355 35.7955 51.282355 39.1126667 51.33215 47.1748333 51.41442 49.8701667L51.41442 49.8961667C51.41442 50.414 50.970595 50.674 50.52244 50.674 50.078615 50.674 49.63479 50.414 49.63479 49.8961667L49.63479 49.8701667C49.684585 47.4846667 49.710565 44.7655 49.710565 42.12 49.710565 39.0628333 49.684585 36.1075 49.63479 33.8L49.63479 33.722C49.63479 32.3223333 50.446665 31.6766667 51.334315 31.6766667 52.070415 31.6766667 52.826 32.0905 53.326115 32.8943333 54.949865 35.5896667 60.345045 45.2573333 62.28705 48.2668333 62.44293 48.5246667 62.6551 48.6806667 62.81098 48.6806667 63.14872 48.6806667 63.14872 48.1866667 63.14872 47.4088333 63.14872 44.6355 63.072945 35.0198333 62.99284 32.5585L62.99284 32.5325C62.99284 31.9366667 63.440995 31.6506667 63.85884 31.6506667 64.328645 31.6506667 64.77247 31.9626667 64.77247 32.5325L64.77247 32.5585C64.722675 34.0361667 64.722675 35.9276667 64.722675 37.9491667 64.722675 41.8101667 64.77247 46.1391667 64.82876 48.8345L64.82876 48.8583333 64.826595 48.8583333zM86.60866 50.596C86.27092 50.622 84.722945 50.622 83.1793 50.622 81.657305 50.622 80.11366 50.622 79.77159 50.596 77.46803 50.414 76.34223 49.3783333 76.262125 47.6926667 76.21233 46.605 76.21233 44.7395 76.21233 42.6898333 76.21233 39.6045 76.23831 36.1833333 76.288105 34.5496667 76.34223 32.8661667 77.392255 31.8543333 79.327765 31.7503333 79.825715 31.7243333 81.293585 31.7005 82.731145 31.7005 84.199015 31.7005 85.614925 31.7265 86.008955 31.7503333 86.558865 31.7763333 86.84681 32.1403333 86.84681 32.5043333 86.84681 32.8661667 86.532885 33.228 85.95483 33.228 85.822765 33.228 83.337345 33.202 81.47761 33.202 78.829815 33.202 77.994125 33.202 77.86206 34.7836667 77.812265 35.4055 77.83608 37.5808333 77.812265 39.1105 77.812265 39.6045 78.07423 39.6045 78.336195 39.6045 78.860125 39.6305 80.1916 39.6305 81.52957 39.6305 82.86754 39.6305 84.23149 39.6305 84.75109 39.6045 85.567295 39.5785 85.64307 40.1765 85.64307 40.3563333 85.64307 40.7463333 85.329145 41.1601667 84.75109 41.1601667L84.701295 41.1601667C83.88942 41.1081667 82.42155 41.1081667 81.059765 41.1081667 77.812265 41.1081667 77.781955 41.1081667 77.781955 41.6281667 77.781955 45.6191667 77.781955 46.8368333 77.86206 47.4586667 77.968145 48.4423333 78.518055 49.0143333 79.903655 49.1183333 80.35181 49.1443333 81.78937 49.1443333 83.23126 49.1443333 84.69913 49.1443333 86.164835 49.1443333 86.63897 49.1183333L86.714745 49.1183333C87.238675 49.1183333 87.52662 49.4541667 87.52662 49.816 87.52662 50.18 87.238675 50.57 86.60866 50.596zM104.49156 41.2381667C104.49156 41.3421667 104.597645 41.47 104.779505 41.6281667 106.221395 42.9476667 107.347195 45.2031667 108.369075 46.8628333 109.100845 48.0285 109.86076 48.8063333 111.040685 48.9363333 111.564615 48.9861667 111.85256 49.4021667 111.85256 49.816 111.85256 50.258 111.51049 50.674 110.77872 50.674 110.20283 50.674 108.39289 50.2601667 106.98131 47.7186667 105.90747 45.8271667 103.7035 41.4981667 101.874075 41.4461667 101.506025 41.4461667 100.37806 41.3941667 99.696085 41.3941667 98.964315 41.3941667 98.85823 41.5501667 98.85823 41.8881667 98.85823 43.8836667 98.938335 48.8605 98.938335 49.8181667 98.938335 50.3381667 98.49018 50.596 98.072335 50.596 97.65449 50.596 97.26046 50.3641667 97.26046 49.8441667 97.314585 44.8933333 97.28644 37.2471667 97.366545 34.4478333 97.44665 31.6225 100.064135 31.6225 102.081915 31.6225 102.657805 31.6225 103.23586 31.6485 103.62989 31.6745 107.45328 31.9323333 109.100845 34.1358333 109.100845 36.3371667 109.100845 38.5666667 107.4273 40.7983333 104.727545 41.106 104.571665 41.1081667 104.49156 41.1601667 104.49156 41.2381667zM103.441535 32.9961667C103.077815 32.9701667 102.497595 32.9463333 101.89789 32.9463333 99.95805 32.9463333 99.04009 33.3081667 98.938335 34.788 98.88421 35.4358333 98.908025 38.0791667 98.88421 39.6326667 98.88421 40.0226667 99.27824 40.0725 101.42592 40.0725 102.263775 40.0725 103.129775 40.0465 103.62989 40.0226667 106.065515 39.8406667 107.45328 38.0791667 107.45328 36.3675 107.451115 34.7316667 106.21923 33.1521667 103.441535 32.9961667zM133.981025 50.6198333C133.664935 50.6198333 133.32503 50.4378333 133.16915 50.024 132.85306 49.2721667 131.859325 46.605 131.04745 44.2173333 130.967345 44.0093333 130.89157 43.9075 130.629605 43.9075 130.20743 43.8793333 128.95173 43.8793333 127.61376 43.8793333 125.754025 43.8793333 123.68645 43.8793333 123.13654 43.9075 122.900555 43.9075 122.79447 44.0613333 122.74251 44.2173333 122.0627 46.2908333 121.250825 48.7283333 120.856795 49.998 120.72473 50.4378333 120.358845 50.6198333 120.01461 50.6198333 119.62491 50.6198333 119.202735 50.362 119.202735 49.9221667 119.202735 49.8441667 119.233045 49.7401667 119.25686 49.6621667 120.72473 44.9713333 123.79037 36.6513333 125.04607 33.0741667 125.38814 32.1403333 126.11991 31.7005 126.8257 31.7005 127.58778 31.7005 128.347695 32.1663333 128.685435 33.1001667 130.41527 37.869 133.872775 47.3286667 134.76259 49.4021667 134.816715 49.5343333 134.842695 49.6621667 134.842695 49.7921667 134.842695 50.284 134.42485 50.6198333 133.981025 50.6198333zM130.309185 42.094C129.49731 39.6565 127.823765 35.1996667 127.403755 33.904 127.27169 33.514 127.087665 33.3341667 126.879825 33.3341667 126.667655 33.3341667 126.46198 33.5421667 126.299605 33.956 125.749695 35.4336667 123.420155 42.094 123.420155 42.302 123.420155 42.406 123.49593 42.458 123.7081 42.458 124.23203 42.458 125.645775 42.484 127.009725 42.484 128.39749 42.484 129.733295 42.458 130.12516 42.458 130.30702 42.458 130.361145 42.406 130.361145 42.3258333 130.365475 42.25 130.335165 42.172 130.309185 42.094zM148.97798 49.8441667C148.97798 50.388 148.534155 50.674 148.06002 50.674 147.590215 50.674 147.14206 50.388 147.14206 49.8441667L147.14206 49.816C147.196185 47.5345 147.248145 42.8718333 147.248145 38.9046667 147.248145 36.8311667 147.222165 34.9396667 147.19835 33.7198333 147.19835 33.358 147.144225 33.28 145.38841 33.28 144.26261 33.28 142.796905 33.332 141.541205 33.332 140.960985 33.332 140.675205 32.942 140.675205 32.578 140.675205 32.188 140.96315 31.8261667 141.51306 31.8261667L141.54337 31.8261667C143.14114 31.8521667 145.91667 31.8781667 148.668385 31.8781667 150.92215 31.8781667 153.145605 31.85 154.665435 31.8261667L154.695745 31.8261667C155.219675 31.8261667 155.48164 32.2161667 155.48164 32.578 155.48164 32.968 155.219675 33.332 154.71956 33.332L154.69358 33.332C153.721495 33.3038333 152.777555 33.28 151.96568 33.28 150.70998 33.28 149.742225 33.306 149.348195 33.332 149.11221 33.332 148.93035 33.3818333 148.93035 33.7198333 148.90437 34.9635 148.876225 36.6513333 148.876225 38.4886667 148.876225 42.5316667 148.95633 47.3265 148.98231 49.816L148.98231 49.8441667 148.97798 49.8441667zM162.23644 41.1861667C162.23644 35.5615 166.295815 31.4925 171.747285 31.4925 177.194425 31.4925 181.2538 35.5615 181.2538 41.1861667 181.2538 47.0188333 177.194425 50.8278333 171.747285 50.8278333 166.295815 50.8278333 162.23644 47.0188333 162.23644 41.1861667zM179.55211 41.1861667C179.55211 36.2375 176.068625 32.9441667 171.747285 32.9441667 167.421615 32.9441667 163.93813 36.2375 163.93813 41.1861667 163.93813 46.111 167.421615 49.3523333 171.747285 49.3523333 176.06646 49.3501667 179.55211 46.111 179.55211 41.1861667zM197.01933 41.2381667C197.01933 41.3421667 197.125415 41.47 197.307275 41.6281667 198.749165 42.9476667 199.874965 45.2031667 200.896845 46.8628333 201.628615 48.0285 202.38853 48.8063333 203.568455 48.9363333 204.092385 48.9861667 204.38033 49.4021667 204.38033 49.816 204.38033 50.258 204.03826 50.674 203.30649 50.674 202.7306 50.674 200.92066 50.2601667 199.50908 47.7186667 198.43524 45.8271667 196.23127 41.4981667 194.401845 41.4461667 194.033795 41.4461667 192.90583 41.3941667 192.223855 41.3941667 191.492085 41.3941667 191.386 41.5501667 191.386 41.8881667 191.386 43.8836667 191.466105 48.8605 191.466105 49.8181667 191.466105 50.3381667 191.01795 50.596 190.600105 50.596 190.18226 50.596 189.78823 50.3641667 189.78823 49.8441667 189.842355 44.8933333 189.81421 37.2471667 189.894315 34.4478333 189.97442 31.6225 192.591905 31.6225 194.609685 31.6225 195.185575 31.6225 195.76363 31.6485 196.15766 31.6745 199.98105 31.9323333 201.628615 34.1358333 201.628615 36.3371667 201.628615 38.5666667 199.95507 40.7983333 197.255315 41.106 197.099435 41.1081667 197.01933 41.1601667 197.01933 41.2381667zM195.97147 32.9961667C195.60775 32.9701667 195.02753 32.9463333 194.427825 32.9463333 192.487985 32.9463333 191.570025 33.3081667 191.46827 34.788 191.414145 35.4358333 191.43796 38.0791667 191.414145 39.6326667 191.414145 40.0226667 191.808175 40.0725 193.955855 40.0725 194.79371 40.0725 195.65971 40.0465 196.159825 40.0226667 198.59545 39.8406667 199.983215 38.0791667 199.983215 36.3675 199.978885 34.7316667 198.749165 33.1521667 195.97147 32.9961667z"/>
    </g>
    <path fill="#FFFA9F" d="M81.4482332,31.2886594 L78.1894133,34.3078178 C74.3149735,29.8310803 68.4852868,27.0900824 61.8227556,27.0900824 C49.8010408,27.0900824 40.4590304,35.4529458 40.4590304,47.8415792 C40.4590304,60.229987 49.8010408,68.5933015 61.6053056,68.5933015 C73.1923459,68.5933015 80.5430555,61.5835662 81.1947293,50.4788026 L64.0312809,50.4788026 L64.0312809,46.5229675 L85.9745721,46.5229675 C86.0469052,46.9739349 86.0469052,47.2861605 86.0469052,47.6678698 C86.0469052,61.930308 76.6323365,72.6531367 61.6053056,72.6531367 C48.0990724,72.6531367 35.860133,63.2838872 35.860133,47.8415792 C35.860133,33.2319479 47.0852825,22.9948286 61.8227556,22.9948286 C69.7888598,22.9948286 76.8135072,26.1182126 81.4482332,31.2886594"/>
    <path stroke="#000" stroke-linecap="round" stroke-linejoin="round" stroke-width="1.127" d="M80.5162381 30.3082846C80.8364156 30.6263757 81.1469113 30.9530395 81.4474999 31.2887271L80.4558952 32.208033M79.1816611 33.3881999L78.1895034 34.3044413C77.8943123 33.9644764 77.587629 33.6346295 77.2703549 33.3151254"/>
    <path stroke="#000" stroke-dasharray="2.732 2.732" stroke-linecap="round" stroke-linejoin="round" stroke-width="1.127" d="M75.221751,31.5083228 C71.5911256,28.7158889 66.9539209,27.0900148 61.8227781,27.0900148 C49.800838,27.0900148 40.4588276,35.4528781 40.4588276,47.8415115 C40.4588276,60.2299193 49.800838,68.5934594 61.6053282,68.5934594 C72.2222938,68.5934594 79.2827697,62.7080972 80.891674,53.1798022"/>
    <path stroke="#000" stroke-linecap="round" stroke-linejoin="round" stroke-width="1.127" d="M81.0805061,51.8276443 C81.1298549,51.3852495 81.1679368,50.93541 81.1947519,50.4788026 L79.8427315,50.4788026"/>
    <path stroke="#000" stroke-dasharray="2.892 2.892" stroke-linecap="round" stroke-linejoin="round" stroke-width="1.127" d="M76.9507373,50.4789154 L66.8292872,50.4789154"/>
    <polyline stroke="#000" stroke-linecap="round" stroke-linejoin="round" stroke-width="1.127" points="65.383 50.479 64.031 50.479 64.031 49.125"/>
    <polyline stroke="#000" stroke-linecap="round" stroke-linejoin="round" stroke-width="1.127" points="64.031 47.877 64.031 46.523 65.383 46.523"/>
    <path stroke="#000" stroke-dasharray="2.748 2.748" stroke-linecap="round" stroke-linejoin="round" stroke-width="1.127" d="M68.1318011,46.5230351 L83.2482906,46.5230351"/>
    <path stroke="#000" stroke-linecap="round" stroke-linejoin="round" stroke-width="1.127" d="M84.6225292,46.5230351 L85.9745496,46.5230351 C86.0468827,46.9740026 86.0468827,47.2862282 86.0468827,47.6679375 C86.0468827,47.7365189 86.0466574,47.8048746 86.0462067,47.8732304"/>
    <path stroke="#000" stroke-dasharray="2.74 2.74" stroke-linecap="round" stroke-linejoin="round" stroke-width="1.127" d="M85.9094048,50.6123106 C84.6995718,63.3808486 75.5790675,72.6533171 61.6054859,72.6533171 C48.0990274,72.6533171 35.8603133,63.2838421 35.8603133,47.8415341 C35.8603133,33.2319028 47.0852374,22.9950091 61.8227105,22.9950091 C68.7495617,22.9950091 74.9643489,25.356328 79.5150242,29.3717206"/>
    <path stroke="#000" stroke-dasharray="2.704" stroke-linecap="round" stroke-linejoin="round" stroke-width="1.127" d="M110.302332 86.0597067C110.302332 91.3506221 105.845622 95.6394377 100.347631 95.6394377L21.1088693 95.6394377C15.6111036 95.6394377 11.1541684 91.3506221 11.1541684 86.0597067L11.1541684 9.80514707C11.1541684 4.51445727 15.6111036.225416052 21.1088693.225416052L100.347631.225416052C105.845622.225416052 110.302332 4.51445727 110.302332 9.80514707L110.302332 86.0597067zM96.7020203 57.0384052L110.302219 49.6584659M.775586507 55.2902351L11.1541458 49.6584434M19.8184109 101.708052L33.7304755 95.9192451M63.8829643 102.141852L77.7950289 95.6394829M63.8829643 102.141852L77.7950289 95.6394829M24.4018277 8.06543688L42.8686238.381167896M69.6026416 8.07953666L86.039379.397298048"/>
    <path fill="#303030" d="M71.4207485,38.4039965 L68.1619286,41.4231549 C64.2874888,36.9464174 58.4578021,34.2051939 51.7952709,34.2051939 C39.7735561,34.2051939 30.4315458,42.5682829 30.4315458,54.9569163 C30.4315458,67.3453241 39.7735561,75.6824694 51.5778209,75.6824694 C63.1648612,75.6824694 70.5155708,68.6009944 71.1672446,57.5415757 L53.968193,57.5415757 L53.968193,53.6383046 L75.9470875,53.6383046 C76.0194205,54.089272 76.0194205,54.4014976 76.0194205,54.7832069 C76.0194205,69.0456451 66.6048518,79.7684738 51.5778209,79.7684738 C38.0715877,79.7684738 25.8328737,70.3992243 25.8328737,54.9569163 C25.8328737,40.347285 37.0577978,30.1101657 51.7952709,30.1101657 C59.7613751,30.1101657 66.7860225,33.2335497 71.4207485,38.4039965"/>
    <g transform="translate(0 7.761)">
      <mask id="logo-en-b" fill="#fff">
        <use xlink:href="#logo-en-a"/>
      </mask>
      <path fill="#303030" d="M88.4090201,92.494577 L11.4150632,92.494577 C7.10887824,92.494577 3.60534269,89.2344816 3.60534269,85.0925293 L3.60534269,10.9987332 C3.60534269,6.85700651 7.10887824,3.38394794 11.4150632,3.38394794 L88.4090201,3.38394794 C92.7152051,3.38394794 96.2187406,6.85700651 96.2187406,10.9987332 L96.2187406,85.0925293 C96.2187406,89.2344816 92.7152051,92.494577 88.4090201,92.494577 M88.3105479,0 L11.5135354,0 C5.16489823,0 -4.50673469e-05,4.98139696 -4.50673469e-05,11.0932581 L-4.50673469e-05,84.9982299 C-4.50673469e-05,91.1098655 5.16489823,96.1041215 11.5135354,96.1041215 L88.3105479,96.1041215 C94.6591851,96.1041215 99.8241284,91.1098655 99.8241284,84.9982299 L99.8241284,11.0932581 C99.8241284,4.98139696 94.6591851,0 88.3105479,0" mask="url(#logo-en-b)"/>
    </g>
  </g>
</svg>
