<svg xmlns="http://www.w3.org/2000/svg" xmlns:xlink="http://www.w3.org/1999/xlink" width="200" height="60" viewBox="0 0 200 60">
  <defs>
    <polygon id="logo-ja-s-a" points="0 0 46.108 0 46.108 44.356 0 44.356"/>
  </defs>
  <g fill="none" fill-rule="evenodd" transform="translate(6 6)">
    <g fill="#181818" fill-rule="nonzero" transform="translate(65 4)">
      <path d="M4.754,5.98 L4.492,6.433 C3.365,5.802 2.168,5.32 0.931,4.962 L1.122,4.495 C2.334,4.826 3.543,5.32 4.754,5.98 Z M11.078,4.262 C10.322,6.076 9.18,7.7 7.668,9.102 C6.018,10.627 4.148,11.672 2.045,12.237 L1.783,11.741 C3.804,11.192 5.633,10.188 7.269,8.718 C8.753,7.343 9.867,5.804 10.595,4.072 L11.078,4.262 Z M5.977,2.791 L5.688,3.217 C4.741,2.584 3.557,2.076 2.141,1.692 L2.334,1.182 C3.764,1.582 4.973,2.117 5.977,2.791 Z M10.432,2.9 L10.116,3.121 C9.677,2.433 9.194,1.814 8.7,1.293 L9.003,1.045 C9.551,1.623 10.033,2.242 10.432,2.9 Z M11.779,1.912 L11.449,2.144 C11.008,1.443 10.541,0.839 10.047,0.316 L10.35,0.054 C10.898,0.646 11.381,1.266 11.779,1.912 Z"/>
      <polygon points="25.195 4.867 25.195 5.347 22.144 5.347 22.144 11.025 25.882 11.025 25.882 11.507 17.88 11.507 17.88 11.025 21.62 11.025 21.62 5.347 18.581 5.347 18.581 4.867"/>
      <path d="M38.049.482L38.049 2.488 41.541 2.488 41.98 2.818C41.019 4.414 39.712 5.857 38.048 7.134L38.048 12.208 37.527 12.208 37.527 7.52C36.179 8.454 34.638 9.307 32.879 10.063L32.66 9.608C34.461 8.852 36.098 7.932 37.555 6.833 39.149 5.622 40.387 4.343 41.252 2.983L33.236 2.983 33.236 2.487 37.527 2.487 37.527.481 38.049.481 38.049.482zM41.486 8.291C42.365 8.826 43.08 9.295 43.644 9.693L43.328 10.105C42.779 9.72 42.049 9.251 41.156 8.716 40.22 8.138 39.492 7.726 38.97 7.478L39.259 7.039C39.795 7.301 40.537 7.713 41.486 8.291zM51.328 1.072L51.328 11.535C52.689 11.109 54.037 10.435 55.357 9.514 56.732 8.551 57.845 7.479 58.724 6.297L59.15 6.6C58.189 7.907 56.992 9.047 55.562 10.038 54.146 10.999 52.662 11.7 51.095 12.142L50.792 11.894 50.792 1.074 51.328 1.074 51.328 1.072z"/>
      <polygon points="74.41 6.256 74.41 6.764 64.635 6.764 64.635 6.256"/>
      <path d="M84.955,0.77 C84.775,1.321 84.541,1.899 84.267,2.475 L89.353,2.475 L89.724,2.682 C89.367,4.827 88.583,6.723 87.359,8.401 C86.054,10.161 84.418,11.454 82.451,12.251 L82.178,11.784 C84.033,11.013 85.586,9.831 86.824,8.237 C86.892,8.139 86.961,8.044 87.043,7.948 C86.631,7.645 86.123,7.288 85.504,6.876 C84.652,6.325 83.965,5.913 83.428,5.638 L83.717,5.253 C84.295,5.556 84.983,5.968 85.779,6.478 C86.425,6.89 86.947,7.234 87.345,7.523 C88.24,6.148 88.845,4.634 89.146,2.959 L84.005,2.959 C83.771,3.371 83.509,3.783 83.235,4.195 C82.464,5.295 81.653,6.203 80.788,6.931 L80.431,6.574 C81.31,5.832 82.12,4.896 82.878,3.783 C83.607,2.683 84.142,1.625 84.472,0.607 L84.955,0.77 Z"/>
      <polygon points="107.377 6.201 107.377 6.668 95.154 6.668 95.154 6.201"/>
    </g>
    <g fill="#181818" fill-rule="nonzero" transform="translate(65 18)">
      <path d="M4.754,6.453 L4.492,6.906 C3.365,6.275 2.168,5.793 0.931,5.435 L1.122,4.968 C2.334,5.299 3.543,5.793 4.754,6.453 Z M11.078,4.734 C10.322,6.548 9.18,8.172 7.668,9.574 C6.018,11.099 4.148,12.144 2.045,12.709 L1.783,12.213 C3.804,11.664 5.633,10.66 7.269,9.19 C8.753,7.815 9.867,6.276 10.595,4.544 L11.078,4.734 Z M5.977,3.264 L5.688,3.69 C4.741,3.057 3.557,2.549 2.141,2.165 L2.334,1.655 C3.764,2.055 4.973,2.59 5.977,3.264 Z M10.432,3.373 L10.116,3.594 C9.677,2.906 9.194,2.287 8.7,1.766 L9.003,1.518 C9.551,2.096 10.033,2.715 10.432,3.373 Z M11.779,2.385 L11.449,2.617 C11.008,1.916 10.541,1.312 10.047,0.789 L10.35,0.527 C10.898,1.119 11.381,1.738 11.779,2.385 Z"/>
      <polygon points="25.195 5.34 25.195 5.82 22.144 5.82 22.144 11.498 25.882 11.498 25.882 11.98 17.88 11.98 17.88 11.498 21.62 11.498 21.62 5.82 18.581 5.82 18.581 5.34"/>
      <path d="M38.049.955L38.049 2.961 41.541 2.961 41.98 3.291C41.019 4.887 39.712 6.33 38.048 7.607L38.048 12.681 37.527 12.681 37.527 7.993C36.179 8.927 34.638 9.78 32.879 10.536L32.66 10.081C34.461 9.325 36.098 8.405 37.555 7.306 39.149 6.095 40.387 4.816 41.252 3.456L33.236 3.456 33.236 2.96 37.527 2.96 37.527.954 38.049.954 38.049.955zM41.486 8.764C42.365 9.299 43.08 9.768 43.644 10.166L43.328 10.578C42.779 10.193 42.049 9.724 41.156 9.189 40.22 8.611 39.492 8.199 38.97 7.951L39.259 7.512C39.795 7.773 40.537 8.186 41.486 8.764zM51.328 1.545L51.328 12.008C52.689 11.582 54.037 10.908 55.357 9.987 56.732 9.024 57.845 7.952 58.724 6.77L59.15 7.073C58.189 8.38 56.992 9.52 55.562 10.511 54.146 11.472 52.662 12.173 51.095 12.615L50.792 12.367 50.792 1.547 51.328 1.547 51.328 1.545z"/>
      <polygon points="74.41 6.729 74.41 7.237 64.635 7.237 64.635 6.729"/>
      <path d="M84.955,1.242 C84.775,1.793 84.541,2.371 84.267,2.947 L89.353,2.947 L89.724,3.154 C89.367,5.299 88.583,7.195 87.359,8.873 C86.054,10.633 84.418,11.926 82.451,12.723 L82.178,12.256 C84.033,11.485 85.586,10.303 86.824,8.709 C86.892,8.611 86.961,8.516 87.043,8.42 C86.631,8.117 86.123,7.76 85.504,7.348 C84.652,6.797 83.965,6.385 83.428,6.11 L83.717,5.725 C84.295,6.028 84.983,6.44 85.779,6.95 C86.425,7.362 86.947,7.706 87.345,7.995 C88.24,6.62 88.845,5.106 89.146,3.431 L84.005,3.431 C83.771,3.843 83.509,4.255 83.235,4.667 C82.464,5.767 81.653,6.675 80.788,7.403 L80.431,7.046 C81.31,6.304 82.12,5.368 82.878,4.255 C83.607,3.155 84.142,2.097 84.472,1.079 L84.955,1.242 Z"/>
      <polygon points="107.377 6.674 107.377 7.141 95.154 7.141 95.154 6.674"/>
    </g>
    <g fill="#181818" fill-rule="nonzero" transform="translate(65 37)">
      <path d="M3.504 2.885C3.377 2.885 3.307 2.783 3.307 2.682 3.307 2.487 3.473 2.487 3.735 2.487 4.053 2.487 4.424 2.493 4.673 2.501 5.075 2.507 5.267 2.728 5.267 3.075 5.267 3.739 4.634 4.856 3.226 4.856 2.021 4.856.988 3.94.988 2.538.988 1.356 1.785.143 3.314.143 4.214.143 4.904.68 4.904.946 4.904 1.065 4.8 1.161 4.693 1.161 4.629 1.161 4.566 1.13 4.513 1.059 4.234.68 3.775.51 3.302.51 2.089.51 1.396 1.514 1.396 2.537 1.396 3.566 2.078 4.439 3.238 4.439 4.451 4.439 4.82 3.509 4.82 3.162 4.82 2.865 4.591 2.865 4.412 2.865 4.183 2.865 3.807 2.871 3.514 2.885L3.504 2.885zM10.293 4.799C10.209 4.805 9.834 4.805 9.457 4.805 9.088 4.805 8.711 4.805 8.627 4.799 8.066 4.754 7.793 4.502 7.773 4.092 7.759 3.826 7.759 3.371 7.759 2.871 7.759 2.121 7.767 1.287 7.779.889 7.793.479 8.047.231 8.519.205 8.64.199 8.998.193 9.347.193 9.704.193 10.05.199 10.146.205 10.279.213 10.349.301 10.349.389 10.349.479 10.273.567 10.132.567 10.101.567 9.495.561 9.042.561 8.397.561 8.192.561 8.161.946 8.15 1.098 8.156 1.627 8.15 2 8.15 2.121 8.212 2.121 8.277 2.121 8.404 2.127 8.73 2.127 9.054 2.127 9.38 2.127 9.712 2.127 9.839 2.121 10.036 2.113 10.056 2.26 10.056 2.303 10.056 2.399 9.98 2.5 9.839 2.5L9.825 2.5C9.628 2.486 9.27 2.486 8.938 2.486 8.149 2.486 8.141 2.486 8.141 2.613 8.141 3.586 8.141 3.883 8.161 4.035 8.186 4.273 8.321 4.414 8.659 4.439 8.766 4.445 9.118 4.445 9.468 4.445 9.825 4.445 10.183 4.445 10.298 4.439L10.318 4.439C10.445 4.439 10.515 4.521 10.515 4.609 10.515 4.697 10.445 4.793 10.293 4.799zM16.537 4.375C16.537 4.66 16.314 4.83 16.078 4.83 15.926 4.83 15.76 4.754 15.65 4.584 15.197 3.863 13.82 1.375 13.476.787 13.431.711 13.374.66 13.33.66 13.24.66 13.24.75 13.24 1.191 13.24 2 13.252 3.964 13.271 4.621L13.271 4.629C13.271 4.754 13.164 4.818 13.054 4.818 12.947 4.818 12.837 4.754 12.837 4.629L12.837 4.621C12.851 4.041 12.857 3.377 12.857 2.732 12.857 1.988 12.851 1.267 12.837.705L12.837.685C12.837.345 13.034.187 13.251.187 13.431.187 13.616.289 13.737.484 14.132 1.14 15.446 3.498 15.919 4.23 15.956 4.292 16.007 4.332 16.046 4.332 16.128 4.332 16.128 4.211 16.128 4.021 16.128 3.345 16.108 1.001 16.091.402L16.091.396C16.091.25 16.198.181 16.3.181 16.415.181 16.525.255 16.525.396L16.525.402C16.511.761 16.511 1.222 16.511 1.716 16.511 2.655 16.525 3.712 16.536 4.368L16.536 4.375 16.537 4.375zM21.846 4.799C21.764 4.805 21.387 4.805 21.01 4.805 20.641 4.805 20.264 4.805 20.182 4.799 19.621 4.754 19.346 4.502 19.327 4.092 19.315 3.826 19.315 3.371 19.315 2.871 19.315 2.121 19.321 1.287 19.335.889 19.347.479 19.603.231 20.073.205 20.194.199 20.552.193 20.903.193 21.26.193 21.604.199 21.7.205 21.835.213 21.905.301 21.905.389 21.905.479 21.827.567 21.688.567 21.655.567 21.049.561 20.596.561 19.951.561 19.748.561 19.717.946 19.703 1.098 19.709 1.628 19.703 2.001 19.703 2.122 19.767 2.122 19.83 2.122 19.959 2.128 20.283 2.128 20.609 2.128 20.933 2.128 21.265 2.128 21.392 2.122 21.591 2.114 21.609 2.261 21.609 2.304 21.609 2.4 21.533 2.501 21.392 2.501L21.38 2.501C21.183 2.487 20.825 2.487 20.493 2.487 19.702 2.487 19.696 2.487 19.696 2.614 19.696 3.587 19.696 3.884 19.716 4.036 19.741 4.274 19.874 4.415 20.212 4.44 20.321 4.446 20.671 4.446 21.023 4.446 21.38 4.446 21.738 4.446 21.853 4.44L21.871 4.44C22 4.44 22.07 4.522 22.07 4.61 22.07 4.698 22 4.793 21.846 4.799zM26.203 2.518C26.203 2.543 26.228 2.575 26.273 2.614 26.625 2.936 26.898 3.485 27.146 3.889 27.326 4.174 27.511 4.364 27.798 4.395 27.925 4.407 27.995 4.508 27.995 4.61 27.995 4.717 27.911 4.819 27.733 4.819 27.592 4.819 27.153 4.717 26.807 4.098 26.545 3.637 26.01 2.582 25.565 2.569 25.475 2.569 25.2 2.557 25.036 2.557 24.856 2.557 24.831 2.594 24.831 2.676 24.831 3.162 24.851 4.375 24.851 4.61 24.851 4.737 24.742 4.799 24.64 4.799 24.538 4.799 24.443 4.742 24.443 4.615 24.455 3.408 24.449 1.545 24.468.863 24.488.174 25.124.174 25.616.174 25.757.174 25.895.182 25.991.188 26.923.25 27.325.788 27.325 1.325 27.325 1.868 26.917 2.411 26.261 2.487 26.223 2.486 26.203 2.5 26.203 2.518zM25.949.51C25.859.504 25.719.496 25.572.496 25.099.496 24.877.586 24.851.945 24.837 1.103 24.845 1.748 24.837 2.127 24.837 2.221 24.933 2.234 25.456 2.234 25.661 2.234 25.87 2.226 25.991 2.22 26.585 2.177 26.923 1.747 26.923 1.329 26.924.932 26.625.547 25.949.51zM33.387 4.805C33.311 4.805 33.227 4.76 33.19 4.66 33.112 4.476 32.87 3.826 32.672 3.244 32.652 3.193 32.633 3.168 32.57 3.168 32.468 3.162 32.162 3.162 31.836 3.162 31.383 3.162 30.879 3.162 30.746 3.168 30.687 3.168 30.662 3.207 30.65 3.244 30.484 3.75 30.287 4.344 30.191 4.652 30.158 4.759 30.07 4.804 29.986 4.804 29.89 4.804 29.789 4.742 29.789 4.634 29.789 4.614 29.795 4.589 29.801 4.57 30.158 3.427 30.905 1.4 31.211.527 31.295.3 31.473.193 31.645.193 31.831.193 32.016.306 32.098.535 32.52 1.697 33.362 4.002 33.578 4.508 33.59 4.539 33.598 4.57 33.598 4.604 33.598 4.723 33.494 4.805 33.387 4.805zM32.494 2.727C32.295 2.133 31.887 1.047 31.785.731 31.754.635 31.709.592 31.658.592 31.607.592 31.556.643 31.517.742 31.382 1.103 30.816 2.726 30.816 2.777 30.816 2.802 30.836 2.814 30.886 2.814 31.013 2.814 31.357 2.822 31.689 2.822 32.027 2.822 32.353 2.814 32.449 2.814 32.494 2.814 32.506 2.802 32.506 2.783 32.506 2.764 32.5 2.746 32.494 2.727zM37.043 4.615C37.043 4.748 36.934 4.818 36.818 4.818 36.705 4.818 36.595 4.748 36.595 4.615L36.595 4.609C36.609 4.052 36.62 2.916 36.62 1.949 36.62 1.443 36.614.982 36.608.685 36.608.597 36.594.578 36.167.578 35.894.578 35.536.592 35.229.592 35.088.592 35.02.496 35.02.408 35.02.312 35.088.224 35.223.224L35.229.224C35.618.23 36.295.238 36.965.238 37.512.238 38.055.23 38.424.224L38.432.224C38.559.224 38.623.32 38.623.408 38.623.504 38.559.592 38.437.592L38.431.592C38.195.586 37.964.578 37.767.578 37.46.578 37.224.586 37.128.592 37.071.592 37.026.604 37.026.686 37.02.991 37.014 1.401 37.014 1.848 37.014 2.834 37.032 4.002 37.039 4.61L37.039 4.615 37.043 4.615zM40 2.506C40 1.135 40.988.143 42.314.143 43.64.143 44.63 1.135 44.63 2.506 44.63 3.928 43.64 4.856 42.314 4.856 40.988 4.856 40 3.928 40 2.506zM44.215 2.506C44.215 1.299 43.367.496 42.315.496 41.263.496 40.415 1.299 40.415 2.506 40.415 3.705 41.263 4.496 42.315 4.496 43.367 4.496 44.215 3.705 44.215 2.506zM48.76 2.518C48.76 2.543 48.785 2.575 48.83 2.614 49.182 2.936 49.455 3.485 49.703 3.889 49.883 4.174 50.068 4.364 50.355 4.395 50.482 4.407 50.552 4.508 50.552 4.61 50.552 4.717 50.468 4.819 50.29 4.819 50.149 4.819 49.71 4.717 49.364 4.098 49.102 3.637 48.567 2.582 48.122 2.569 48.032 2.569 47.757 2.557 47.593 2.557 47.413 2.557 47.388 2.594 47.388 2.676 47.388 3.162 47.408 4.375 47.408 4.61 47.408 4.737 47.299 4.799 47.197 4.799 47.095 4.799 47 4.742 47 4.615 47.012 3.408 47.006 1.545 47.025.863 47.045.174 47.681.174 48.173.174 48.314.174 48.452.182 48.548.188 49.48.25 49.882.788 49.882 1.325 49.882 1.868 49.474 2.411 48.818 2.487 48.779 2.486 48.76 2.5 48.76 2.518zM48.506.51C48.416.504 48.276.496 48.129.496 47.656.496 47.434.586 47.408.945 47.394 1.103 47.402 1.748 47.394 2.127 47.394 2.221 47.49 2.234 48.013 2.234 48.218 2.234 48.427 2.226 48.548 2.22 49.142 2.177 49.48 1.747 49.48 1.329 49.48.932 49.182.547 48.506.51zM59.6 2.885C59.473 2.885 59.403 2.783 59.403 2.682 59.403 2.487 59.569 2.487 59.831 2.487 60.149 2.487 60.52 2.493 60.769 2.501 61.171 2.507 61.363 2.728 61.363 3.075 61.363 3.739 60.73 4.856 59.322 4.856 58.117 4.856 57.084 3.94 57.084 2.538 57.084 1.356 57.881.143 59.41.143 60.31.143 61 .68 61 .946 61 1.065 60.896 1.161 60.789 1.161 60.725 1.161 60.662 1.13 60.609 1.059 60.33.68 59.871.51 59.398.51 58.185.51 57.492 1.514 57.492 2.537 57.492 3.566 58.174 4.439 59.334 4.439 60.547 4.439 60.916 3.509 60.916 3.162 60.916 2.865 60.687 2.865 60.508 2.865 60.279 2.865 59.903 2.871 59.61 2.885L59.6 2.885zM66.389 4.799C66.305 4.805 65.93 4.805 65.553 4.805 65.184 4.805 64.807 4.805 64.723 4.799 64.162 4.754 63.889 4.502 63.869 4.092 63.855 3.826 63.855 3.371 63.855 2.871 63.855 2.121 63.863 1.287 63.875.889 63.889.479 64.143.231 64.615.205 64.736.199 65.094.193 65.443.193 65.8.193 66.146.199 66.242.205 66.375.213 66.445.301 66.445.389 66.445.479 66.369.567 66.228.567 66.197.567 65.591.561 65.138.561 64.493.561 64.288.561 64.257.946 64.245 1.098 64.251 1.628 64.245 2.001 64.245 2.122 64.307 2.122 64.372 2.122 64.499 2.128 64.825 2.128 65.149 2.128 65.475 2.128 65.807 2.128 65.934 2.122 66.131 2.114 66.151 2.261 66.151 2.304 66.151 2.4 66.075 2.501 65.934 2.501L65.92 2.501C65.723 2.487 65.365 2.487 65.033 2.487 64.244 2.487 64.236 2.487 64.236 2.614 64.236 3.587 64.236 3.884 64.256 4.036 64.281 4.274 64.416 4.415 64.754 4.44 64.861 4.446 65.213 4.446 65.563 4.446 65.92 4.446 66.278 4.446 66.393 4.44L66.413 4.44C66.54 4.44 66.61 4.522 66.61 4.61 66.61 4.698 66.541 4.793 66.389 4.799zM72.633 4.375C72.633 4.66 72.41 4.83 72.174 4.83 72.022 4.83 71.856 4.754 71.746 4.584 71.293 3.863 69.916 1.375 69.572.787 69.527.711 69.47.66 69.426.66 69.336.66 69.336.75 69.336 1.191 69.336 2 69.348 3.964 69.367 4.621L69.367 4.629C69.367 4.754 69.26 4.818 69.15 4.818 69.043 4.818 68.933 4.754 68.933 4.629L68.933 4.621C68.947 4.041 68.953 3.377 68.953 2.732 68.953 1.988 68.947 1.267 68.933.705L68.933.685C68.933.345 69.13.187 69.347.187 69.527.187 69.712.289 69.833.484 70.228 1.14 71.542 3.498 72.015 4.23 72.052 4.292 72.103 4.332 72.142 4.332 72.224 4.332 72.224 4.211 72.224 4.021 72.224 3.345 72.204 1.001 72.187.402L72.187.396C72.187.25 72.294.181 72.396.181 72.511.181 72.621.255 72.621.396L72.621.402C72.607.761 72.607 1.222 72.607 1.716 72.607 2.655 72.621 3.712 72.632 4.368L72.632 4.375 72.633 4.375zM77.941 4.799C77.857 4.805 77.482 4.805 77.105 4.805 76.736 4.805 76.359 4.805 76.275 4.799 75.714 4.754 75.441 4.502 75.421 4.092 75.407 3.826 75.407 3.371 75.407 2.871 75.407 2.121 75.415 1.287 75.427.889 75.441.479 75.695.231 76.167.205 76.288.199 76.646.193 76.995.193 77.352.193 77.698.199 77.794.205 77.927.213 77.997.301 77.997.389 77.997.479 77.921.567 77.78.567 77.749.567 77.143.561 76.69.561 76.045.561 75.84.561 75.809.946 75.797 1.098 75.803 1.628 75.797 2.001 75.797 2.122 75.859 2.122 75.924 2.122 76.051 2.128 76.377 2.128 76.701 2.128 77.027 2.128 77.359 2.128 77.486 2.122 77.683 2.114 77.703 2.261 77.703 2.304 77.703 2.4 77.627 2.501 77.486 2.501L77.472 2.501C77.275 2.487 76.917 2.487 76.585 2.487 75.796 2.487 75.788 2.487 75.788 2.614 75.788 3.587 75.788 3.884 75.808 4.036 75.833 4.274 75.968 4.415 76.306 4.44 76.413 4.446 76.765 4.446 77.115 4.446 77.472 4.446 77.83 4.446 77.945 4.44L77.965 4.44C78.092 4.44 78.162 4.522 78.162 4.61 78.162 4.698 78.094 4.793 77.941 4.799zM82.299 2.518C82.299 2.543 82.324 2.575 82.369 2.614 82.719 2.936 82.994 3.485 83.242 3.889 83.42 4.174 83.605 4.364 83.892 4.395 84.019 4.407 84.089 4.508 84.089 4.61 84.089 4.717 84.007 4.819 83.827 4.819 83.688 4.819 83.247 4.717 82.903 4.098 82.641 3.637 82.106 2.582 81.659 2.569 81.569 2.569 81.296 2.557 81.13 2.557 80.952 2.557 80.927 2.594 80.927 2.676 80.927 3.162 80.945 4.375 80.945 4.61 80.945 4.737 80.838 4.799 80.736 4.799 80.632 4.799 80.537 4.742 80.537 4.615 80.551 3.408 80.545 1.545 80.562.863 80.582.174 81.22.174 81.71.174 81.851.174 81.991.182 82.087.188 83.019.25 83.419.788 83.419 1.325 83.419 1.868 83.011 2.411 82.355 2.487 82.316 2.486 82.299 2.5 82.299 2.518zM82.043.51C81.953.504 81.813.496 81.666.496 81.195.496 80.971.586 80.945.945 80.933 1.103 80.939 1.748 80.933 2.127 80.933 2.221 81.029 2.234 81.552 2.234 81.755 2.234 81.966 2.226 82.087 2.22 82.681 2.177 83.019 1.747 83.019 1.329 83.02.932 82.719.547 82.043.51zM89.482 4.805C89.406 4.805 89.322 4.76 89.285 4.66 89.207 4.476 88.965 3.826 88.767 3.244 88.747 3.193 88.728 3.168 88.665 3.168 88.563 3.162 88.257 3.162 87.931 3.162 87.478 3.162 86.974 3.162 86.841 3.168 86.782 3.168 86.757 3.207 86.745 3.244 86.579 3.75 86.382 4.344 86.286 4.652 86.253 4.759 86.165 4.804 86.081 4.804 85.985 4.804 85.884 4.742 85.884 4.634 85.884 4.614 85.89 4.589 85.896 4.57 86.253 3.427 87 1.4 87.306.527 87.39.3 87.568.193 87.74.193 87.926.193 88.111.306 88.193.535 88.615 1.697 89.457 4.002 89.673 4.508 89.685 4.539 89.693 4.57 89.693 4.604 89.693 4.723 89.59 4.805 89.482 4.805zM88.59 2.727C88.391 2.133 87.983 1.047 87.881.731 87.85.635 87.805.592 87.754.592 87.703.592 87.652.643 87.613.742 87.478 1.103 86.912 2.726 86.912 2.777 86.912 2.802 86.932 2.814 86.982 2.814 87.109 2.814 87.453 2.822 87.785 2.822 88.123 2.822 88.449 2.814 88.545 2.814 88.59 2.814 88.602 2.802 88.602 2.783 88.602 2.764 88.596 2.746 88.59 2.727zM93.137 4.615C93.137 4.748 93.03 4.818 92.914 4.818 92.798 4.818 92.691 4.748 92.691 4.615L92.691 4.609C92.703 4.052 92.716 2.916 92.716 1.949 92.716 1.443 92.708.982 92.702.685 92.702.597 92.69.578 92.263.578 91.988.578 91.632.592 91.325.592 91.184.592 91.114.496 91.114.408 91.114.312 91.184.224 91.319.224L91.325.224C91.714.23 92.389.238 93.059.238 93.608.238 94.149.23 94.52.224L94.526.224C94.653.224 94.717.32 94.717.408 94.717.504 94.653.592 94.531.592L94.525.592C94.289.586 94.06.578 93.861.578 93.556.578 93.32.586 93.224.592 93.167.592 93.122.604 93.122.686 93.114.991 93.108 1.401 93.108 1.848 93.108 2.834 93.128 4.002 93.133 4.61L93.133 4.615 93.137 4.615zM96.1 2.506C96.1 1.135 97.088.143 98.416.143 99.742.143 100.73 1.135 100.73 2.506 100.73 3.928 99.742 4.856 98.416 4.856 97.088 4.855 96.1 3.928 96.1 2.506zM100.316 2.506C100.316 1.299 99.468.496 98.416.496 97.364.496 96.516 1.299 96.516 2.506 96.516 3.705 97.364 4.496 98.416 4.496 99.468 4.496 100.316 3.705 100.316 2.506zM104.76 2.518C104.76 2.543 104.785 2.575 104.83 2.614 105.182 2.936 105.455 3.485 105.703 3.889 105.883 4.174 106.068 4.364 106.355 4.395 106.482 4.407 106.552 4.508 106.552 4.61 106.552 4.717 106.468 4.819 106.29 4.819 106.149 4.819 105.71 4.717 105.364 4.098 105.102 3.637 104.567 2.582 104.122 2.569 104.032 2.569 103.757 2.557 103.593 2.557 103.413 2.557 103.388 2.594 103.388 2.676 103.388 3.162 103.408 4.375 103.408 4.61 103.408 4.737 103.299 4.799 103.197 4.799 103.095 4.799 103 4.742 103 4.615 103.012 3.408 103.006 1.545 103.025.863 103.045.174 103.681.174 104.173.174 104.314.174 104.452.182 104.548.188 105.48.25 105.882.788 105.882 1.325 105.882 1.868 105.474 2.411 104.818 2.487 104.78 2.486 104.76 2.5 104.76 2.518zM104.507.51C104.417.504 104.277.496 104.13.496 103.657.496 103.435.586 103.409.945 103.395 1.103 103.403 1.748 103.395 2.127 103.395 2.221 103.491 2.234 104.014 2.234 104.219 2.234 104.428 2.226 104.549 2.22 105.143 2.177 105.481 1.747 105.481 1.329 105.481.932 105.182.547 104.507.51z"/>
    </g>
    <path fill="#FFFA9F" d="M37.620431,14.4409197 L36.1152024,15.8343774 C34.3256229,13.7681909 31.6329269,12.503115 28.5555453,12.503115 C23.0027902,12.503115 18.6877739,16.362898 18.6877739,22.0807289 C18.6877739,27.7984555 23.0027902,31.6584469 28.4551065,31.6584469 C33.8070882,31.6584469 37.2023351,28.4231844 37.5033392,23.2979089 L29.5756494,23.2979089 L29.5756494,21.4721388 L39.7111188,21.4721388 C39.744529,21.6802777 39.744529,21.8243818 39.744529,22.0005553 C39.744529,28.5832191 35.3959984,33.5322169 28.4551065,33.5322169 C22.2166616,33.5322169 16.5635718,29.2079479 16.5635718,22.0807289 C16.5635718,15.3378221 21.7483984,10.6129978 28.5555453,10.6129978 C32.2350392,10.6129978 35.47968,12.0545597 37.620431,14.4409197"/>
    <path stroke="#000" stroke-linecap="round" stroke-linejoin="round" stroke-width=".52" d="M37.1899483 13.988439C37.3378363 14.1352503 37.4812523 14.2860182 37.6200923 14.440951L37.1620763 14.865246M36.5735155 15.4099384L36.1152441 15.8328191C35.9788971 15.6759122 35.837242 15.5236751 35.6906951 15.3762117"/>
    <path stroke="#000" stroke-dasharray="1.261 1.261" stroke-linecap="round" stroke-linejoin="round" stroke-width=".52" d="M34.7444578,14.5423028 C33.0674945,13.2534872 30.9255986,12.5030837 28.5555557,12.5030837 C23.0026965,12.5030837 18.6876802,16.3628668 18.6876802,22.0806976 C18.6876802,27.7984243 23.0026965,31.6585197 28.4551169,31.6585197 C33.3590271,31.6585197 36.6202169,28.9421987 37.3633598,24.5445241"/>
    <path stroke="#000" stroke-linecap="round" stroke-linejoin="round" stroke-width=".52" d="M37.4505802,23.9204512 C37.4733741,23.716269 37.4909639,23.5086508 37.5033496,23.2979089 L36.8788598,23.2979089"/>
    <path stroke="#000" stroke-dasharray="1.335 1.335" stroke-linecap="round" stroke-linejoin="round" stroke-width=".52" d="M35.5430657,23.297961 L30.868031,23.297961"/>
    <polyline stroke="#000" stroke-linecap="round" stroke-linejoin="round" stroke-width=".52" points="30.2 23.298 29.576 23.298 29.576 22.673"/>
    <polyline stroke="#000" stroke-linecap="round" stroke-linejoin="round" stroke-width=".52" points="29.576 22.097 29.576 21.472 30.2 21.472"/>
    <path stroke="#000" stroke-dasharray="1.268 1.268" stroke-linecap="round" stroke-linejoin="round" stroke-width=".52" d="M31.4696541,21.4721701 L38.4518663,21.4721701"/>
    <path stroke="#000" stroke-linecap="round" stroke-linejoin="round" stroke-width=".52" d="M39.0866186,21.4721701 L39.7111084,21.4721701 C39.7445186,21.6803089 39.7445186,21.824413 39.7445186,22.0005866 C39.7445186,22.0322395 39.7444145,22.0637883 39.7442063,22.0953371"/>
    <path stroke="#000" stroke-dasharray="1.265 1.265" stroke-linecap="round" stroke-linejoin="round" stroke-width=".52" d="M39.6810184,23.359528 C39.1222041,29.2526993 34.9095,33.5323002 28.4551898,33.5323002 C22.2166408,33.5323002 16.5636551,29.2079271 16.5636551,22.080708 C16.5636551,15.3378013 21.7483776,10.6130811 28.5555245,10.6130811 C31.7549939,10.6130811 34.6255653,11.7029206 36.7274939,13.5561787"/>
    <path stroke="#000" stroke-dasharray="1.248" stroke-linecap="round" stroke-linejoin="round" stroke-width=".52" d="M50.9479592 39.7198646C50.9479592 42.1618256 48.8894327 44.141279 46.3499449 44.141279L9.7500551 44.141279C7.21067143 44.141279 5.15204082 42.1618256 5.15204082 39.7198646L5.15204082 4.52545249C5.15204082 2.08359566 7.21067143.104038178 9.7500551.104038178L46.3499449.104038178C48.8894327.104038178 50.9479592 2.08359566 50.9479592 4.52545249L50.9479592 39.7198646zM44.6660602 26.3254178L50.9479071 22.919292M.358238571 25.5185701L5.15203041 22.9192816M9.15400041 46.9421779L15.5798963 44.2704208M29.5071429 47.1423931L35.9330388 44.1412998M29.5071429 47.1423931L35.9330388 44.1412998M11.271052 3.72250933L19.80075.175923644M32.1490261 3.72901692L39.7410527.18336833"/>
    <path fill="#303030" d="M32.9887984,17.7249215 L31.4835698,19.1183792 C29.6939902,17.0521926 27.0012943,15.7870126 23.9239127,15.7870126 C18.3711576,15.7870126 14.0561412,19.6468998 14.0561412,25.3647306 C14.0561412,31.0824573 18.3711576,34.9303705 23.8234739,34.9303705 C29.1754555,34.9303705 32.5707024,31.6619974 32.8717065,26.5576503 L24.9275718,26.5576503 L24.9275718,24.7561406 L35.0794861,24.7561406 C35.1128963,24.9642794 35.1128963,25.1083835 35.1128963,25.284557 C35.1128963,31.8672208 30.7643657,36.8162187 23.8234739,36.8162187 C17.585029,36.8162187 11.9320433,32.4919497 11.9320433,25.3647306 C11.9320433,18.6218239 17.1167657,13.8969996 23.9239127,13.8969996 C27.6034065,13.8969996 30.8480473,15.3385614 32.9887984,17.7249215"/>
    <g transform="translate(0 3.582)">
      <mask id="logo-ja-s-b" fill="#fff">
        <use xlink:href="#logo-ja-s-a"/>
      </mask>
      <path fill="#303030" d="M40.8355751,42.6898048 L5.27254653,42.6898048 C3.28354653,42.6898048 1.66528531,41.1851453 1.66528531,39.2734751 L1.66528531,5.07633839 C1.66528531,3.16477223 3.28354653,1.56182213 5.27254653,1.56182213 L40.8355751,1.56182213 C42.8245751,1.56182213 44.4428363,3.16477223 44.4428363,5.07633839 L44.4428363,39.2734751 C44.4428363,41.1851453 42.8245751,42.6898048 40.8355751,42.6898048 M40.7900914,0 L5.3180302,0 C2.38563429,0 -2.08163265e-05,2.29910629 -2.08163265e-05,5.11996529 L-2.08163265e-05,39.2299523 C-2.08163265e-05,42.0507072 2.38563429,44.3557484 5.3180302,44.3557484 L40.7900914,44.3557484 C43.7224873,44.3557484 46.1081424,42.0507072 46.1081424,39.2299523 L46.1081424,5.11996529 C46.1081424,2.29910629 43.7224873,0 40.7900914,0" mask="url(#logo-ja-s-b)"/>
    </g>
  </g>
</svg>
