<?xml version="1.0" standalone="no"?>
<!DOCTYPE svg PUBLIC "-//W3C//DTD SVG 20010904//EN"
 "http://www.w3.org/TR/2001/REC-SVG-20010904/DTD/svg10.dtd">
<svg version="1.0" xmlns="http://www.w3.org/2000/svg"
 width="512.000000pt" height="512.000000pt" viewBox="0 0 512.000000 512.000000"
 preserveAspectRatio="xMidYMid meet">
<metadata>
Created by potrace 1.11, written by Peter Selinger 2001-2013
</metadata>
<g transform="translate(0.000000,512.000000) scale(0.100000,-0.100000)"
fill="#000000" stroke="none">
<path d="M725 4675 c-193 -53 -336 -196 -374 -373 -15 -73 -16 -3429 0 -3487
21 -78 72 -167 128 -224 65 -67 125 -104 219 -137 l67 -23 1790 0 c1718 -1
1792 0 1851 18 157 48 268 147 330 296 l29 70 0 1750 0 1750 -23 58 c-51 126
-163 235 -297 288 l-60 24 -1805 2 c-1501 2 -1813 0 -1855 -12z m3685 -166
c62 -29 133 -95 159 -148 43 -86 42 -53 39 -1821 l-3 -1695 -27 -57 c-29 -62
-89 -128 -141 -154 -86 -45 -35 -44 -1902 -41 l-1770 2 -67 33 c-74 36 -133
95 -170 170 l-23 47 -3 1694 c-3 1883 -7 1756 64 1852 54 74 127 121 214 140
19 4 831 6 1805 5 l1770 -1 55 -26z"/>
<path d="M2588 3705 c-2 -1 -37 -5 -78 -9 -389 -34 -729 -256 -894 -584 -45
-89 -91 -227 -101 -302 -4 -30 -9 -64 -11 -75 -9 -40 -5 -242 5 -305 23 -138
61 -255 118 -360 140 -259 395 -452 700 -529 115 -30 177 -36 338 -35 150 1
240 15 375 61 260 88 476 288 587 545 34 78 75 223 88 309 10 62 14 239 6 240
-8 1 -942 1 -961 0 -13 -1 -15 -15 -14 -78 1 -43 2 -82 3 -88 1 -7 134 -9 381
-8 l381 1 -7 -56 c-42 -365 -257 -624 -591 -712 -122 -32 -247 -41 -383 -27
-436 43 -765 356 -817 777 -58 466 191 867 622 1003 114 36 134 39 291 42 149
3 249 -11 364 -53 126 -45 249 -122 341 -215 l46 -47 74 69 74 70 -53 51
c-167 160 -424 281 -652 305 -64 7 -228 14 -232 10z"/>
</g>
</svg>
