<svg xmlns="http://www.w3.org/2000/svg" width="16" height="16" viewBox="0 0 16 16">
  <path fill="#4A4A4A" d="M12,2.4930871 L12,10.25 C12,11.2164983 11.2164983,12 10.25,12 L1.75,12 C0.783501688,12 1.18361906e-16,11.2164983 0,10.25 L0,5.5684659 L3.76625236,9.33471827 C4.15067471,9.71914062 4.77394649,9.71914062 5.15836884,9.33471827 L12,2.4930871 Z M11.333323,0.375531183 L4.4623106,7.24654355 L-1.94289029e-16,2.78423295 L0,1.75 C-1.18361906e-16,0.783501688 0.783501688,2.05104421e-15 1.75,1.87350135e-15 L10.25,1.87350135e-15 C10.6590654,1.79835725e-15 11.0353496,0.140353521 11.333323,0.375531183 Z" transform="translate(2 2)"/>
</svg>
