<svg xmlns="http://www.w3.org/2000/svg" xmlns:xlink="http://www.w3.org/1999/xlink" width="20" height="20" viewBox="0 0 20 20">
  <defs>
    <path id="cover-a" d="M3,0 L17,0 C18.6568542,-3.04359188e-16 20,1.34314575 20,3 L20,10 C20,11.6568542 18.6568542,13 17,13 L3,13 C1.34314575,13 2.02906125e-16,11.6568542 0,10 L0,3 C-2.02906125e-16,1.34314575 1.34314575,3.04359188e-16 3,0 Z"/>
  </defs>
  <g fill="none" fill-rule="evenodd" transform="translate(0 3)">
    <mask id="cover-b" fill="#fff">
      <use xlink:href="#cover-a"/>
    </mask>
    <path stroke="#4A4A4A" d="M3,0.5 C1.61928813,0.5 0.5,1.61928813 0.5,3 L0.5,10 C0.5,11.3807119 1.61928813,12.5 3,12.5 L17,12.5 C18.3807119,12.5 19.5,11.3807119 19.5,10 L19.5,3 C19.5,1.61928813 18.3807119,0.5 17,0.5 L3,0.5 Z"/>
    <circle cx="5" cy="5" r="2" stroke="#4A4A4A" mask="url(#cover-b)"/>
    <path fill="#4A4A4A" fill-rule="nonzero" d="M19.9859881,11.3630826 L19.2719642,12.063204 L13.249581,6.00066169 C13.0562478,5.80348944 12.7396807,5.80037726 12.5425084,5.99371043 C12.5291018,6.00685596 12.5164464,6.02074622 12.5046022,6.0353152 L8.83077538,10.5543096 C8.30819168,11.1971142 7.36345778,11.2945725 6.72065317,10.7719888 C6.68436784,10.7424898 6.64948184,10.71131 6.61610948,10.6785518 L5.64952358,9.72975283 C5.45695903,9.54073182 5.14915061,9.53860083 4.95398742,9.72493755 L1.69056218,12.8859968 L1,12.1627238 L4.26342524,9.00166452 C4.84891482,8.44265436 5.77234006,8.44904735 6.3500337,9.01611037 L7.3166196,9.96490931 C7.32774373,9.97582873 7.33937239,9.98622197 7.3514675,9.99605498 C7.56573571,10.1702496 7.880647,10.1377634 8.05484157,9.92349524 L11.7286684,5.40450087 C11.764201,5.36079391 11.8021674,5.31912313 11.8423871,5.27968655 C12.4339038,4.69968704 13.3836054,4.7090236 13.9636049,5.30054034 L19.9859881,11.3630826 Z" mask="url(#cover-b)"/>
  </g>
</svg>
