<svg xmlns="http://www.w3.org/2000/svg" width="20" height="20" viewBox="0 0 20 20">
  <path fill="#4A4A4A" d="M15.5459415,13.0710678 L6.23743687,3.76256313 C5.55401936,3.07914562 4.44598064,3.07914562 3.76256313,3.76256313 C3.07914562,4.44598064 3.07914562,5.55401936 3.76256313,6.23743687 L13.0710678,15.5459415 L15.4965698,16.1425544 C15.7647193,16.2085125 16.035567,16.044604 16.101525,15.7764545 C16.1200304,15.7012217 16.1207997,15.6227177 16.1037721,15.5471367 L15.5459415,13.0710678 Z M2.87867966,2.87867966 C4.05025253,1.70710678 5.94974747,1.70710678 7.12132034,2.87867966 L16.6066017,12.363961 C16.79695,12.5543093 17.1990364,13.988431 17.812861,16.6663262 L17.8128427,16.6663304 C17.9362344,17.2046439 17.5998738,17.741062 17.0615603,17.8644537 C16.9122007,17.8986897 16.756971,17.8981428 16.6078564,17.8628551 C13.998625,17.245385 12.5839932,16.8266339 12.363961,16.6066017 L2.87867966,7.12132034 C1.70710678,5.94974747 1.70710678,4.05025253 2.87867966,2.87867966 Z M9.67893219,5.42992611 L10.5628157,6.31380958 L6.32017498,10.5564503 L5.4362915,9.6725668 L9.67893219,5.42992611 Z M7.67893219,3.42992611 L8.56281566,4.31380958 L4.32017498,8.55645027 L3.4362915,7.6725668 L7.67893219,3.42992611 Z"/>
</svg>
