<svg xmlns="http://www.w3.org/2000/svg" width="16" height="16" viewBox="0 0 16 16">
  <path fill="#FFF" d="M13.5298476,5.84999033 C15.056427,6.86678006 16,8.58287253 16,10.4615385 C16,13.5203463 13.5203463,16 10.4615385,16 C9.59597732,16 8.7580095,15.8007953 8.0001468,15.4242226 C7.2585971,15.7927689 6.42273003,16 5.53846154,16 C2.47965369,16 0,13.5203463 0,10.4615385 C0,8.58250105 0.943981236,6.86644205 2.47015186,5.84997996 C2.46443489,5.74686756 2.46153846,5.6430028 2.46153846,5.53846154 C2.46153846,2.47965369 4.94119215,0 8,0 C11.0588078,0 13.5384615,2.47965369 13.5384615,5.53846154 C13.5384615,5.6430063 13.5355649,5.74687453 13.5298476,5.84999033 Z M13.2830501,7.20590852 C12.899555,8.42211432 12.1076941,9.4571011 11.0682942,10.1500418 C11.0740384,10.2534735 11.0769231,10.3573343 11.0769231,10.4615385 C11.0769231,12.1023741 10.3633856,13.5765541 9.22967432,14.5907148 C9.62471477,14.7083503 10.0384921,14.7692308 10.4615385,14.7692308 C12.8406112,14.7692308 14.7692308,12.8406112 14.7692308,10.4615385 C14.7692308,9.18794356 14.212375,8.0111932 13.2830501,7.20590852 Z M2.71694531,7.20589392 C1.7878393,8.01099712 1.23076923,9.18774454 1.23076923,10.4615385 C1.23076923,12.8406112 3.15938877,14.7692308 5.53846154,14.7692308 C7.81534582,14.7692308 9.67964251,13.0027333 9.83559627,10.7654936 C9.26114428,10.967218 8.64338363,11.0769231 8,11.0769231 C5.52224412,11.0769231 3.42450856,9.44986269 2.71694531,7.20589392 Z M8,9.84615385 C10.3790728,9.84615385 12.3076923,7.91753431 12.3076923,5.53846154 C12.3076923,3.15938877 10.3790728,1.23076923 8,1.23076923 C5.62092723,1.23076923 3.69230769,3.15938877 3.69230769,5.53846154 C3.69230769,7.91753431 5.62092723,9.84615385 8,9.84615385 Z"/>
</svg>
