<svg xmlns="http://www.w3.org/2000/svg" width="16" height="16" viewBox="0 0 16 16">
  <path fill="none" stroke="#4A4A4A" d="M3.53814352,8.65789087 C3.50893773,8.70576264 3.49348669,8.76075597 3.49348669,8.81683345 C3.49348669,8.98538116 3.6301216,9.12201607 3.79866931,9.12201607 L6.55864594,9.12201607 C6.599209,9.12262392 6.599209,9.12262392 6.63966289,9.12565948 C7.13613811,9.17040391 7.50233827,9.60914912 7.45759384,10.1056243 L7.00164787,15.1647095 C6.99122154,15.2803979 7.04737353,15.3919747 7.14649679,15.4525314 C7.29032753,15.5404009 7.47815768,15.4950353 7.56602717,15.3512046 L12.4617705,7.33752044 C12.4910386,7.28961246 12.5065245,7.23455949 12.5065245,7.17841865 C12.5065245,7.00987094 12.3698896,6.87323603 12.2013419,6.87323603 L9.43217083,6.87323603 C9.39160776,6.87262818 9.39160776,6.87262818 9.35115387,6.86959262 C8.85467866,6.82484819 8.4884785,6.38610298 8.53322293,5.88962777 L8.98874067,0.835294099 C8.99917304,0.719538646 8.9429502,0.607906097 8.84373254,0.547374999 C8.69984812,0.459593436 8.51204573,0.505073786 8.42426417,0.648958205 L3.53814352,8.65789087 Z"/>
</svg>
