<svg xmlns="http://www.w3.org/2000/svg" width="16" height="16" viewBox="0 0 16 16">
  <g fill="none">
    <rect width="15" height="15" x=".5" y=".5" stroke="#4A4A4A" rx="2"/>
    <circle cx="5" cy="5" r="2" stroke="#4A4A4A"/>
    <path fill="#4A4A4A" d="M15.9859881,8.36308263 L15.2719642,9.06320398 L12.249581,6.00066169 C12.0562478,5.80348944 11.7396807,5.80037726 11.5425084,5.99371043 C11.5291018,6.00685596 11.5164464,6.02074622 11.5046022,6.0353152 L7.83077538,10.5543096 C7.30819168,11.1971142 6.36345778,11.2945725 5.72065317,10.7719888 C5.68436784,10.7424898 5.64948184,10.71131 5.61610948,10.6785518 L4.64952358,9.72975283 C4.45695903,9.54073182 4.14915061,9.53860083 3.95398742,9.72493755 L0.690562185,12.8859968 L0,12.1627238 L3.26342524,9.00166452 C3.84891482,8.44265436 4.77234006,8.44904735 5.3500337,9.01611037 L6.3166196,9.96490931 C6.32774373,9.97582873 6.33937239,9.98622197 6.3514675,9.99605498 C6.56573571,10.1702496 6.880647,10.1377634 7.05484157,9.92349524 L10.7286684,5.40450087 C10.764201,5.36079391 10.8021674,5.31912313 10.8423871,5.27968655 C11.4339038,4.69968704 12.3836054,4.7090236 12.9636049,5.30054034 L15.9859881,8.36308263 Z"/>
  </g>
</svg>
