<svg xmlns="http://www.w3.org/2000/svg" width="16" height="16" viewBox="0 0 16 16">
  <g fill="#4A4A4A" transform="translate(1.5 1)">
    <path d="M5.47217498,5.64212177 C5.48468917,5.90984252 5.27780337,6.13701782 5.01008262,6.14953201 C4.74236187,6.1620462 4.51518657,5.9551604 4.50267238,5.68743965 C4.47100806,5.01003271 4.7215485,4.34699954 5.2106899,3.85785814 L8.35787107,0.71067697 C9.30544037,-0.236892323 10.8417537,-0.236892323 11.789323,0.71067697 C12.7368923,1.65824626 12.7368923,3.19455963 11.789323,4.14212893 L8.64214186,7.2893101 C8.19950622,7.73194574 7.61367323,7.98023518 7.00045627,7.99886279 C6.73256677,8.00700043 6.50880257,7.79642994 6.50066492,7.52854044 C6.49252728,7.26065094 6.70309777,7.03688673 6.97098727,7.02874909 C7.3394956,7.01755497 7.68977091,6.86910026 7.95585147,6.6030197 L11.1030326,3.45583854 C11.6715742,2.88729696 11.6715742,1.96550894 11.1030326,1.39696736 C10.5344911,0.828425785 9.61270304,0.828425785 9.04416146,1.39696736 L5.8969803,4.54414853 C5.60303336,4.83809547 5.45313484,5.23478867 5.47217498,5.64212177 Z"/>
    <path d="M0.972174983,12.142763 C0.98468917,12.4105142 0.777803374,12.6377153 0.510082623,12.6502309 C0.242361873,12.6627465 0.01518657,12.4558372 0.00267238288,12.188086 C-0.0289919435,11.5106021 0.221548505,10.8474936 0.710689904,10.3582966 L3.85787107,7.21075774 C4.80544037,6.26308075 6.34175374,6.26308075 7.28932303,7.21075774 C8.23689232,8.15843472 8.23689232,9.69492269 7.28932303,10.6425997 L4.14214186,13.7901385 C3.69950622,14.2328245 3.11367323,14.4811421 2.50045627,14.4997718 C2.23256677,14.5079104 2.00880257,14.297316 2.00066492,14.029396 C1.99252728,13.7614761 2.20309777,13.5376865 2.47098727,13.5295479 C2.8394956,13.5183525 3.18977091,13.3698809 3.45585147,13.1037701 L6.60303264,9.95623128 C7.17157421,9.38762509 7.17157421,8.46573231 6.60303264,7.89712612 C6.03449106,7.32851993 5.11270304,7.32851993 4.54416146,7.89712612 L1.3969803,11.044665 C1.10303336,11.3386453 0.953134836,11.7353836 0.972174983,12.142763 Z" transform="rotate(180 4 10.5)"/>
  </g>
</svg>
