<svg xmlns="http://www.w3.org/2000/svg" width="16" height="16" viewBox="0 0 16 16">
  <path fill="none" stroke="#4A4A4A" stroke-width="1.143" d="M5.76191554,8.30855077 C4.94883734,7.65868251 4.42857143,6.66238397 4.42857143,5.54545455 C4.42857143,3.58735407 6.02755446,2 8,2 C9.97244554,2 11.5714286,3.58735407 11.5714286,5.54545455 C11.5714286,6.66216824 11.0513636,7.65829765 10.2385556,8.30817418 C12.4095109,9.15667196 13.6616091,11.2756891 13.9403109,13.8643658 C13.9442374,13.9008365 13.9462049,13.9374916 13.9462049,13.9741731 C13.9462049,14.5407187 13.4869289,14.9999947 12.9203833,15 C12.7977818,15 12.6903456,15 12.5980748,15 C8.59958393,15 5.54689605,15 3.44001116,15 C3.33659817,15 3.21647554,15 3.07964328,15.0000036 C3.04283511,15.0000036 3.00605363,14.9980218 2.96945856,14.9940667 C2.40639529,14.9332134 1.99927369,14.4274291 2.06012703,13.8643658 C2.33972055,11.277345 3.59180526,9.15759618 5.76191554,8.30855077 Z"/>
</svg>
