<svg xmlns="http://www.w3.org/2000/svg" width="16" height="16" viewBox="0 0 16 16">
  <g fill="none">
    <rect width="15" height="15" x=".5" y=".5" stroke="#4A4A4A" rx="2"/>
    <path fill="#4A4A4A" d="M8.57050988,8.7873437 C8.40807321,8.7873437 8.27639226,8.65566274 8.27639226,8.49322605 L8.27639226,7.75339766 C8.27639226,7.59096097 8.40807321,7.45928002 8.57050988,7.45928002 L12.6923163,7.45928002 C12.8369641,7.45928002 12.9601401,7.56445694 12.9828019,7.70731857 C12.9932166,7.77297359 12.9979879,7.83013597 12.9994183,7.89421167 C13.0000052,7.93380399 13.0000052,7.93380399 12.9999989,7.97043337 C12.9999989,10.9071519 11.036578,13 8.12223205,13 C5.26150712,13 3,10.9432991 3,8.00335644 C3,5.1021847 5.20476614,3 8.16301148,3 C9.71462695,3 11.1219151,3.60932355 12.0635039,4.6708767 C12.1692446,4.79008952 12.1608154,4.97182812 12.0444939,5.08074144 L11.4333519,5.65296148 C11.3110424,5.76748149 11.1179152,5.75683835 11.0089304,5.62957183 C10.3219737,4.82738132 9.3009436,4.36440733 8.16301148,4.36440733 C6.01929044,4.36440733 4.45068829,5.86753597 4.45068829,8.00335644 C4.45068829,10.13253 6.0126939,11.637303 8.12223205,11.637303 C10.0113089,11.637303 11.2486968,10.5631315 11.4737191,8.7873437 L8.57050988,8.7873437 Z"/>
  </g>
</svg>
