<svg xmlns="http://www.w3.org/2000/svg" width="16" height="16" viewBox="0 0 16 16">
  <g fill="none" fill-rule="evenodd">
    <path fill="#4A4A4A" fill-rule="nonzero" d="M10.2631517,8.36092224 L3.21051564,1.33109593 C2.69272088,0.814975826 1.8532097,0.814975826 1.33541494,1.33109593 C0.817620181,1.84721603 0.817620181,2.68401206 1.33541494,3.20013216 L8.38805096,10.2299585 L10.2256717,10.6805054 C10.4288739,10.7303264 10.6339898,10.6059863 10.6838109,10.4027841 C10.6977871,10.3457798 10.6983269,10.2863078 10.6853876,10.2290592 L10.2631517,8.36092224 Z M0.66573612,0.66358299 C1.55338428,-0.22119433 2.9925463,-0.22119433 3.88019446,0.66358299 L11.0667662,7.82691189 C11.2108974,7.97057692 11.5152592,9.05241042 11.9798517,11.0724124 L11.979856,11.0724114 C12.0736477,11.4802083 11.8190961,11.8868263 11.4112992,11.9806179 C11.2981488,12.0066421 11.180531,12.0063136 11.0675277,11.9796578 C9.090751,11.513366 8.01901107,11.197138 7.8523079,11.030974 L0.66573612,3.8676451 C-0.22191204,2.98286778 -0.22191204,1.54836031 0.66573612,0.66358299 Z M5.81798211,2.59029626 L6.48766093,3.25780919 L3.27320259,6.46187131 L2.60352377,5.79435837 L5.81798211,2.59029626 Z M4.30267192,1.07988689 L4.97235074,1.74739983 L1.7578924,4.95146194 L1.08821358,4.283949 L4.30267192,1.07988689 Z"/>
    <path stroke="#4A4A4A" stroke-linecap="round" stroke-linejoin="round" d="M6.76228333,0.5 L10.5833333,0.5 C11.6418791,0.5 12.5,1.36145423 12.5,2.42 L12.5,10.5833333 C12.5,11.6418791 11.6418791,12.5 10.5833333,12.5 L2.42,12.5 C1.36145423,12.5 0.5,11.6418791 0.5,10.5833333 L0.5,6.75257365" transform="translate(3 3)"/>
  </g>
</svg>
