<svg xmlns="http://www.w3.org/2000/svg" width="20" height="20" viewBox="0 0 20 20">
  <g fill="none" fill-rule="evenodd">
    <path stroke="#4A4A4A" d="M5.50447486,18.998946 L9.82001002,15.75 L15,15.75 C17.4852814,15.75 19.5,13.7352814 19.5,11.25 L19.5,5 C19.5,2.51471863 17.4852814,0.5 15,0.5 L5,0.5 C2.51471863,0.5 0.5,2.51471863 0.5,5 L0.5,11.25 C0.5,13.7352814 2.51471863,15.75 5,15.75 L5.49918686,15.75 L5.50447486,18.998946 Z"/>
    <path fill="#4A4A4A" d="M5,9.46201369 C5,8.29320421 5.52674897,6.28953081 8.6872428,4.08549007 C8.85185185,3.95191184 9.01646091,3.95191184 9.27983539,4.25246285 C9.51028807,4.58640842 9.47736626,4.71998664 9.3127572,4.85356487 C8.09465021,5.72182334 7.23868313,6.69026549 7.23868313,7.62531307 C7.23868313,8.02604775 7.53497942,8.32659876 7.89711934,8.5269661 C8.32510288,8.760728 9.01646091,8.92770078 9.01646091,9.7625647 C9.01646091,10.7310068 8.0617284,12 6.90946502,12 C6.18518519,12 5,10.9647687 5,9.46201369 Z M10.563786,9.46201369 C10.563786,8.29320421 11.090535,6.28953081 14.2510288,4.08549007 C14.4156379,3.95191184 14.5802469,3.95191184 14.8106996,4.25246285 C15.0740741,4.58640842 15.0411523,4.71998664 14.8436214,4.85356487 C13.6584362,5.72182334 12.7695473,6.69026549 12.7695473,7.62531307 C12.7695473,8.02604775 13.0658436,8.32659876 13.4279835,8.5269661 C13.8888889,8.760728 14.5802469,8.92770078 14.5802469,9.7625647 C14.5802469,10.7310068 13.6255144,12 12.473251,12 C11.7160494,12 10.563786,10.9647687 10.563786,9.46201369 Z"/>
  </g>
</svg>
