<svg xmlns="http://www.w3.org/2000/svg" width="24" height="24" viewBox="0 0 24 24">
  <path fill="#4A4A4A" d="M16,12.6523437 L16,11.4830952 C16,11.2069528 16.2238576,10.9830952 16.5,10.9830952 C16.590622,10.9830952 16.6795402,11.0077241 16.7572479,11.0543487 L20.2854226,13.1712535 C20.5222127,13.3133276 20.5989952,13.6204577 20.4569211,13.8572479 C20.4146963,13.9276227 20.3557974,13.9865216 20.2854226,14.0287465 L16.7572479,16.1456513 C16.5204577,16.2877254 16.2133276,16.2109428 16.0712535,15.9741527 C16.0246289,15.896445 16,15.8075268 16,15.7169048 L16,14.6523437 L12.8064327,14.6523437 C11.7532538,14.6523437 10.7772051,14.1000817 10.2348343,13.1972973 L8.64892578,10.5575286 L7.06301728,13.1972973 C6.52064644,14.1000817 5.54459776,14.6523437 4.49141882,14.6523437 L1.72363281,14.6523437 C1.17134806,14.6523437 0.723632813,14.2046285 0.723632812,13.6523437 C0.723632812,13.100059 1.17134806,12.6523437 1.72363281,12.6523437 L4.49141882,12.6523437 C4.84247847,12.6523437 5.16782803,12.4682564 5.34861831,12.1673283 L7.48233619,8.61572266 L5.34861831,5.06411705 C5.16782803,4.76318891 4.84247847,4.57910156 4.49141882,4.57910156 L1.72363281,4.57910156 C1.17134806,4.57910156 0.723632812,4.13138631 0.723632812,3.57910156 C0.723632813,3.02681681 1.17134806,2.57910156 1.72363281,2.57910156 L4.49141882,2.57910156 C5.54459776,2.57910156 6.52064644,3.1313636 7.06301728,4.03414804 L8.64892578,6.67391667 L10.2348343,4.03414804 C10.7772051,3.1313636 11.7532538,2.57910156 12.8064327,2.57910156 L16,2.57910156 L16,1.43309519 C16,1.15695281 16.2238576,0.933095189 16.5,0.933095189 C16.590622,0.933095189 16.6795402,0.957724106 16.7572479,1.00434873 L20.2854226,3.12125354 C20.5222127,3.26332762 20.5989952,3.57045774 20.4569211,3.80724788 C20.4146963,3.87762268 20.3557974,3.93652158 20.2854226,3.97874646 L16.7572479,6.09565127 C16.5204577,6.23772535 16.2133276,6.16094282 16.0712535,5.92415269 C16.0246289,5.84644499 16,5.75752678 16,5.66690481 L16,4.57910156 L12.8064327,4.57910156 C12.4553731,4.57910156 12.1300235,4.76318891 11.9492333,5.06411705 L9.81551538,8.61572266 L11.9492333,12.1673283 C12.1300235,12.4682564 12.4553731,12.6523437 12.8064327,12.6523437 L16,12.6523437 Z" transform="translate(1 3.5)"/>
</svg>
