<svg xmlns="http://www.w3.org/2000/svg" width="16" height="16" viewBox="0 0 16 16">
  <path fill="#4A4A4A" d="M11.3949371,10.5110536 L14.6845824,13.8006989 C14.9286601,14.0447766 14.9286601,14.4405047 14.6845824,14.6845824 C14.4405047,14.9286601 14.0447766,14.9286601 13.8006989,14.6845824 L10.5110536,11.3949371 C9.54875936,12.1647045 8.32813357,12.625 7,12.625 C3.89339828,12.625 1.375,10.1066017 1.375,7 C1.375,3.89339828 3.89339828,1.375 7,1.375 C10.1066017,1.375 12.625,3.89339828 12.625,7 C12.625,8.32813357 12.1647045,9.54875936 11.3949371,10.5110536 Z M7,11.375 C9.41624578,11.375 11.375,9.41624578 11.375,7 C11.375,4.58375422 9.41624578,2.625 7,2.625 C4.58375422,2.625 2.625,4.58375422 2.625,7 C2.625,9.41624578 4.58375422,11.375 7,11.375 Z"/>
</svg>
