<svg xmlns="http://www.w3.org/2000/svg" xmlns:xlink="http://www.w3.org/1999/xlink" width="20" height="20" viewBox="0 0 20 20">
  <defs>
    <path id="sticker-a" d="M4.5,0 L13.5,0 C15.9852814,-4.56538782e-16 18,2.01471863 18,4.5 L18,10.6875 L10.6875,18 L4.5,18 C2.01471863,18 3.04359188e-16,15.9852814 0,13.5 L0,4.5 C-3.04359188e-16,2.01471863 2.01471863,4.56538782e-16 4.5,0 Z"/>
  </defs>
  <g fill="none" fill-rule="evenodd" transform="translate(1 1)">
    <mask id="sticker-b" fill="#fff">
      <use xlink:href="#sticker-a"/>
    </mask>
    <path stroke="#4A4A4A" d="M10.4803932,17.5 L17.5,10.4803932 L17.5,4.5 C17.5,2.290861 15.709139,0.5 13.5,0.5 L4.5,0.5 C2.290861,0.5 0.5,2.290861 0.5,4.5 L0.5,13.5 C0.5,15.709139 2.290861,17.5 4.5,17.5 L10.4803932,17.5 Z"/>
    <path fill="#4A4A4A" fill-rule="nonzero" d="M9,17.5497105 L9,12.375 C9,10.511039 10.511039,9 12.375,9 L17.5475109,9 L17.55,7.875 L12.375,7.875 C9.88971863,7.875 7.875,9.88971863 7.875,12.375 L7.875,17.55 L9,17.5497105 Z" mask="url(#sticker-b)"/>
  </g>
</svg>
