<svg xmlns="http://www.w3.org/2000/svg" width="16" height="16" viewBox="0 0 16 16">
  <path fill="#FFF" d="M8.93620996,3.84 L14.812758,9.72312842 C15.062414,9.97306397 15.062414,10.3782896 14.812758,10.6282251 C14.563102,10.8781606 14.1583297,10.8781606 13.9086737,10.6282251 L8.6714098,5.38509668 L8.6714098,15.36 C8.6714098,15.7134622 8.38519253,16 8.03212565,16 C7.67905876,16 7.3928415,15.7134622 7.3928415,15.36 L7.3928415,5.32077344 L2.09132631,10.6282251 C1.84167032,10.8781606 1.43689798,10.8781606 1.18724199,10.6282251 C0.937586003,10.3782896 0.937586003,9.97306397 1.18724199,9.72312842 L7.06379004,3.84 L2.2785683,3.84 C1.92550141,3.84 1.63928415,3.55346224 1.63928415,3.2 C1.63928415,2.84653776 1.92550141,2.56 2.2785683,2.56 L13.785683,2.56 C14.1387499,2.56 14.4249671,2.84653776 14.4249671,3.2 C14.4249671,3.55346224 14.1387499,3.84 13.785683,3.84 L8.93620996,3.84 Z M2.2785683,0 L13.785683,0 C14.1387499,0 14.4249671,0.28653776 14.4249671,0.64 C14.4249671,0.99346224 14.1387499,1.28 13.785683,1.28 L2.2785683,1.28 C1.92550141,1.28 1.63928415,0.99346224 1.63928415,0.64 C1.63928415,0.28653776 1.92550141,0 2.2785683,0 Z"/>
</svg>
